<svg width="38" height="38" viewBox="0 0 38 38" fill="none" xmlns="http://www.w3.org/2000/svg">
<path d="M6.27471 7.29721L9.88118 4.27586L16.1704 2L24.1877 2.71553L28.6467 4.19348L32.5676 8.33174L35.2583 12.2483L36 15.7263L35.7965 23.3329L31.1837 30.8705L23.6495 34.787L19.944 35L10.7337 32.7179L4.73712 26.2149L3 21.0604L4.18389 11.6724L6.27471 7.29721Z" fill="black"/>
<path d="M6.04994 20.7488C6.01117 20.4184 5.99387 20.085 5.99894 19.7516C6.00603 20.083 6.02138 20.4164 6.04994 20.7488Z" fill="#FFEE56"/>
<g style="mix-blend-mode:color-dodge" opacity="0.32">
<path d="M6.85697 13.8921L7.16283 13.9594L7.02518 14.2775L6.55618 15.3623C6.45425 15.6009 6.38692 15.8507 6.35739 16.1056L6.21057 17.3607L6.42979 15.2746C6.45633 15.0198 6.51643 14.7699 6.60822 14.5314L6.85697 13.8921Z" fill="#F2EEDD"/>
</g>
<path d="M7.0928 13.2841L7.9482 14.1314L7.16208 13.9591L7.0928 13.2841Z" fill="#CF6208"/>
<path d="M33.008 18.2092V18.2123C32.9682 21.9541 32.1902 23.1776 32.1902 23.1776L29.2732 27.5904C28.9979 28.0044 28.6197 28.3438 28.1751 28.5742L24.679 30.3085C23.9551 30.6674 23.2454 31.0049 22.4645 31.2221C21.8547 31.3903 21.3409 31.4902 20.7087 31.4199C19.3516 31.268 17.9711 31.1762 16.6375 30.8754C15.2163 30.5543 13.8235 30.0873 12.4267 29.6754C12.2136 29.6132 12.0015 29.55 11.7895 29.4878C11.5407 29.3787 11.3093 29.235 11.1002 29.0647L10.7913 28.8098C10.6078 28.6579 10.4436 28.4845 10.3019 28.2928L7.04737 23.8862C6.18274 22.5791 6.01758 20.5083 5.98596 19.8079C5.97985 19.6652 5.98395 19.5204 5.99819 19.3776L6.20719 17.3864L6.21025 17.3609L6.42947 15.2749C6.45601 15.02 6.51611 14.7701 6.6079 14.5316L6.85665 13.8923L7.16251 13.9596L7.94863 14.1319L7.34608 13.5355L7.09323 13.2847L8.25762 10.2922C8.4177 9.88032 8.49622 9.95779 8.82556 9.65498L10.0328 8.54362L10.0348 8.54257L10.9575 7.69322C11.3307 7.35067 11.7834 7.09984 12.2748 6.96421L16.0309 5.59694C16.1166 5.56533 16.2033 5.53781 16.2899 5.51335L16.2919 5.51231C16.7385 5.38384 17.2055 5.33694 17.6704 5.37362L20.5588 5.60507L21.2675 5.66218H21.2685L23.1333 5.81206C23.431 5.84777 23.7226 5.92726 23.9979 6.04962L25.7853 6.84491L26.4062 7.12124L25.6344 8.05821L26.9761 7.63916L29.3497 9.79562L30.1012 10.4797C30.3571 10.7101 30.5671 10.9845 30.7272 11.2873L32.0802 13.8801C32.2148 14.136 32.3086 14.4113 32.3616 14.6937L33.008 18.2092Z" fill="#FFDD00"/>
<path d="M32.9999 18.3005V18.3036C32.9602 22.1773 32.1829 23.4439 32.1829 23.4439L29.2686 28.0121C28.9935 28.4407 28.6156 28.7921 28.1715 29.0306L24.6785 30.826C23.9553 31.1975 23.2463 31.5469 22.466 31.7718C21.8569 31.9459 21.3434 32.0493 20.7119 31.9765C19.3561 31.8193 17.9768 31.7243 16.6444 31.4129C15.2245 31.0804 13.833 30.597 12.4375 30.1706C12.2245 30.1062 12.0127 30.0408 11.8008 29.9764C11.5522 29.8634 11.3211 29.7146 11.1122 29.5383L10.8035 29.2745C10.6202 29.1172 10.4562 28.9378 10.3146 28.7393L7.06306 24.1774C6.19922 22.8243 6.03421 20.6806 6.00262 19.9554C5.99651 19.8077 6.00061 19.6578 6.01484 19.51L6.22365 17.4487L6.22671 17.4223L6.44572 15.2627C6.47224 14.9989 6.53229 14.7402 6.62399 14.4933L6.87251 13.8314L7.17809 13.9011L7.96349 14.0795L7.36149 13.4621L7.10888 13.2024L8.2722 10.1045C8.43214 9.67811 8.51058 9.75831 8.83962 9.44484L10.0457 8.29432L10.0477 8.29324L10.9696 7.41396C11.3424 7.05935 11.7947 6.79968 12.2857 6.65927L16.0384 5.24383C16.124 5.2111 16.2106 5.18262 16.2971 5.1573L16.2991 5.15622C16.7453 5.02322 17.2119 4.97467 17.6763 5.01265L20.5621 5.25225L21.2701 5.31137H21.2712L23.1342 5.46653C23.4317 5.5035 23.723 5.58579 23.9981 5.71245L25.7838 6.53577L26.4041 6.82183L25.633 7.79181L26.9736 7.358L29.345 9.59043L30.0957 10.2987C30.3514 10.5372 30.5613 10.8212 30.7212 11.1346L32.0729 13.8188C32.2074 14.0837 32.3011 14.3687 32.3541 14.6611L32.9999 18.3005Z" fill="#FFDD00"/>
<g style="mix-blend-mode:multiply" opacity="0.49">
<path d="M32.9999 19.0001C32.9388 22.5921 32.1849 23.7725 32.1849 23.7725L29.2704 28.1653C28.9953 28.5774 28.6173 28.9153 28.1732 29.1447L24.68 30.8711C23.9566 31.2284 23.2476 31.5643 22.4673 31.7805C21.8581 31.948 21.3446 32.0474 20.713 31.9774C19.3571 31.8262 17.9777 31.7349 16.6453 31.4354C15.2252 31.1158 13.8336 30.6509 12.4379 30.2409C12.225 30.1789 12.0131 30.116 11.8013 30.0541C11.5527 29.9455 11.3215 29.8024 11.1126 29.6329L10.8039 29.3792C10.6206 29.228 10.4565 29.0554 10.3149 28.8646L7.06314 24.4779C6.19923 23.1767 6.03421 21.1153 6.00262 20.418C5.99651 20.2759 6.00061 20.1318 6.01484 19.9897L6.10551 19.127C12.0956 22.587 22.8493 26.5809 32.9999 19.0001Z" fill="#FFD100"/>
</g>
<path d="M20.7005 29.5596L24.2621 28.2589C24.3425 28.2295 24.4197 28.1917 24.4921 28.1461L26.2543 27.0372C26.3281 26.9908 26.3965 26.9366 26.4586 26.8756L28.6593 24.7126C28.8179 24.5566 28.9307 24.36 28.9851 24.1442L30.2108 19.2867C30.2572 19.1027 30.2598 18.9105 30.2184 18.7253L29.1102 13.7677C29.0465 13.4832 28.8826 13.231 28.6483 13.0575L23.212 9.03175C23.0208 8.89014 22.7921 8.80788 22.5545 8.79523L16.0221 8.44775C15.7352 8.43246 15.4523 8.51952 15.2235 8.69337L10.6619 12.1609C10.5132 12.2739 10.3926 12.4197 10.3095 12.587L9.51653 14.1835C9.46477 14.2877 9.42829 14.3988 9.40814 14.5134L8.74194 18.3086C8.72033 18.4319 8.7179 18.5578 8.73472 18.6818L9.46261 24.0348C9.50458 24.3434 9.6637 24.6241 9.90695 24.8187L13.7176 27.8663C13.8513 27.9732 14.0061 28.0506 14.1718 28.0934L19.9805 29.5946C20.2184 29.6561 20.4697 29.6439 20.7005 29.5596Z" fill="#FFDD00"/>
<path d="M30.3782 18.8843L30.3272 19.0811L29.1527 23.6478C29.0976 23.8578 28.9855 24.0515 28.8254 24.2045L26.6251 26.3242C26.5629 26.3833 26.4957 26.4374 26.4222 26.4832L24.6583 27.5701C24.587 27.614 24.5094 27.6507 24.4289 27.6803C24.3728 27.6966 24.3157 27.7119 24.2597 27.7261C24.1149 27.7669 23.968 27.8077 23.8212 27.8485L23.3828 27.9688L22.2541 28.2777C22.1236 28.3134 21.9941 28.3491 21.8636 28.3848C21.6832 28.4348 21.5037 28.4847 21.3233 28.5327C21.2825 28.5439 21.2427 28.5551 21.2009 28.5684L20.9562 28.6347C20.9511 28.6357 20.9429 28.6377 20.9378 28.6397C20.9021 28.6469 20.8685 28.655 20.8329 28.6602C20.7268 28.6765 20.6239 28.6846 20.5178 28.6857C20.3843 28.6806 20.2527 28.6602 20.1437 28.6327L14.4187 27.5346L14.3382 27.5182C14.172 27.4754 14.018 27.4 13.8845 27.2949L10.0733 24.3075C9.83068 24.1179 9.67059 23.8416 9.62877 23.5388L8.95382 18.6733L8.9008 18.292C8.88447 18.1697 8.88753 18.0463 8.909 17.926L9.57478 14.2056C9.59521 14.0924 9.63085 13.9843 9.68387 13.8823L10.4761 12.3163C10.5587 12.1542 10.679 12.0094 10.8278 11.8992L15.3894 8.50099C15.4639 8.44596 15.5434 8.39906 15.627 8.36334L15.6759 9.34416C15.8115 9.2901 15.9553 9.26161 16.1021 9.25953L16.0552 8.2603C16.1001 8.25724 16.1449 8.25724 16.1898 8.25926L22.7222 8.59979C22.9587 8.61098 23.1871 8.69255 23.3788 8.83124L28.8153 12.7791C29.0487 12.9483 29.2129 13.1961 29.2771 13.4745L30.3854 18.3338C30.4261 18.5163 30.4251 18.7048 30.3782 18.8843Z" fill="#C57100"/>
<path d="M30.3783 18.8839L30.3273 19.0807L29.2322 23.3385L29.2312 23.3435L29.1527 23.6474C29.0976 23.8574 28.9855 24.0512 28.8254 24.2041L26.6251 26.3238C26.5629 26.3829 26.4957 26.437 26.4222 26.4828L24.6583 27.5697C24.587 27.6136 24.5094 27.6503 24.4289 27.6799C24.3728 27.6962 24.3157 27.7115 24.2597 27.7257C24.1149 27.7665 23.968 27.8073 23.8212 27.8481C23.6744 27.8878 23.5286 27.9276 23.3828 27.9684L22.2541 28.2773C22.1236 28.3131 21.9941 28.3487 21.8636 28.3844C21.6832 28.4344 21.5037 28.4843 21.3233 28.5323C21.2825 28.5435 21.2427 28.5547 21.2009 28.568L20.9562 28.6343C20.9501 28.6363 20.944 28.6384 20.9378 28.6393C20.9021 28.6465 20.8685 28.6546 20.8329 28.6598C20.7268 28.6761 20.6239 28.6842 20.5178 28.6853C20.3843 28.6802 20.2527 28.6598 20.1437 28.6323L14.4187 27.5342L14.3382 27.5178C14.3137 27.5117 14.2893 27.5046 14.2648 27.4964C14.2413 27.4893 14.2189 27.4811 14.1954 27.472C14.1485 27.4536 14.1016 27.4322 14.0568 27.4078V27.4067C14.015 27.3853 13.9742 27.3598 13.9355 27.3323C13.9182 27.3201 13.9008 27.3079 13.8845 27.2946L10.1763 24.3878L10.0733 24.3073C9.83068 24.1176 9.67059 23.8413 9.62877 23.5385L8.95381 18.6731L8.9008 18.2918C8.88447 18.1694 8.88753 18.0461 8.909 17.9257L9.57478 14.2053C9.59521 14.0921 9.63085 13.9841 9.68387 13.8821L10.4761 12.316C10.5587 12.1539 10.679 12.0091 10.8278 11.899L15.2375 8.61385C15.3007 8.56695 15.362 8.51394 15.4241 8.46502C15.4924 8.41201 15.5627 8.36101 15.6412 8.32432C15.7483 8.27332 15.8665 8.25192 15.9869 8.24685C16.1592 8.23768 16.3386 8.26012 16.5048 8.27339C16.5395 8.27645 16.5731 8.27846 16.6067 8.28055C16.6567 8.2836 16.7056 8.28562 16.7556 8.28875C16.7852 8.28979 16.8137 8.2918 16.8433 8.29284C16.9717 8.3 17.1012 8.30709 17.2296 8.3132C17.2715 8.31626 17.3132 8.31828 17.3551 8.32036C17.6253 8.3346 17.8954 8.34787 18.1656 8.36219L18.1768 8.36323L18.7091 8.39074C18.8926 8.39992 19.0761 8.41013 19.2596 8.4193C19.3229 8.42236 19.386 8.42542 19.4493 8.42952C19.9285 8.45397 20.4076 8.47843 20.8859 8.50393C21.048 8.51206 21.2091 8.5213 21.3712 8.52943C21.515 8.53659 21.6597 8.54472 21.8035 8.55187C21.9248 8.55799 22.0472 8.5641 22.1696 8.57126C22.2634 8.57633 22.3582 8.58043 22.453 8.5855L22.6916 8.59773C22.7018 8.59877 22.7119 8.59975 22.7221 8.59975C22.9587 8.61093 23.1871 8.69251 23.3788 8.83119L28.8152 12.779C29.0487 12.9483 29.2128 13.1961 29.277 13.4744L30.3853 18.3337C30.4261 18.5163 30.4252 18.7044 30.3783 18.8839Z" fill="#ED9E00"/>
<g style="mix-blend-mode:multiply">
<path d="M30.3783 18.884L30.3273 19.0807L29.2322 23.3385L29.2312 23.3436L29.1527 23.6475C29.0976 23.8575 28.9855 24.0512 28.8254 24.2041L26.6251 26.3238C26.5629 26.383 26.4957 26.437 26.4222 26.4829L24.6583 27.5698C24.587 27.6136 24.5094 27.6503 24.4289 27.6799C24.3728 27.6963 24.3157 27.7115 24.2597 27.7258C24.1149 27.7666 23.968 27.8074 23.8212 27.8481C23.6744 27.8879 23.5286 27.9277 23.3828 27.9685L22.2541 28.2774C22.1236 28.3131 21.9941 28.3488 21.8636 28.3845C21.6832 28.4344 21.5037 28.4844 21.3233 28.5323C21.2825 28.5435 21.2427 28.5548 21.2009 28.5681L20.9562 28.6343C20.9501 28.6364 20.944 28.6384 20.9378 28.6394C20.9021 28.6466 20.8685 28.6547 20.8329 28.6598C20.7268 28.6762 20.6239 28.6843 20.5178 28.6853C20.3843 28.6803 20.2527 28.6598 20.1437 28.6323L14.4187 27.5342L14.3382 27.5179C14.3137 27.5118 14.2893 27.5046 14.2648 27.4965C14.2413 27.4893 14.2189 27.4812 14.1954 27.472C14.1485 27.4537 14.1016 27.4323 14.0568 27.4078V27.4068C14.015 27.3854 13.9742 27.3599 13.9355 27.3324C13.9182 27.3202 13.9008 27.3079 13.8845 27.2947L10.1763 24.3879L10.0733 24.3073C9.83068 24.1177 9.67059 23.8414 9.62877 23.5386L8.95381 18.6732L8.9008 18.2918C8.88447 18.1695 8.88753 18.0461 8.909 17.9258L9.57478 14.2054C9.59521 14.0922 9.63085 13.9841 9.68387 13.8821L10.4761 12.3161C10.5587 12.154 10.679 12.0092 10.8278 11.899L15.2375 8.61392L15.3894 8.50073C15.4027 8.49052 15.4149 8.47829 15.4241 8.46502C15.4924 8.41201 15.5627 8.36101 15.6412 8.32432C15.7483 8.27332 15.8665 8.25192 15.9869 8.24685C16.1592 8.23768 16.3386 8.26012 16.5048 8.27339C16.515 8.2754 16.5242 8.27749 16.5334 8.27749C16.6068 8.28159 16.6812 8.28465 16.7556 8.28868C16.7852 8.28972 16.8137 8.29173 16.8433 8.29277C16.9718 8.29993 17.1013 8.30702 17.2297 8.31313C17.3796 8.32133 17.5295 8.32946 17.6793 8.33655C17.8414 8.34572 18.0046 8.35392 18.1657 8.36205L18.1769 8.36309L18.7091 8.39061C18.8926 8.39978 19.0762 8.40999 19.2597 8.41916C19.3229 8.42222 19.3861 8.42528 19.4493 8.42938L19.8164 8.44772C19.9979 8.45793 20.1803 8.46711 20.3629 8.47628L20.8859 8.50379C21.048 8.51192 21.2092 8.52116 21.3713 8.52929C21.515 8.53645 21.6598 8.54458 21.8036 8.55174C21.9249 8.55785 22.0473 8.56396 22.1696 8.57112C22.2634 8.57619 22.3583 8.58029 22.453 8.58536C22.5163 8.58842 22.5795 8.59252 22.6417 8.59558C22.658 8.59662 22.6743 8.59759 22.6916 8.59759C22.7019 8.59864 22.712 8.59961 22.7222 8.59961C22.9587 8.6108 23.1871 8.69237 23.3788 8.83105L28.8153 12.7789C29.0487 12.9482 29.2129 13.1959 29.2771 13.4743L30.3854 18.3336C30.4261 18.5161 30.4252 18.7045 30.3783 18.884Z" fill="#E09806"/>
</g>
<path d="M30.3273 19.0808L29.2312 23.3437L29.1527 23.6475C29.0976 23.8576 28.9855 24.0513 28.8254 24.2042L26.6251 26.3239C26.5629 26.383 26.4957 26.4371 26.4222 26.4829L24.6583 27.5699C24.587 27.6137 24.5094 27.6504 24.4289 27.68C24.3728 27.6963 24.3157 27.7116 24.2597 27.7258C24.1149 27.7666 23.968 27.8074 23.8212 27.8482C23.6744 27.8879 23.5286 27.9278 23.3828 27.9685C23.3257 27.9838 23.2686 28.0002 23.2115 28.0165C22.9811 28.0787 22.7538 28.1419 22.5264 28.2041L22.2541 28.2775C22.1236 28.3132 21.9941 28.3488 21.8636 28.3845C21.6832 28.4345 21.5037 28.4845 21.3233 28.5324C21.2825 28.5436 21.2427 28.5548 21.2009 28.5681C21.1204 28.5915 21.0388 28.6161 20.9562 28.6344C20.9501 28.6364 20.944 28.6385 20.9378 28.6395C20.9021 28.6466 20.8685 28.6548 20.8329 28.6599C20.7268 28.6762 20.6239 28.6844 20.5178 28.6854C20.2038 28.6895 19.8928 28.6304 19.587 28.5681C19.1608 28.4815 18.7356 28.3978 18.3104 28.3132C18.0627 28.2633 17.8159 28.2133 17.5672 28.1634C17.3449 28.1195 17.1226 28.0747 16.9014 28.0308C16.6832 27.987 16.464 27.9442 16.2458 27.9003C16.0409 27.8595 15.838 27.8187 15.6341 27.778C15.4577 27.7433 15.2793 27.7066 15.1019 27.6709C14.9622 27.6434 14.8256 27.6159 14.6859 27.5883C14.5972 27.57 14.5095 27.5526 14.4188 27.5343L14.3383 27.518C14.2393 27.4925 14.1455 27.4558 14.0569 27.4078V27.4068C13.9967 27.3752 13.9386 27.3374 13.8846 27.2946L10.0734 24.3072C9.83075 24.1176 9.67067 23.8413 9.62884 23.5385L8.95389 18.6731L9.57478 15.2065C9.59521 15.0943 9.63085 14.9852 9.68387 14.8843L10.4761 13.3192C10.5587 13.1551 10.679 13.0113 10.8278 12.9001L15.3894 9.50189C15.4781 9.43561 15.575 9.38259 15.6759 9.34382C15.8115 9.28976 15.9553 9.26127 16.1021 9.25919C16.1306 9.25815 16.1602 9.25919 16.1898 9.26023L22.7222 9.60181C22.9587 9.61508 23.1871 9.69359 23.3788 9.83429L28.8153 13.7801C29.0487 13.9504 29.2129 14.1971 29.2771 14.4764L30.3273 19.0808Z" fill="#ED9E00"/>
<path d="M30.3273 19.0807L30.1325 19.8372L29.2322 23.3385L29.2312 23.3435L29.1527 23.6474C29.0976 23.8574 28.9855 24.0511 28.8254 24.2041L26.6251 26.3238C26.5629 26.3829 26.4957 26.4369 26.4222 26.4828L24.6583 27.5697C24.587 27.6136 24.5094 27.6502 24.4289 27.6798C24.3728 27.6962 24.3157 27.7115 24.2597 27.7257C24.1149 27.7665 23.968 27.8073 23.8212 27.8481C23.6744 27.8878 23.5286 27.9276 23.3828 27.9684C23.3257 27.9837 23.2686 28 23.2115 28.0164C22.9811 28.0785 22.7538 28.1418 22.5264 28.204L22.2541 28.2773C22.1236 28.313 21.9941 28.3487 21.8636 28.3844C21.6832 28.4344 21.5037 28.4843 21.3233 28.5323C21.2825 28.5434 21.2427 28.5547 21.2009 28.568C21.1204 28.5914 21.0388 28.6159 20.9562 28.6343C20.9501 28.6363 20.944 28.6384 20.9378 28.6393C20.9021 28.6465 20.8685 28.6546 20.8329 28.6598C20.7268 28.6761 20.6239 28.6842 20.5178 28.6853C20.2038 28.6894 19.8928 28.6302 19.587 28.568C19.1608 28.4813 18.7356 28.3977 18.3104 28.3131C18.0627 28.2632 17.8159 28.2132 17.5672 28.1632C17.3449 28.1194 17.1226 28.0746 16.9014 28.0307C16.6832 27.9868 16.464 27.944 16.2458 27.9002C16.0409 27.8594 15.838 27.8186 15.6341 27.7778C15.4577 27.7431 15.2793 27.7065 15.1019 27.6707C14.9622 27.6432 14.8256 27.6157 14.6859 27.5882C14.5972 27.5699 14.5095 27.5525 14.4188 27.5341L14.3383 27.5178C14.2393 27.4923 14.1455 27.4556 14.0569 27.4077V27.4066C13.9967 27.375 13.9386 27.3373 13.8846 27.2945L10.1764 24.3877L10.0734 24.3072C9.83075 24.1176 9.67067 23.8412 9.62884 23.5384L8.95389 18.673L9.19145 17.3445L9.57478 15.2065C9.59521 15.0943 9.63085 14.9852 9.68387 14.8843L10.4761 13.3192C10.5587 13.1551 10.679 13.0113 10.8278 12.9001L15.3894 9.50189C15.4781 9.43561 15.575 9.38259 15.6759 9.34382C15.8115 9.28976 15.9553 9.26127 16.1021 9.25919C16.1306 9.25815 16.1602 9.25919 16.1898 9.26023L22.7222 9.60181C22.9587 9.61508 23.1871 9.69359 23.3788 9.83429L28.8153 13.7801C29.0487 13.9504 29.2129 14.1971 29.2771 14.4764L30.3273 19.0807Z" fill="#DE8500"/>
<path d="M26.7809 22.366V23.2525L24.8667 23.7684C21.4511 24.6886 17.8544 24.6886 14.4388 23.7684L12.5246 23.2525V22.366L12.6741 22.406L14.4388 22.8819C17.8544 23.8021 21.4511 23.8021 24.8667 22.8819L26.6314 22.406L26.7809 22.366Z" fill="#FFDD00"/>
<path d="M26.7809 22.366V23.2525L24.8667 23.7684C21.4511 24.6886 17.8544 24.6886 14.4388 23.7684L12.5246 23.2525V22.366L12.6741 22.406L14.4388 22.8819C17.8544 23.8021 21.4511 23.8021 24.8667 22.8819L26.6314 22.406L26.7809 22.366Z" fill="#ED9E00"/>
<g style="mix-blend-mode:multiply">
<path d="M26.7809 22.366V23.2525L24.8667 23.7684C21.4511 24.6886 17.8544 24.6886 14.4388 23.7684L12.5246 23.2525V22.366L12.6741 22.406L14.4388 22.8819C17.8544 23.8021 21.4511 23.8021 24.8667 22.8819L26.6314 22.406L26.7809 22.366Z" fill="#E0AC01"/>
</g>
<g style="mix-blend-mode:multiply">
<path d="M26.7814 22.366V23.253L24.8666 23.7689C21.451 24.6885 17.854 24.6885 14.4383 23.7689L12.5246 23.253V22.366L12.6745 22.4057L13.4748 22.6219L14.4383 22.8819C17.6561 23.7496 21.0351 23.7995 24.2722 23.0328C24.471 22.9859 24.6688 22.9349 24.8667 22.8819L26.6316 22.4057L26.7814 22.366Z" fill="#E0AC01"/>
</g>
<path d="M23.0876 12.4275L23.1893 12.4953C23.1554 12.4696 23.1215 12.448 23.0876 12.4275Z" fill="#FFDD00"/>
<path d="M26.5826 21.2483C26.3593 20.0136 26.3491 19.8117 26.1299 18.578C25.9546 17.5931 25.7853 16.6276 25.4794 15.7191C25.2214 14.9493 24.8656 14.2203 24.3273 13.5535C24.3007 13.5239 24.2753 13.4902 24.2477 13.4586C24.1927 13.3954 24.1376 13.3322 24.0795 13.269C23.8328 13.0018 23.5697 12.7653 23.2894 12.5635L22.9376 12.332C22.1566 11.8559 21.2726 11.603 20.3366 11.5358C20.1093 11.5194 19.8799 11.5123 19.6525 11.5164C19.4231 11.5123 19.1957 11.5194 18.9684 11.5358C18.4647 11.5715 17.9753 11.6622 17.5093 11.8121C16.6539 12.0863 15.875 12.5615 15.2265 13.2691C15.1674 13.3323 15.1123 13.3955 15.0583 13.4587C15.0308 13.4903 15.0053 13.5239 14.9777 13.5535C14.579 14.047 14.2803 14.5751 14.0479 15.1278C13.6481 16.0755 13.4415 17.0986 13.2515 18.1508L14.2758 18.4648L13.1751 18.578C12.9539 19.8117 12.9539 19.9565 12.7305 21.1912C12.7264 21.2187 12.5287 22.3382 12.5246 22.3658L14.4383 22.8817C17.854 23.8023 21.451 23.8023 24.8666 22.8817L25.6344 22.6747L26.7814 22.3658C26.7763 22.3382 26.5867 21.2748 26.5826 21.2483ZM16.7803 18.3649C16.4663 18.3649 16.2093 18.1018 16.2093 17.7796C16.2093 17.6237 16.2684 17.483 16.3674 17.3769L17.3299 17.6175C17.3451 17.6675 17.3533 17.7225 17.3533 17.7796C17.3533 18.1018 17.0964 18.3649 16.7803 18.3649ZM22.0301 19.5446C21.9679 19.7302 21.8456 19.9198 21.6763 20.0962C21.2399 20.5478 20.4895 20.9149 19.6361 20.9149C18.2882 20.9149 17.1953 19.9993 17.1953 19.2723C17.1953 18.6779 17.9314 18.3965 18.9398 18.314C19.16 18.2956 19.3945 18.2874 19.6361 18.2874C20.984 18.2874 22.076 18.5484 22.076 19.2723C22.076 19.3611 22.0617 19.4518 22.0301 19.5446ZM22.4889 18.3649C22.1728 18.3649 21.919 18.1018 21.919 17.7796C21.919 17.7225 21.9272 17.6675 21.9414 17.6175L22.9039 17.3769C23.0007 17.483 23.0619 17.6237 23.0619 17.7796C23.0619 18.1018 22.805 18.3649 22.4889 18.3649Z" fill="#FFDD00"/>
<path d="M16.2897 5.51316L11.7495 7.48194L10.0346 8.54231L10.9573 7.69296C11.3305 7.35041 11.7832 7.09958 12.2746 6.96395L16.0308 5.59668C16.1164 5.56507 16.203 5.53762 16.2897 5.51316Z" fill="#FFEDA0"/>
<path d="M25.6346 8.0579L25.7416 7.7082L25.6743 7.53894L25.9455 7.39108L25.3797 7.13108L26.0577 7.17694L23.4139 6.08085L21.2687 5.6618L23.1334 5.81168C23.4312 5.84739 23.7228 5.92688 23.9981 6.04924L26.4063 7.12079L25.6346 8.0579Z" fill="#FFEDA0"/>
<path d="M25.6343 8.05806L26.9649 7.79993L28.5795 9.09563L26.9761 7.63901L25.6343 8.05806Z" fill="#FFEDA0"/>
<path d="M16.7805 18.4868C16.4667 18.4868 16.2098 18.2046 16.2098 17.8591C16.2098 17.692 16.2688 17.5407 16.3678 17.4278L17.3302 17.6853C17.3449 17.7395 17.3533 17.7982 17.3533 17.8591C17.3533 18.2046 17.0964 18.4868 16.7805 18.4868ZM22.0303 19.7512C21.8092 20.4625 20.8216 21.2212 19.6359 21.2212C18.2883 21.2212 17.1953 20.239 17.1953 19.46C17.1953 18.6832 18.2883 18.4032 19.6359 18.4032C20.9836 18.4032 22.0766 18.6832 22.0766 19.46C22.0766 19.5548 22.0619 19.6519 22.0303 19.7512ZM22.4894 18.4868C22.1735 18.4868 21.9187 18.2046 21.9187 17.8591C21.9187 17.7982 21.9271 17.7395 21.9419 17.6853L22.9042 17.4278C23.0011 17.5407 23.0622 17.692 23.0622 17.8591C23.0622 18.2046 22.8052 18.4868 22.4894 18.4868Z" fill="#FFEDA0"/>
<path d="M22.9045 17.377L21.942 17.6176C21.9267 17.6676 21.9185 17.7226 21.9185 17.7797C21.9185 17.9775 22.0144 18.1529 22.1622 18.2589C22.2549 18.3263 22.3671 18.365 22.4894 18.365C22.727 18.365 22.9299 18.2171 23.0176 18.0071V18.006C23.0461 17.9367 23.0625 17.8602 23.0625 17.7796C23.0625 17.6237 23.0013 17.483 22.9045 17.377ZM19.6357 18.2875C18.2888 18.2875 17.1958 18.5485 17.1958 19.2724C17.1958 19.9993 18.2887 20.915 19.6357 20.915C20.8214 20.915 21.8094 20.2074 22.0307 19.5446C22.0623 19.4519 22.0765 19.3611 22.0765 19.2724C22.0765 18.5485 20.9836 18.2875 19.6357 18.2875ZM17.3304 17.6176L16.3679 17.377C16.269 17.483 16.2098 17.6237 16.2098 17.7797C16.2098 17.8868 16.2384 17.9867 16.2884 18.0733C16.3863 18.2477 16.5708 18.365 16.7808 18.365C16.8797 18.365 16.9735 18.3395 17.0541 18.2936C17.2325 18.1937 17.3528 18.001 17.3528 17.7797C17.3528 17.7226 17.3447 17.6676 17.3304 17.6176Z" fill="#ED9E00"/>
<path d="M26.4061 7.12083L25.6343 8.05787L26.4061 7.81677V7.12083Z" fill="#ED9E00"/>
<g style="mix-blend-mode:multiply">
<path d="M26.4061 7.12083L25.6343 8.05787L26.4061 7.81677V7.12083Z" fill="#E09806"/>
</g>
<path d="M30.3273 19.3853L29.2312 23.6482L29.1527 23.952C29.0976 24.1621 28.9855 24.3558 28.8254 24.5087L26.6251 26.6284C26.5629 26.6875 26.4957 26.7416 26.4222 26.7874L24.6583 27.8744C24.587 27.9182 24.5094 27.9549 24.4289 27.9845C24.3728 28.0008 24.3157 28.0161 24.2597 28.0303C24.1149 28.0711 23.968 28.1119 23.8212 28.1527C23.6744 28.1924 23.5286 28.2322 23.3828 28.273C23.3257 28.2883 23.2686 28.3046 23.2115 28.3209C22.9811 28.3831 22.7538 28.4463 22.5264 28.5085L22.2541 28.5819C22.1236 28.6176 21.9941 28.6533 21.8636 28.689C21.6832 28.7389 21.5037 28.7889 21.3233 28.8368C21.2825 28.848 21.2427 28.8593 21.2009 28.8725C21.1204 28.896 21.0388 28.9205 20.9562 28.9388C20.9501 28.9408 20.944 28.9429 20.9378 28.9439C20.9021 28.9511 20.8685 28.9592 20.8329 28.9643C20.7268 28.9807 20.6239 28.9888 20.5178 28.9898C20.2038 28.9939 19.8928 28.9348 19.587 28.8725C19.1608 28.7859 18.7356 28.7022 18.3104 28.6177C18.0627 28.5677 17.8159 28.5178 17.5672 28.4678C17.3449 28.424 17.1226 28.3791 16.9014 28.3352C16.6832 28.2914 16.464 28.2486 16.2458 28.2047C16.0409 28.164 15.838 28.1232 15.6341 28.0824C15.4577 28.0477 15.2793 28.011 15.1019 27.9753C14.9622 27.9478 14.8256 27.9203 14.6859 27.8928C14.5972 27.8744 14.5095 27.8571 14.4188 27.8387L14.3383 27.8224C14.2393 27.7969 14.1455 27.7602 14.0569 27.7123V27.7112C13.9967 27.6796 13.9386 27.6419 13.8846 27.5991L10.0734 24.6117C9.83075 24.4221 9.67067 24.1457 9.62884 23.8429L8.95389 18.9775L8.9773 18.8439L9.62884 23.5381C9.67067 23.8409 9.83075 24.1172 10.0734 24.3069L13.8846 27.2942C13.9386 27.3371 13.9967 27.3748 14.0569 27.4064V27.4074C14.1455 27.4554 14.2393 27.4921 14.3383 27.5176L14.4188 27.5339C14.5096 27.5522 14.5972 27.5696 14.6859 27.5879C14.8256 27.6155 14.9622 27.643 15.1019 27.6705C15.2793 27.7062 15.4577 27.7429 15.6341 27.7776C15.8381 27.8184 16.0409 27.8591 16.2458 27.8999C16.464 27.9438 16.6832 27.9866 16.9014 28.0304C17.1226 28.0743 17.3449 28.1191 17.5672 28.163C17.8159 28.2129 18.0627 28.2629 18.3104 28.3129C18.7356 28.3975 19.1608 28.4811 19.587 28.5677C19.8928 28.6299 20.2038 28.689 20.5178 28.685C20.6239 28.684 20.7268 28.6758 20.8329 28.6595C20.8685 28.6544 20.9022 28.6462 20.9378 28.6391C20.944 28.638 20.9501 28.636 20.9562 28.634C21.0388 28.6157 21.1204 28.5912 21.2009 28.5677C21.2427 28.5544 21.2825 28.5433 21.3233 28.532C21.5037 28.4841 21.6832 28.4341 21.8636 28.3841C21.9941 28.3484 22.1236 28.3128 22.2541 28.2771L22.5264 28.2037C22.7538 28.1415 22.9811 28.0783 23.2115 28.0161C23.2686 27.9998 23.3257 27.9834 23.3828 27.9682C23.5286 27.9274 23.6744 27.8876 23.8212 27.8478C23.968 27.807 24.1149 27.7662 24.2597 27.7255C24.3157 27.7112 24.3728 27.6959 24.4289 27.6796C24.5094 27.6501 24.587 27.6133 24.6583 27.5695L26.4222 26.4826C26.4956 26.4367 26.5629 26.3826 26.6251 26.3235L28.8254 24.2038C28.9855 24.0509 29.0976 23.8572 29.1527 23.6471L29.2312 23.3433L30.2905 19.2242L30.3273 19.3853Z" fill="#FFEDA0"/>
<g style="mix-blend-mode:multiply">
<path d="M29.2376 13.3393L29.0785 14.0439C29.0072 13.9439 28.9175 13.8542 28.8155 13.7798L23.379 9.83399C23.273 9.75652 23.1557 9.69739 23.0324 9.65862L22.9814 8.64105C23.1241 8.67878 23.2587 8.74403 23.379 8.83074L28.8155 12.7786C29.0102 12.9203 29.157 13.116 29.2376 13.3393Z" fill="#FFC100"/>
</g>
<g style="mix-blend-mode:multiply">
<path d="M16.0805 8.24477V9.26026C15.9408 9.26436 15.8052 9.29285 15.6757 9.34385C15.5747 9.38262 15.4779 9.43563 15.3892 9.50192L10.8276 12.9002L10.7624 11.9509C10.7838 11.9325 10.8052 11.9152 10.8276 11.8989L15.2373 8.6138L15.3892 8.50061C15.4025 8.49039 15.4147 8.47817 15.4239 8.46489C15.4922 8.41188 15.5625 8.36088 15.641 8.32419C15.7481 8.27319 15.8664 8.25179 15.9867 8.24672C16.0173 8.24471 16.0489 8.24477 16.0805 8.24477Z" fill="#FFC100"/>
</g>
<path d="M11.6086 11.3175L15.4117 8.64143C15.4117 8.64143 15.7394 8.28082 16.2593 8.36753L22.6919 8.59759L16.4175 8.14908C16.4175 8.14908 15.8148 8.00539 15.3189 8.36989L11.6086 11.3175Z" fill="#FFEDA0"/>
<path d="M23.3792 8.83095L29.0942 12.7815C29.2488 12.8834 29.3531 13.046 29.3812 13.2291L30.3857 18.3335L29.182 13.3569C29.1461 13.2085 29.0595 13.0774 28.9373 12.986L23.3792 8.83095Z" fill="#FFEDA0"/>
<path d="M8.909 17.9254L9.25175 15.0393C9.3336 14.3502 9.54629 13.683 9.87848 13.0737L10.4159 12.0878C10.4824 11.9659 10.5831 11.866 10.7055 11.8004L11.6084 11.3172L10.6616 12.1607L10.0309 13.35C9.77648 13.8295 9.5952 14.3445 9.493 14.8777L8.909 17.9254Z" fill="#FFEDA0"/>
<g style="mix-blend-mode:multiply" opacity="0.52">
<path d="M30.3273 19.0808L30.1325 19.8373L28.6684 14.3306L22.8364 10.1268L16.0806 9.71895L10.9694 13.3477L9.92026 15.2125L9.19125 17.3445L9.57459 15.2065C9.59502 15.0943 9.63066 14.9852 9.68367 14.8843L10.4759 13.3192C10.5585 13.1551 10.6788 13.0113 10.8276 12.9001L15.3892 9.50189C15.4779 9.43561 15.5748 9.38259 15.6757 9.34382C15.8113 9.28976 15.9551 9.26127 16.1019 9.25919C16.1305 9.25815 16.16 9.25919 16.1896 9.26023L22.722 9.60181C22.9585 9.61508 23.1869 9.69359 23.3786 9.83429L28.8151 13.7801C29.0485 13.9504 29.2127 14.1971 29.2769 14.4764L30.3273 19.0808Z" fill="#E5B32D"/>
</g>
<g style="mix-blend-mode:multiply" opacity="0.52">
<path d="M27.1074 23.8133C24.123 25.203 19.3623 25.1974 19.3623 25.1974C15.8865 25.1464 12.1742 23.8414 12.1742 23.8414L12.525 23.2531L14.4387 23.769C17.8543 24.6886 21.4514 24.6886 24.867 23.769L26.7818 23.2531L27.1074 23.8133Z" fill="#E5B32D"/>
</g>
<g style="mix-blend-mode:color-dodge" opacity="0.32">
<path d="M24.769 16.3073C24.3904 14.9491 23.8033 13.7212 22.5519 12.8572C21.0737 11.8367 19.2043 11.8213 17.5134 12.2292C17.5134 12.2292 16.2249 12.8282 15.6598 13.2803C15.6038 13.3252 16.0915 13.9971 16.1243 14.0399C16.5872 14.6451 17.1864 15.1408 17.8501 15.5117C18.6178 15.9408 19.4701 16.2015 20.3375 16.332C21.3739 16.488 22.4444 16.2817 23.4671 16.5499C24.0612 16.7058 24.5661 17.1905 25.063 17.5442C24.9754 17.1245 24.8814 16.7102 24.769 16.3073Z" fill="#F2EEDD"/>
</g>
<g style="mix-blend-mode:multiply" opacity="0.17">
<path d="M13.4254 18.8733C13.9892 18.7891 14.5648 18.7049 15.1275 18.7955C15.5118 18.8574 15.8943 19.0122 16.1793 19.271C16.5276 19.5871 16.7367 20.0165 17.0117 20.3913C17.8835 21.5791 19.4718 22.078 20.8377 21.4903C21.3648 21.2636 21.8283 20.9062 22.2012 20.4719C22.5787 20.0322 22.8014 19.4198 23.3032 19.0985C23.7627 18.8043 24.343 18.7769 24.8786 18.7798C24.9785 18.7804 25.8467 18.8094 25.8553 18.8629L26.3701 22.0343C26.3728 22.0507 25.81 22.2322 25.7544 22.2516C25.5404 22.3265 25.3257 22.3994 25.1092 22.4665C24.6802 22.5993 24.2427 22.7006 23.8022 22.7867C23.4085 22.8638 23.0123 22.9276 22.6152 22.9834C21.4511 23.1468 20.2881 23.2019 19.114 23.2019C17.3307 23.1661 15.5613 22.8283 13.8555 22.319C13.559 22.2305 13.2642 22.1367 12.9709 22.0378C13.122 20.983 13.2731 19.9282 13.4254 18.8733Z" fill="#E5B32D"/>
</g>
<g style="mix-blend-mode:color-dodge" opacity="0.32">
<path d="M25.7848 6.84442C25.5064 6.74249 25.2148 6.67412 24.9171 6.64257L22.8453 6.4927H22.8443L22.0572 6.43558L18.8475 6.20414C18.3306 6.16745 17.8116 6.21435 17.3162 6.34275L17.3131 6.3438C17.2173 6.36825 17.1214 6.39577 17.0256 6.42738L12.8524 7.79466C12.3059 7.93029 11.8032 8.18105 11.3883 8.52367L10.3626 9.37295L10.3606 9.37399L9.01976 10.4854C8.65372 10.7882 8.56604 10.7107 8.38865 11.1226L7.34565 13.5349L7.0928 13.2841L8.25719 10.2916C8.41728 9.87975 8.49579 9.95722 8.82514 9.65442L10.0323 8.54305L10.0343 8.54201L10.9571 7.69266C11.3303 7.35011 11.7829 7.09928 12.2744 6.96365L16.0305 5.59638C16.1162 5.56476 16.2028 5.53725 16.2895 5.51279L16.2915 5.51175C16.7381 5.38327 17.205 5.33637 17.67 5.37306L20.5584 5.60451L21.2671 5.66162H21.2681L23.1329 5.81149C23.4306 5.84721 23.7222 5.92669 23.9975 6.04905L25.7848 6.84442Z" fill="#F2EEDD"/>
</g>
<path d="M16.6225 12.1923C23.3772 10.2918 25.3073 15.198 25.5367 15.8668C25.4572 15.616 25.3685 15.3693 25.2666 15.1276C25.0341 14.575 24.7354 14.0468 24.3367 13.5534C24.3092 13.5238 24.2837 13.4901 24.2562 13.4585C24.2021 13.3953 24.1471 13.3321 24.088 13.2689C23.4395 12.5613 22.6605 12.0862 21.8051 11.8119C21.3392 11.6621 20.8497 11.5713 20.3461 11.5356C20.1187 11.5193 19.8913 11.5122 19.6619 11.5162C19.4346 11.5121 19.2052 11.5193 18.9778 11.5356C18.1591 11.5947 17.3801 11.7956 16.6745 12.1636L16.6225 12.1923Z" fill="#FFEDA0"/>
<path d="M13.2512 18.1508V18.5702L14.2755 18.4648L13.2512 18.1508Z" fill="#CF6208"/>
<path d="M24.388 23.0108V23.638L24.707 22.924L24.0743 22.366L24.388 23.0108Z" fill="#CF6208"/>
<path d="M7.14053 23.8737L7.27491 24.0836L8.11947 23.4121L7.14053 23.8737Z" fill="#FFDD00"/>
<path d="M16.797 18.1283C16.9127 18.1622 17.0286 18.1953 17.1445 18.2285C17.2715 18.1211 17.3528 17.9605 17.3528 17.7796C17.3528 17.7225 17.3446 17.6675 17.3304 17.6175L16.3679 17.3769C16.269 17.483 16.2098 17.6237 16.2098 17.7796C16.2098 17.8477 16.2225 17.9124 16.2437 17.9732C16.4302 18.0164 16.613 18.0743 16.797 18.1283Z" fill="#CF6208"/>
<path d="M23.0278 17.9761C23.0494 17.9149 23.062 17.8489 23.062 17.7796C23.062 17.6237 23.0009 17.483 22.904 17.3769L21.9415 17.6175C21.9263 17.6675 21.9181 17.7225 21.9181 17.7796C21.9181 17.9448 21.9856 18.0938 22.0937 18.2004C22.396 18.0877 22.7091 18.0217 23.0278 17.9761Z" fill="#CF6208"/>
</svg>
