<svg width="38" height="39" viewBox="0 0 38 39" fill="none" xmlns="http://www.w3.org/2000/svg">
<path fill-rule="evenodd" clip-rule="evenodd" d="M3.59259 14.3532L7.14815 13.168L4.77778 9.61245L12.4815 4.27912L14.8519 5.4643L15.4444 3.68652L26.1111 4.27912L26.7037 7.83467L30.2593 7.24208L35 16.131L32.6296 18.5013V20.2791L35 21.4643L33.8148 25.6124L30.2593 31.5384L27.2963 30.9458L26.7037 34.5013L15.4444 35.6865L14.8519 32.7236L11.8889 34.5013L4.18519 27.9828L6.55556 25.6124L3 24.4273L3.59259 14.3532ZM16.6297 19.6866L17.8149 17.9088H20.1852L20.7778 20.2792L18.4075 21.4644L16.6297 19.6866Z" fill="black"/>
<path fill-rule="evenodd" clip-rule="evenodd" d="M20.7776 24.4272L23.6161 21.1088V17.9198L21.9628 15.1518L18.4073 14.3531L14.8517 15.966L13.6665 20.279L16.0369 23.8346L20.7776 24.4272ZM12.4112 8.02161L14.698 10.0083L17.1209 9.17537L17.523 6.64941L23.6161 6.93406L23.8134 9.67945L25.9081 11.4679L28.2136 11.1469L30.6542 15.966L28.6983 17.9198L28.6052 21.1088L31.4443 23.0062L30.8237 24.7956L28.6052 27.8988L26.3303 27.372L23.8931 29.2507L24.0038 32.0403L17.7446 32.7235L17.523 29.7605L14.8517 28.5753L12.1256 30.9854L8.55557 27.3041L10.7036 24.7956L9.6885 22.7607L6.55542 22.8745L6.5835 16.6713H9.6885L10.7036 13.1679L8.47807 11.163L12.4112 8.02161Z" fill="#FFFBEF"/>
</svg>
