<svg width="44" height="44" viewBox="0 0 44 44" fill="none" xmlns="http://www.w3.org/2000/svg">
<rect width="44" height="44" fill="black"/>
<path d="M3 3H41.0003L40.0003 41L4 40L3 3Z" fill="#FF523D"/>
<path fill-rule="evenodd" clip-rule="evenodd" d="M22.1254 13.1136L16.3411 7L7.77171 13.3232L14.2134 20.3089L7 26.8689L14.0317 34.8317L21.2364 27.9252L28.4544 35.7528L35.9999 27.7778L29.0514 20.4338L35.629 14.1284L28.5976 7.22761L22.1254 13.1136Z" fill="#AA200F"/>
<path fill-rule="evenodd" clip-rule="evenodd" d="M21.773 16.2461L15.9979 9.9458L11.0356 13.4399L17.3969 20.3736L10.0967 27.2593L14.0179 31.4021L21.3824 24.7177L28.6904 32.6832L33.1012 28.6044L25.8344 20.6768L32.8819 14.2802L28.1581 10.2236L21.773 16.2461Z" fill="white"/>
</svg>
