<svg width="140" height="27" viewBox="0 0 140 27" fill="none" xmlns="http://www.w3.org/2000/svg">
<path d="M15.3421 2.968C15.5101 3.592 15.4861 6.208 15.3421 7.192L13.0621 6.928L9.87006 6.88C9.75006 7.984 9.82206 10.144 9.79806 11.824C9.77406 12.976 9.89406 14.152 10.0621 17.68L10.1581 18.928C9.39006 19.432 7.92606 19.528 5.67006 19.408L5.57406 17.752L5.83806 11.56L6.03006 6.832C5.04606 6.76 4.06206 6.76 2.88606 6.856L1.01406 7.192C0.870063 6.472 0.870063 5.344 0.870063 4.984C0.870063 4.84 1.06206 3.64 1.23006 3.088L2.74206 3.28C4.25406 3.304 5.45406 3.256 8.14206 3.28C10.0621 3.304 13.2301 3.088 13.2301 3.088L15.3421 2.968ZM26.5463 18.928C26.5463 18.928 26.0423 19.72 25.5623 20.008C24.4103 20.728 23.4263 20.944 22.5623 20.872C22.1303 20.392 21.9143 18.784 21.9143 18.784C21.3863 18.976 20.2823 19.528 19.6823 19.528C17.2103 19.528 15.0983 18.328 15.0983 15.688C15.0983 15.232 15.1463 14.8 15.2663 14.368C15.5543 13.312 16.1783 12.256 17.0663 11.512C17.8823 10.84 18.9143 10.528 20.1143 10.528C20.5703 10.528 21.1703 10.624 21.5783 10.72V10.096L21.5303 9.064C21.3623 8.032 21.1703 8.104 20.6903 8.224C20.4743 8.272 19.1543 8.656 18.9143 8.776C18.4343 9.064 17.8103 9.352 17.2103 9.928C16.7543 9.616 16.5383 8.872 16.3223 8.08C16.1783 7.576 16.1783 6.592 16.2983 6.232C17.6663 5.272 19.1303 4.792 20.7383 4.792C21.5063 4.792 22.1783 4.912 22.7303 5.128C24.0743 5.536 25.0343 6.4 25.3943 7.624C25.6343 8.344 25.7303 9.328 25.7303 10.528C25.7303 11.104 25.6823 11.848 25.6823 12.52C25.6583 13.576 25.6583 14.056 25.6583 14.608C25.6583 17.032 25.8983 18.424 26.5463 18.928ZM21.4343 13.672C21.0503 13.288 20.5223 13.144 20.1863 13.144C19.6823 13.144 19.2983 14.56 19.2983 15.232C19.2983 16.264 19.5863 16.72 20.0183 16.72C20.5943 16.72 21.4343 16.432 21.6503 15.712L21.6263 13.864L21.4343 13.672ZM39.2104 12.52C39.0424 13.696 38.5624 15.496 37.7944 16.576C36.4504 18.52 34.0744 18.808 32.9464 18.448C32.4424 18.304 31.5544 17.344 31.1464 16.768C31.0744 17.752 30.7384 20.152 30.5224 21.784C30.3784 22.888 30.2104 24.232 29.9224 25.696L29.8264 26.992C28.4104 26.92 26.8744 26.608 25.6744 26.08C26.0824 24.16 26.5144 22.024 26.7064 20.92C26.8264 20.272 27.1144 18.712 27.1384 17.632C27.3784 15.976 27.7624 11.824 28.0024 10.12C28.1944 8.536 28.1944 7.024 27.9544 5.584C29.3944 5.032 30.4744 4.768 31.2664 4.888C31.5784 4.936 32.2504 4.984 32.8264 5.272L32.5864 7.024C33.0904 6.568 34.3144 5.776 34.9624 5.872C36.2584 6.088 37.2904 6.64 37.9864 7.648C38.9944 9.16 39.4504 10.768 39.2104 12.52ZM35.2264 11.704C35.2744 11.296 35.2504 11.008 35.2504 10.84C35.1304 9.352 34.7224 9.304 34.6984 9.304C34.2424 9.256 33.7384 9.376 33.1624 9.688C32.7544 9.856 32.4184 10.24 32.1544 10.72C32.1544 10.696 32.0584 10.96 31.9864 11.08L31.6504 13.672C32.3224 14.416 32.8264 14.776 33.0904 14.776C33.4024 14.8 33.9064 14.584 34.4104 13.984C34.8904 13.36 35.1064 12.568 35.2264 11.704ZM55.1881 11.248C54.7081 11.248 53.7001 11.248 53.1241 11.272C53.1241 12.136 53.0761 13.696 53.0761 15.76C53.0761 16.552 53.2441 17.368 53.7961 17.368C54.2041 17.32 55.4281 15.52 55.5241 15.28C56.8441 15.472 57.8521 15.904 58.6441 16.888C57.5881 20.008 54.5881 21.472 52.4281 21.472C52.1641 21.472 51.8281 21.448 51.5401 21.376H51.5641C49.7401 20.992 48.8041 19.504 48.8281 16.888C48.8281 16.432 48.8281 15.376 48.8521 13.744V11.656C48.0841 11.728 47.2921 11.776 46.9561 11.8V8.128C47.5801 8.128 48.5161 8.2 48.7801 8.176C48.7801 7.408 48.7801 6.712 48.8281 6.256C48.8761 4.768 49.0681 2.608 49.2121 0.423999C50.8201 0.256 52.2121 0.399999 53.3641 0.855999L53.3161 2.32L53.2441 3.28C53.2201 4.168 53.1241 4.888 53.0521 6.448C53.0041 7 53.0041 6.736 53.0041 7.768C53.7481 7.696 54.6841 7.648 55.4281 7.6L57.3721 7.48C57.7321 8.224 57.7081 8.968 57.7081 9.496C57.7081 9.808 57.6361 10.864 57.5641 11.224L55.1881 11.248ZM70.6512 12.784C70.6272 14.248 70.5312 15.736 69.5952 17.008C68.5392 18.376 67.1712 19.12 65.3712 19.12C63.5232 19.12 61.9872 18.376 60.8352 16.912C59.7072 15.52 59.4192 14.104 59.4192 12.496C59.4192 9.712 61.3872 6.904 64.8912 6.904C67.4112 6.904 70.5552 8.848 70.6512 12.784ZM66.8352 12.496C66.5712 11.512 65.5392 10.384 64.6032 10.384C63.6672 10.384 63.2592 11.488 63.2592 12.04C63.2592 13.408 64.2192 15.376 65.3952 15.376C66.5232 15.376 67.0032 14.344 67.0032 13.696C67.0032 13.36 66.9312 12.952 66.8352 12.496ZM90.1681 14.944C90.1681 16.24 89.8801 17.488 89.3281 18.616L89.3521 18.592C88.8721 19.624 88.1521 20.464 87.0961 21.256C86.1601 21.952 85.0801 22.312 83.8081 22.312C82.4881 22.312 81.3361 21.952 80.2561 21.184H80.2801C79.7281 20.824 78.2161 18.712 78.3121 16.576C78.3121 16.312 78.3601 15.424 78.3601 15.16C79.8481 14.68 81.1681 14.632 82.3921 15.016L82.3441 16.432C82.2961 17.128 82.3441 18.04 82.3681 18.136C82.5361 18.664 83.3761 18.736 83.5441 18.76C83.8081 18.784 84.2161 18.496 84.7441 17.944C85.1281 17.56 85.2961 17.248 85.5841 16.648C85.7521 16.24 85.8721 15.664 85.8721 14.944C85.8721 14.536 85.7761 13.936 85.7041 13.84C85.3681 13.408 84.7201 13.264 83.7361 13.096C82.1761 12.88 80.5921 12.424 79.6801 11.272C79.1281 10.576 78.9121 9.928 78.8161 9.28C78.7681 8.824 78.7681 8.272 78.7681 7.696V7.312C78.7681 5.728 78.9361 3.712 80.0641 2.392C81.1681 1.168 82.6801 0.783998 84.3121 0.879999C86.2321 1.048 87.5761 1.552 88.1761 2.296L88.1521 2.272C88.8001 3.064 89.1601 3.928 89.2321 4.888V7.432L85.2241 7.384V5.032C85.2001 4.84 85.1761 4.648 85.1521 4.624C84.7921 4.36 84.3601 4.336 84.1441 4.336C83.7841 4.336 83.4721 4.528 83.1361 4.912C82.8481 5.248 82.7521 6.28 82.7521 7.12C82.7521 7.576 82.8241 8.128 82.9681 8.608C83.1361 9.208 83.5921 9.496 84.2641 9.592C86.6881 9.952 88.4161 10.648 89.1601 11.56C89.7841 12.352 90.1681 13.48 90.1681 14.944ZM99.6959 11.248C99.2159 11.248 98.2079 11.248 97.6319 11.272C97.6319 12.136 97.5839 13.696 97.5839 15.76C97.5839 16.552 97.7519 17.368 98.3039 17.368C98.7119 17.32 99.9359 15.52 100.032 15.28C101.352 15.472 102.36 15.904 103.152 16.888C102.096 20.008 99.0959 21.472 96.9359 21.472C96.6719 21.472 96.3359 21.448 96.0479 21.376H96.0719C94.2479 20.992 93.3119 19.504 93.3359 16.888C93.3359 16.432 93.3359 15.376 93.3599 13.744V11.656C92.5919 11.728 91.7999 11.776 91.4639 11.8V8.128C92.0879 8.128 93.0239 8.2 93.2879 8.176C93.2879 7.408 93.2879 6.712 93.3359 6.256C93.3839 4.768 93.5759 2.608 93.7199 0.423999C95.3279 0.256 96.7199 0.399999 97.8719 0.855999L97.8239 2.32L97.7519 3.28C97.7279 4.168 97.6319 4.888 97.5599 6.448C97.5119 7 97.5119 6.736 97.5119 7.768C98.2559 7.696 99.1919 7.648 99.9359 7.6L101.88 7.48C102.24 8.224 102.216 8.968 102.216 9.496C102.216 9.808 102.144 10.864 102.072 11.224L99.6959 11.248ZM114.484 18.928C114.484 18.928 113.98 19.72 113.5 20.008C112.348 20.728 111.364 20.944 110.5 20.872C110.068 20.392 109.852 18.784 109.852 18.784C109.324 18.976 108.22 19.528 107.62 19.528C105.148 19.528 103.036 18.328 103.036 15.688C103.036 15.232 103.084 14.8 103.204 14.368C103.492 13.312 104.116 12.256 105.004 11.512C105.82 10.84 106.852 10.528 108.052 10.528C108.508 10.528 109.108 10.624 109.516 10.72V10.096L109.468 9.064C109.3 8.032 109.108 8.104 108.628 8.224C108.412 8.272 107.092 8.656 106.852 8.776C106.372 9.064 105.748 9.352 105.148 9.928C104.692 9.616 104.476 8.872 104.26 8.08C104.116 7.576 104.116 6.592 104.236 6.232C105.604 5.272 107.068 4.792 108.676 4.792C109.444 4.792 110.116 4.912 110.668 5.128C112.012 5.536 112.972 6.4 113.332 7.624C113.572 8.344 113.668 9.328 113.668 10.528C113.668 11.104 113.62 11.848 113.62 12.52C113.596 13.576 113.596 14.056 113.596 14.608C113.596 17.032 113.836 18.424 114.484 18.928ZM109.372 13.672C108.988 13.288 108.46 13.144 108.124 13.144C107.62 13.144 107.236 14.56 107.236 15.232C107.236 16.264 107.524 16.72 107.956 16.72C108.532 16.72 109.372 16.432 109.588 15.712L109.564 13.864L109.372 13.672ZM126.188 10.624L126.236 12.184C126.236 12.184 123.74 12.64 122.564 12.64L122.636 10.864C122.636 10.456 122.516 9.976 122.204 10.048C121.604 10.192 121.316 10.36 120.356 11.44L119.78 12.304C119.756 13.24 119.684 14.296 119.732 15.376C119.756 16.504 119.732 16.672 119.924 19.48L115.508 19.408L115.532 17.488C115.676 14.704 115.772 13.264 115.7 9.976C115.676 8.68 115.628 8.056 115.508 6.688C116.444 6.28 119.516 5.92 119.516 5.92C119.564 6.952 119.66 8.176 119.66 8.176C120.188 7.696 121.46 6.304 122.204 6.208C123.452 6.04 124.268 6.376 125.012 7.192C125.708 7.888 126.212 9.592 126.188 10.624ZM135.907 11.248C135.427 11.248 134.419 11.248 133.843 11.272C133.843 12.136 133.795 13.696 133.795 15.76C133.795 16.552 133.963 17.368 134.515 17.368C134.923 17.32 136.147 15.52 136.243 15.28C137.563 15.472 138.571 15.904 139.363 16.888C138.307 20.008 135.307 21.472 133.147 21.472C132.883 21.472 132.547 21.448 132.259 21.376H132.283C130.459 20.992 129.523 19.504 129.547 16.888C129.547 16.432 129.547 15.376 129.571 13.744V11.656C128.803 11.728 128.011 11.776 127.675 11.8V8.128C128.299 8.128 129.235 8.2 129.499 8.176C129.499 7.408 129.499 6.712 129.547 6.256C129.595 4.768 129.787 2.608 129.931 0.423999C131.539 0.256 132.931 0.399999 134.083 0.855999L134.035 2.32L133.963 3.28C133.939 4.168 133.843 4.888 133.771 6.448C133.723 7 133.723 6.736 133.723 7.768C134.467 7.696 135.403 7.648 136.147 7.6L138.091 7.48C138.451 8.224 138.427 8.968 138.427 9.496C138.427 9.808 138.355 10.864 138.283 11.224L135.907 11.248Z" fill="white"/>
<path d="M15.3421 2.968L17.2733 2.44805C17.0272 1.53389 16.1738 0.917515 15.2286 0.971219L15.3421 2.968ZM15.3421 7.192L15.112 9.17873C16.186 9.30308 17.1644 8.55139 17.321 7.4816L15.3421 7.192ZM13.0621 6.928L13.2921 4.94127C13.2257 4.93359 13.159 4.92923 13.0921 4.92823L13.0621 6.928ZM9.87006 6.88L9.90013 4.88023C8.86782 4.8647 7.99334 5.6375 7.88177 6.66388L9.87006 6.88ZM9.79806 11.824L11.7977 11.8657L11.7979 11.8526L9.79806 11.824ZM10.0621 17.68L8.06433 17.7751C8.06525 17.7946 8.06646 17.814 8.06795 17.8334L10.0621 17.68ZM10.1581 18.928L11.2554 20.6001C11.8645 20.2004 12.2081 19.501 12.1522 18.7746L10.1581 18.928ZM5.67006 19.408L3.67341 19.5237C3.73238 20.5408 4.54647 21.3511 5.56383 21.4052L5.67006 19.408ZM5.57406 17.752L3.57588 17.6668C3.57302 17.7338 3.57354 17.8008 3.57741 17.8677L5.57406 17.752ZM5.83806 11.56L7.83625 11.6452L7.83642 11.6412L5.83806 11.56ZM6.03006 6.832L8.02842 6.91315C8.07221 5.83473 7.25244 4.9161 6.17601 4.83733L6.03006 6.832ZM2.88606 6.856L2.72334 4.86263C2.65944 4.86785 2.59583 4.87613 2.53273 4.88746L2.88606 6.856ZM1.01406 7.192L-0.947099 7.58423C-0.733502 8.65222 0.295385 9.35295 1.36739 9.16054L1.01406 7.192ZM1.23006 3.088L1.48201 1.10393C0.515106 0.98115 -0.3995 1.57324 -0.683285 2.50568L1.23006 3.088ZM2.74206 3.28L2.49012 5.26407C2.56317 5.27334 2.63669 5.27858 2.71032 5.27975L2.74206 3.28ZM8.14206 3.28L8.16706 1.28014L8.15992 1.28008L8.14206 3.28ZM13.2301 3.088L13.1166 1.09122C13.1091 1.09165 13.1015 1.09212 13.094 1.09263L13.2301 3.088ZM13.4108 3.48794C13.3918 3.41741 13.4165 3.5037 13.4362 3.8625C13.4526 4.16108 13.4605 4.5366 13.4591 4.93798C13.4561 5.77315 13.4137 6.5566 13.3631 6.9024L17.321 7.4816C17.4144 6.84339 17.456 5.82685 17.4591 4.95202C17.4606 4.4984 17.452 4.04142 17.4302 3.64324C17.4116 3.30529 17.3763 2.83059 17.2733 2.44805L13.4108 3.48794ZM15.5721 5.20527L13.2921 4.94127L12.832 8.91473L15.112 9.17873L15.5721 5.20527ZM13.0921 4.92823L9.90013 4.88023L9.83999 8.87977L13.032 8.92777L13.0921 4.92823ZM7.88177 6.66388C7.80815 7.3412 7.79806 8.26506 7.79806 9.136C7.79806 10.0626 7.81002 10.9725 7.79827 11.7954L11.7979 11.8526C11.8101 10.9955 11.7981 9.98539 11.7981 9.136C11.7981 8.23094 11.812 7.5228 11.8584 7.09612L7.88177 6.66388ZM7.7985 11.7823C7.77264 13.0237 7.90252 14.3773 8.06433 17.7751L12.0598 17.5849C11.8856 13.9267 11.7755 12.9283 11.7976 11.8657L7.7985 11.7823ZM8.06795 17.8334L8.16395 19.0814L12.1522 18.7746L12.0562 17.5266L8.06795 17.8334ZM9.06075 17.2559C9.08154 17.2423 8.90972 17.3503 8.27941 17.4113C7.68407 17.4689 6.87086 17.469 5.7763 17.4108L5.56383 21.4052C6.72526 21.467 7.77206 21.4791 8.66471 21.3927C9.5224 21.3097 10.4666 21.1177 11.2554 20.6001L9.06075 17.2559ZM7.66671 19.2923L7.57071 17.6363L3.57741 17.8677L3.67341 19.5237L7.66671 19.2923ZM7.57225 17.8372L7.83625 11.6452L3.83988 11.4748L3.57588 17.6668L7.57225 17.8372ZM7.83642 11.6412L8.02842 6.91315L4.03171 6.75085L3.83971 11.4788L7.83642 11.6412ZM6.17601 4.83733C5.085 4.7575 3.99771 4.7586 2.72334 4.86263L3.04879 8.84937C4.12641 8.7614 5.00713 8.7625 5.88411 8.82667L6.17601 4.83733ZM2.53273 4.88746L0.660734 5.22346L1.36739 9.16054L3.23939 8.82454L2.53273 4.88746ZM2.97522 6.79977C2.9345 6.59617 2.90316 6.25967 2.8862 5.86675C2.8702 5.49609 2.87006 5.16107 2.87006 4.984H-1.12994C-1.12994 5.28514 -1.13792 6.63012 -0.947099 7.58423L2.97522 6.79977ZM2.87006 4.984C2.87006 5.03022 2.86829 5.0651 2.86742 5.08045C2.86641 5.0983 2.86537 5.11095 2.86491 5.11635C2.86402 5.12665 2.86374 5.12779 2.86509 5.11626C2.86771 5.09382 2.87303 5.05306 2.88174 4.99334C2.89892 4.87557 2.92468 4.71578 2.95601 4.54005C3.02385 4.15956 3.09688 3.82321 3.14341 3.67032L-0.683285 2.50568C-0.804754 2.90479 -0.911727 3.44444 -0.981887 3.83795C-1.01956 4.04922 -1.05229 4.25093 -1.07636 4.4159C-1.08878 4.50102 -1.12994 4.76939 -1.12994 4.984H2.87006ZM0.978117 5.07207L2.49012 5.26407L2.99401 1.29593L1.48201 1.10393L0.978117 5.07207ZM2.71032 5.27975C3.49403 5.29219 4.19673 5.2859 5.01561 5.27995C5.83677 5.27397 6.79624 5.26806 8.12421 5.27992L8.15992 1.28008C6.79988 1.26794 5.81536 1.27402 4.98652 1.28005C4.1554 1.2861 3.5021 1.29181 2.7738 1.28025L2.71032 5.27975ZM8.11707 5.27984C9.14298 5.29267 10.4672 5.24184 11.5048 5.19056C12.03 5.16461 12.4937 5.13791 12.8264 5.11769C12.9928 5.10757 13.1268 5.09906 13.2196 5.09304C13.266 5.09003 13.3021 5.08765 13.3269 5.086C13.3393 5.08518 13.3488 5.08453 13.3554 5.08409C13.3587 5.08387 13.3613 5.0837 13.363 5.08357C13.3639 5.08351 13.3646 5.08347 13.3652 5.08343C13.3654 5.08341 13.3656 5.0834 13.3658 5.08339C13.3659 5.08338 13.3659 5.08338 13.366 5.08337C13.3661 5.08337 13.3661 5.08337 13.2301 3.088C13.094 1.09263 13.0941 1.09263 13.0941 1.09263C13.0941 1.09263 13.0941 1.09263 13.0941 1.09263C13.094 1.09263 13.0939 1.09264 13.0938 1.09264C13.0936 1.09266 13.0931 1.09269 13.0925 1.09274C13.0912 1.09282 13.0892 1.09296 13.0864 1.09315C13.0809 1.09352 13.0724 1.09409 13.0611 1.09484C13.0386 1.09634 13.0048 1.09857 12.9608 1.10142C12.8728 1.10713 12.7443 1.1153 12.5837 1.12506C12.2624 1.14459 11.8141 1.17039 11.3073 1.19544C10.2809 1.24616 9.06114 1.29133 8.16706 1.28016L8.11707 5.27984ZM13.3435 5.08478L15.4555 4.96478L15.2286 0.971219L13.1166 1.09122L13.3435 5.08478ZM26.5463 18.928L28.2336 20.0018C28.7875 19.1314 28.5885 17.9826 27.7742 17.3493L26.5463 18.928ZM25.5623 20.008L24.5333 18.293C24.5229 18.2992 24.5126 18.3056 24.5023 18.312L25.5623 20.008ZM22.5623 20.872L21.0757 22.2099C21.4164 22.5885 21.8887 22.8228 22.3962 22.8651L22.5623 20.872ZM21.9143 18.784L23.8965 18.5177C23.8159 17.9177 23.4678 17.3864 22.9499 17.073C22.4319 16.7595 21.7998 16.6975 21.2308 16.9044L21.9143 18.784ZM15.2663 14.368L17.1934 14.9033L17.1958 14.8942L15.2663 14.368ZM17.0663 11.512L15.7949 9.96814C15.7905 9.97173 15.7862 9.97533 15.7819 9.97896L17.0663 11.512ZM21.5783 10.72L21.1202 12.6668C21.715 12.8068 22.3411 12.6672 22.8201 12.2878C23.299 11.9085 23.5783 11.331 23.5783 10.72H21.5783ZM21.5783 10.096H23.5783C23.5783 10.065 23.5776 10.034 23.5762 10.0031L21.5783 10.096ZM21.5303 9.064L23.5282 8.97108C23.5246 8.89454 23.5166 8.81827 23.5043 8.74265L21.5303 9.064ZM20.6903 8.224L21.1242 10.1764C21.1413 10.1726 21.1584 10.1685 21.1754 10.1643L20.6903 8.224ZM18.9143 8.776L18.0199 6.98714C17.9741 7.01004 17.9292 7.03468 17.8853 7.06101L18.9143 8.776ZM17.2103 9.928L16.0809 11.5786C16.8626 12.1134 17.9122 12.0267 18.5954 11.3708L17.2103 9.928ZM16.3223 8.08L18.2518 7.55376C18.2497 7.54602 18.2476 7.53828 18.2454 7.53056L16.3223 8.08ZM16.2983 6.232L15.1495 4.59489C14.7988 4.84097 14.5364 5.19314 14.4009 5.59954L16.2983 6.232ZM22.7303 5.128L22.0015 6.99049C22.0501 7.0095 22.0994 7.0266 22.1494 7.04176L22.7303 5.128ZM25.3943 7.624L23.4756 8.18833C23.4823 8.21116 23.4894 8.23388 23.4969 8.25645L25.3943 7.624ZM25.6823 12.52L27.6818 12.5654C27.6821 12.5503 27.6823 12.5351 27.6823 12.52H25.6823ZM21.4343 13.672L22.8485 12.2578L22.8485 12.2578L21.4343 13.672ZM21.6503 15.712L23.566 16.2867C23.6244 16.0919 23.6528 15.8894 23.6501 15.686L21.6503 15.712ZM21.6263 13.864L23.6261 13.838C23.6194 13.3166 23.4092 12.8185 23.0405 12.4498L21.6263 13.864ZM26.5463 18.928C24.859 17.8542 24.8591 17.854 24.8593 17.8538C24.8593 17.8538 24.8594 17.8535 24.8595 17.8534C24.8597 17.8531 24.8599 17.8529 24.86 17.8526C24.8603 17.8521 24.8606 17.8517 24.8609 17.8513C24.8614 17.8505 24.8618 17.8498 24.8621 17.8493C24.8627 17.8484 24.8629 17.8481 24.8627 17.8485C24.8622 17.8493 24.86 17.8526 24.8564 17.8581C24.849 17.8692 24.8359 17.8888 24.8179 17.9146C24.7811 17.9675 24.7289 18.0398 24.6687 18.1155C24.6065 18.1937 24.5496 18.2583 24.5043 18.3035C24.4497 18.3582 24.4588 18.3377 24.5333 18.293L26.5913 21.723C27.1617 21.3807 27.5953 20.862 27.8 20.6045C27.9257 20.4462 28.0295 20.3025 28.1022 20.1979C28.139 20.145 28.169 20.1005 28.1911 20.0671C28.2021 20.0504 28.2113 20.0364 28.2184 20.0254C28.222 20.0199 28.225 20.0152 28.2276 20.0112C28.2289 20.0092 28.23 20.0075 28.231 20.0059C28.2315 20.0051 28.232 20.0044 28.2324 20.0037C28.2326 20.0033 28.2328 20.003 28.2331 20.0027C28.2332 20.0025 28.2333 20.0023 28.2334 20.0022C28.2335 20.002 28.2336 20.0018 26.5463 18.928ZM24.5023 18.312C23.6493 18.8451 23.0898 18.909 22.7284 18.8789L22.3962 22.8651C23.7628 22.979 25.1713 22.6109 26.6223 21.704L24.5023 18.312ZM24.0489 19.5341C24.2018 19.704 24.2128 19.8063 24.1538 19.6474C24.113 19.5372 24.0676 19.3799 24.0238 19.1927C23.9816 19.0121 23.9487 18.8376 23.9263 18.7064C23.9153 18.6418 23.9073 18.5903 23.9022 18.5567C23.8997 18.54 23.898 18.528 23.897 18.5212C23.8965 18.5179 23.8963 18.5158 23.8962 18.5152C23.8961 18.5149 23.8961 18.515 23.8962 18.5154C23.8962 18.5156 23.8963 18.5159 23.8963 18.5163C23.8963 18.5165 23.8964 18.5167 23.8964 18.5169C23.8964 18.5171 23.8964 18.5173 23.8965 18.5173C23.8965 18.5175 23.8965 18.5177 21.9143 18.784C19.9321 19.0503 19.9321 19.0505 19.9322 19.0507C19.9322 19.0508 19.9322 19.051 19.9322 19.0512C19.9323 19.0516 19.9323 19.0519 19.9324 19.0523C19.9325 19.0531 19.9326 19.054 19.9328 19.055C19.933 19.0569 19.9333 19.0593 19.9337 19.062C19.9345 19.0675 19.9355 19.0746 19.9367 19.0831C19.9391 19.1001 19.9424 19.1231 19.9467 19.1513C19.9551 19.2076 19.9673 19.2854 19.9833 19.3791C20.0149 19.5644 20.0631 19.8219 20.1288 20.1033C20.1931 20.3781 20.2827 20.7128 20.4038 21.0391C20.5068 21.3167 20.7068 21.8 21.0757 22.2099L24.0489 19.5341ZM21.2308 16.9044C21.0421 16.973 20.8232 17.0655 20.6514 17.1378C20.459 17.2188 20.279 17.2946 20.1011 17.3637C19.9213 17.4336 19.7788 17.4826 19.6722 17.5124C19.5434 17.5484 19.5651 17.528 19.6823 17.528V21.528C20.411 21.528 21.1722 21.2388 21.5496 21.0923C21.7886 20.9994 22.0211 20.9012 22.203 20.8247C22.4054 20.7395 22.5225 20.691 22.5978 20.6636L21.2308 16.9044ZM19.6823 17.528C18.7358 17.528 18.0564 17.2939 17.6661 17.0001C17.3496 16.7619 17.0983 16.4033 17.0983 15.688H13.0983C13.0983 17.6127 13.903 19.1741 15.2606 20.1959C16.5442 21.1621 18.1568 21.528 19.6823 21.528V17.528ZM17.0983 15.688C17.0983 15.3768 17.1306 15.1293 17.1933 14.9033L13.3393 13.8327C13.1621 14.4707 13.0983 15.0872 13.0983 15.688H17.0983ZM17.1958 14.8942C17.3879 14.1901 17.807 13.5006 18.3508 13.045L15.7819 9.97896C14.5496 11.0114 13.7207 12.4339 13.3368 13.8418L17.1958 14.8942ZM18.3377 13.0559C18.7191 12.7418 19.2683 12.528 20.1143 12.528V8.528C18.5603 8.528 17.0455 8.93823 15.7949 9.96814L18.3377 13.0559ZM20.1143 12.528C20.3603 12.528 20.796 12.5905 21.1202 12.6668L22.0364 8.77316C21.5446 8.65745 20.7804 8.528 20.1143 8.528V12.528ZM23.5783 10.72V10.096H19.5783V10.72H23.5783ZM23.5762 10.0031L23.5282 8.97108L19.5325 9.15692L19.5805 10.1889L23.5762 10.0031ZM23.5043 8.74265C23.4558 8.44453 23.389 8.11301 23.2775 7.80324C23.1735 7.51408 22.946 6.99802 22.4213 6.60753C21.8264 6.1648 21.2005 6.13524 20.8308 6.1667C20.5413 6.19134 20.2436 6.27413 20.2052 6.28371L21.1754 10.1643C21.2554 10.1443 21.273 10.1397 21.2908 10.1358C21.3049 10.1327 21.2539 10.1452 21.17 10.1523C20.9766 10.1688 20.4992 10.1632 20.0333 9.81647C19.6376 9.52198 19.5197 9.17392 19.5138 9.15776C19.5006 9.12099 19.5208 9.16747 19.5563 9.38535L23.5043 8.74265ZM20.2565 6.27163C20.0623 6.31477 19.6052 6.44591 19.2325 6.55858C19.0295 6.61997 18.8157 6.6867 18.6302 6.74851C18.499 6.79226 18.2303 6.88194 18.0199 6.98714L19.8087 10.5649C19.736 10.6012 19.6972 10.6131 19.7466 10.5948C19.7774 10.5834 19.8264 10.5661 19.8951 10.5432C20.0315 10.4978 20.2062 10.443 20.3901 10.3874C20.5724 10.3323 20.7536 10.2795 20.8994 10.2382C21.068 10.1906 21.1354 10.1739 21.1242 10.1764L20.2565 6.27163ZM17.8853 7.06101C17.6031 7.23034 16.6406 7.7025 15.8252 8.48522L18.5954 11.3708C18.98 11.0015 19.2655 10.8977 19.9433 10.491L17.8853 7.06101ZM18.3397 8.27739C18.4712 8.36737 18.5356 8.4542 18.5508 8.47601C18.5646 8.49584 18.5502 8.47968 18.5164 8.40028C18.4834 8.32285 18.4445 8.2154 18.3981 8.06596C18.3517 7.91638 18.3057 7.75107 18.2518 7.55376L14.3928 8.60623C14.4955 8.98281 14.6362 9.49798 14.8363 9.96772C15.027 10.4155 15.3829 11.101 16.0809 11.5786L18.3397 8.27739ZM18.2454 7.53056C18.2515 7.5521 18.2406 7.51744 18.2292 7.41275C18.2189 7.31793 18.2122 7.20355 18.2112 7.08505C18.2102 6.96548 18.2151 6.86421 18.2218 6.79487C18.2251 6.76078 18.2278 6.74585 18.2275 6.74783C18.2272 6.74943 18.2253 6.75955 18.2212 6.77677C18.2172 6.79331 18.2092 6.82375 18.1957 6.86446L14.4009 5.59954C14.2292 6.11484 14.2081 6.73533 14.2114 7.11895C14.215 7.54704 14.2553 8.12549 14.3993 8.62944L18.2454 7.53056ZM17.4472 7.86911C18.4983 7.13151 19.5648 6.792 20.7383 6.792V2.792C18.6958 2.792 16.8344 3.41249 15.1495 4.59489L17.4472 7.86911ZM20.7383 6.792C21.305 6.792 21.7227 6.88138 22.0015 6.99049L23.4591 3.26551C22.6339 2.94262 21.7076 2.792 20.7383 2.792V6.792ZM22.1494 7.04176C22.9755 7.29254 23.3403 7.72842 23.4756 8.18833L27.313 7.05967C26.7283 5.07157 25.1732 3.77946 23.3113 3.21424L22.1494 7.04176ZM23.4969 8.25645C23.6327 8.66378 23.7303 9.38637 23.7303 10.528H27.7303C27.7303 9.26963 27.6359 8.02422 27.2917 6.99154L23.4969 8.25645ZM23.7303 10.528C23.7303 10.7731 23.72 11.0635 23.7075 11.4179C23.6957 11.7554 23.6823 12.1435 23.6823 12.52H27.6823C27.6823 12.2245 27.6929 11.9046 27.7051 11.5581C27.7166 11.2285 27.7303 10.8589 27.7303 10.528H23.7303ZM23.6828 12.4746C23.6584 13.5506 23.6583 14.0467 23.6583 14.608H27.6583C27.6583 14.0653 27.6583 13.6014 27.6818 12.5654L23.6828 12.4746ZM23.6583 14.608C23.6583 15.8591 23.718 16.968 23.8972 17.8755C24.0628 18.7139 24.4055 19.7967 25.3184 20.5067L27.7742 17.3493C28.0391 17.5553 27.9378 17.6901 27.8214 17.1005C27.7186 16.58 27.6583 15.7809 27.6583 14.608H23.6583ZM22.8485 12.2578C22.0286 11.4379 20.96 11.144 20.1863 11.144V15.144C20.1324 15.144 20.1031 15.1387 20.0962 15.1374C20.0911 15.1365 20.0882 15.1357 20.087 15.1354C20.0857 15.135 20.085 15.1348 20.0845 15.1346C20.0843 15.1345 20.0793 15.1327 20.0698 15.1268C20.06 15.1206 20.0419 15.1081 20.0201 15.0862L22.8485 12.2578ZM20.1863 11.144C19.0852 11.144 18.4476 11.8908 18.2319 12.1798C17.9605 12.5436 17.7855 12.9447 17.6733 13.2535C17.451 13.866 17.2983 14.6204 17.2983 15.232H21.2983C21.2983 15.2384 21.2982 15.2186 21.3035 15.1709C21.3085 15.1256 21.3171 15.0679 21.3299 15.0014C21.3565 14.8638 21.394 14.7266 21.4333 14.6185C21.4802 14.4893 21.4956 14.4944 21.438 14.5717C21.4066 14.6138 21.3101 14.7359 21.1298 14.8588C20.9379 14.9896 20.6135 15.144 20.1863 15.144V11.144ZM17.2983 15.232C17.2983 15.8787 17.3795 16.6254 17.7208 17.2836C18.124 18.0613 18.9209 18.72 20.0183 18.72V14.72C20.2809 14.72 20.5749 14.7954 20.8379 14.9718C21.0871 15.139 21.2157 15.3341 21.2718 15.4424C21.3253 15.5454 21.3274 15.5954 21.3186 15.5463C21.3105 15.5015 21.2983 15.4016 21.2983 15.232H17.2983ZM20.0183 18.72C20.5986 18.72 21.276 18.5834 21.898 18.2573C22.5345 17.9236 23.2609 17.3036 23.566 16.2867L19.7347 15.1373C19.7754 15.0014 19.8457 14.8926 19.9141 14.8183C19.9774 14.7496 20.0286 14.721 20.0407 14.7147C20.0529 14.7082 20.0487 14.712 20.0294 14.7166C20.0093 14.7213 20.002 14.72 20.0183 14.72V18.72ZM23.6501 15.686L23.6261 13.838L19.6265 13.89L19.6505 15.738L23.6501 15.686ZM23.0405 12.4498L22.8485 12.2578L20.0201 15.0862L20.2121 15.2782L23.0405 12.4498ZM39.2104 12.52L41.1904 12.8028L41.1919 12.7914L39.2104 12.52ZM37.7944 16.576L36.1645 15.417C36.1594 15.4241 36.1543 15.4314 36.1493 15.4386L37.7944 16.576ZM32.9464 18.448L33.5545 16.5427C33.5351 16.5365 33.5155 16.5306 33.4959 16.525L32.9464 18.448ZM31.1464 16.768L32.7785 15.612C32.2906 14.9232 31.4229 14.6149 30.6098 14.8413C29.7968 15.0678 29.2134 15.7803 29.1518 16.622L31.1464 16.768ZM30.5224 21.784L28.5397 21.5216L28.5392 21.5253L30.5224 21.784ZM29.9224 25.696L27.96 25.31C27.9446 25.3887 27.9338 25.4683 27.9279 25.5483L29.9224 25.696ZM29.8264 26.992L29.7249 28.9894C30.81 29.0446 31.7407 28.2233 31.821 27.1397L29.8264 26.992ZM25.6744 26.08L23.7181 25.6643C23.5212 26.5911 24.0016 27.529 24.869 27.9106L25.6744 26.08ZM26.7064 20.92L24.7399 20.5558C24.7385 20.563 24.7373 20.5701 24.736 20.5773L26.7064 20.92ZM27.1384 17.632L25.1591 17.3451C25.1475 17.4255 25.1407 17.5064 25.1389 17.5876L27.1384 17.632ZM28.0024 10.12L29.9829 10.3989C29.9847 10.3862 29.9864 10.3734 29.9879 10.3607L28.0024 10.12ZM27.9544 5.584L27.2386 3.71651C26.3508 4.05681 25.8254 4.97501 25.9816 5.9128L27.9544 5.584ZM31.2664 4.888L31.5705 2.91125L31.5661 2.91057L31.2664 4.888ZM32.8264 5.272L34.8079 5.54344C34.9242 4.69474 34.4871 3.86624 33.7209 3.48315L32.8264 5.272ZM32.5864 7.024L30.6049 6.75256C30.4909 7.58519 30.9095 8.4003 31.6527 8.79265C32.3959 9.18501 33.3051 9.07091 33.9283 8.50707L32.5864 7.024ZM34.9624 5.872L35.2912 3.89921C35.2794 3.89723 35.2674 3.89536 35.2555 3.89359L34.9624 5.872ZM37.9864 7.648L39.6505 6.5386C39.6445 6.52956 39.6384 6.52056 39.6322 6.51162L37.9864 7.648ZM35.2264 11.704L37.2074 11.9791C37.2093 11.9653 37.2111 11.9515 37.2127 11.9377L35.2264 11.704ZM35.2504 10.84H37.2504C37.2504 10.7863 37.2483 10.7327 37.244 10.6792L35.2504 10.84ZM34.6984 9.304L34.4891 11.293C34.5586 11.3003 34.6285 11.304 34.6984 11.304V9.304ZM33.1624 9.688L33.9239 11.5374C33.9892 11.5105 34.053 11.4802 34.115 11.4466L33.1624 9.688ZM32.1544 10.72H30.1544C30.1544 11.6329 30.7726 12.43 31.6569 12.6571C32.5411 12.8842 33.4669 12.4838 33.9069 11.6838L32.1544 10.72ZM31.9864 11.08L30.2715 10.051C30.1298 10.2871 30.0384 10.5499 30.003 10.8229L31.9864 11.08ZM31.6504 13.672L29.667 13.4149C29.5919 13.9948 29.7743 14.5786 30.1662 15.0126L31.6504 13.672ZM33.0904 14.776L33.2438 12.7819C33.1928 12.778 33.1416 12.776 33.0904 12.776V14.776ZM34.4104 13.984L35.9418 15.2704C35.9603 15.2485 35.9782 15.2261 35.9957 15.2034L34.4104 13.984ZM37.2305 12.2372C37.0781 13.304 36.656 14.7258 36.1645 15.417L39.4243 17.735C40.4689 16.2662 41.0067 14.088 41.1903 12.8028L37.2305 12.2372ZM36.1493 15.4386C35.777 15.9772 35.2588 16.2977 34.7165 16.4598C34.1269 16.6361 33.6688 16.5791 33.5545 16.5427L32.3384 20.3533C33.3521 20.6769 34.6459 20.6559 35.8624 20.2922C37.126 19.9143 38.4679 19.1188 39.4396 17.7134L36.1493 15.4386ZM33.4959 16.525C33.6286 16.5629 33.7071 16.6068 33.7202 16.6141C33.7391 16.6247 33.7337 16.6234 33.7027 16.6004C33.6386 16.5527 33.5385 16.4675 33.4119 16.3431C33.1543 16.0901 32.9088 15.796 32.7785 15.612L29.5144 17.924C29.792 18.316 30.1946 18.7899 30.609 19.1969C30.8184 19.4025 31.0603 19.6203 31.3172 19.8111C31.5395 19.9763 31.9214 20.2352 32.397 20.371L33.4959 16.525ZM29.1518 16.622C29.0854 17.5285 28.764 19.8269 28.5397 21.5216L32.5051 22.0464C32.7128 20.4771 33.0634 17.9755 33.1411 16.9139L29.1518 16.622ZM28.5392 21.5253C28.3935 22.643 28.2333 23.9208 27.96 25.31L31.8848 26.082C32.1876 24.5432 32.3634 23.133 32.5056 22.0427L28.5392 21.5253ZM27.9279 25.5483L27.8319 26.8443L31.821 27.1397L31.917 25.8437L27.9279 25.5483ZM29.928 24.9946C28.6956 24.9319 27.4089 24.6581 26.4799 24.2494L24.869 27.9106C26.34 28.5579 28.1252 28.9081 29.7249 28.9894L29.928 24.9946ZM27.6308 26.4957C28.0391 24.574 28.4779 22.4064 28.6769 21.2627L24.736 20.5773C24.5509 21.6416 24.1258 23.746 23.7181 25.6643L27.6308 26.4957ZM28.673 21.2842C28.7847 20.6811 29.1096 18.9502 29.1379 17.6764L25.1389 17.5876C25.1192 18.4738 24.8682 19.8629 24.7399 20.5558L28.673 21.2842ZM29.1178 17.9189C29.2445 17.0443 29.4051 15.5455 29.5591 14.1068C29.7171 12.63 29.8688 11.2091 29.9829 10.3989L26.022 9.84106C25.8961 10.7349 25.7358 12.242 25.5818 13.6812C25.4237 15.1585 25.2724 16.5637 25.1591 17.3451L29.1178 17.9189ZM29.9879 10.3607C30.198 8.62743 30.2046 6.91962 29.9272 5.2552L25.9816 5.9128C26.1842 7.12838 26.1909 8.44457 26.017 9.87934L29.9879 10.3607ZM28.6703 7.45149C30.1191 6.89612 30.7499 6.83256 30.9668 6.86543L31.5661 2.91057C30.199 2.70344 28.6698 3.16788 27.2386 3.71651L28.6703 7.45149ZM30.9623 6.86474C31.06 6.87977 31.2275 6.90083 31.2914 6.90953C31.3897 6.92288 31.4798 6.93661 31.5674 6.95356C31.7534 6.98956 31.8697 7.02968 31.932 7.06085L33.7209 3.48315C32.7825 3.01398 31.6603 2.92506 31.5705 2.91126L30.9623 6.86474ZM30.8449 5.00056L30.6049 6.75256L34.5679 7.29544L34.8079 5.54344L30.8449 5.00056ZM33.9283 8.50707C33.9784 8.46167 34.0807 8.37829 34.2253 8.27718C34.3664 8.17851 34.5216 8.08136 34.6707 8.00081C34.8261 7.91689 34.9367 7.87178 34.994 7.85358C35.0203 7.84521 35.0104 7.85063 34.9693 7.85633C34.9316 7.86155 34.8237 7.87328 34.6693 7.85041L35.2555 3.89359C34.6564 3.80483 34.1189 3.93462 33.7834 4.04117C33.4132 4.15872 33.0647 4.32211 32.7701 4.48119C32.1913 4.79379 31.6254 5.19636 31.2446 5.54093L33.9283 8.50707ZM34.6336 7.84479C35.5301 7.9942 36.0221 8.32298 36.3406 8.78438L39.6322 6.51162C38.5588 4.95702 36.9868 4.1818 35.2912 3.89921L34.6336 7.84479ZM36.3223 8.7574C37.1051 9.9315 37.3924 11.0556 37.2289 12.2486L41.1919 12.7914C41.5085 10.4804 40.8838 8.3885 39.6505 6.5386L36.3223 8.7574ZM37.2127 11.9377C37.2479 11.639 37.2564 11.3847 37.2564 11.182C37.2564 11.0829 37.2544 10.9971 37.2527 10.9359C37.2519 10.9021 37.2513 10.8832 37.2509 10.8632C37.2504 10.8446 37.2504 10.8389 37.2504 10.84H33.2504C33.2504 11.1643 33.2699 11.2176 33.2401 11.4703L37.2127 11.9377ZM37.244 10.6792C37.1735 9.80513 37.0029 9.06164 36.6488 8.4774C36.2576 7.83187 35.5695 7.304 34.6984 7.304V11.304C33.8514 11.304 33.3793 10.8001 33.228 10.5506C33.114 10.3624 33.2074 10.3869 33.2569 11.0008L37.244 10.6792ZM34.9078 7.31499C33.9309 7.21215 33.0185 7.49139 32.2099 7.92942L34.115 11.4466C34.4583 11.2606 34.554 11.2998 34.4891 11.293L34.9078 7.31499ZM32.4009 7.83864C31.3818 8.25831 30.7608 9.10382 30.402 9.75616L33.9069 11.6838C33.9412 11.6215 33.9725 11.572 33.9992 11.5341C34.0261 11.4961 34.0455 11.474 34.055 11.4639C34.0771 11.4407 34.0378 11.4905 33.9239 11.5374L32.4009 7.83864ZM34.1544 10.72C34.1544 10.6517 34.1514 10.5093 34.1168 10.3331C34.0921 10.2078 34.0003 9.77297 33.6289 9.36758C33.417 9.13627 33.114 8.91649 32.72 8.80023C32.3307 8.68539 31.9722 8.70673 31.6967 8.77142C31.2109 8.88548 30.9085 9.14894 30.8201 9.22799C30.609 9.41677 30.4892 9.60876 30.4726 9.63443C30.431 9.69875 30.4017 9.75217 30.3877 9.77833C30.3409 9.86552 30.3067 9.94598 30.3046 9.95072C30.2896 9.98518 30.2605 10.055 30.2555 10.0667C30.2115 10.1707 30.2224 10.1327 30.2715 10.051L33.7014 12.109C33.8225 11.9073 33.9174 11.6773 33.9394 11.6253C33.949 11.6026 33.9587 11.5794 33.9642 11.5662C33.9715 11.5489 33.9728 11.5458 33.972 11.5478C33.9714 11.5491 33.9673 11.5586 33.9608 11.5726C33.9568 11.5813 33.9391 11.6196 33.9127 11.669C33.9 11.6926 33.872 11.7439 33.8314 11.8065C33.8159 11.8306 33.697 12.0214 33.4866 12.2096C33.3986 12.2883 33.0965 12.5515 32.6109 12.6655C32.3355 12.7302 31.9771 12.7515 31.588 12.6367C31.1941 12.5205 30.8913 12.3008 30.6794 12.0696C30.3082 11.6644 30.2165 11.2299 30.192 11.105C30.1574 10.9293 30.1544 10.7875 30.1544 10.72H34.1544ZM30.003 10.8229L29.667 13.4149L33.6338 13.9291L33.9698 11.3371L30.003 10.8229ZM30.1662 15.0126C30.5518 15.4394 30.9404 15.8146 31.3203 16.1006C31.5099 16.2434 31.7343 16.3922 31.9857 16.5124C32.2135 16.6213 32.6045 16.776 33.0904 16.776V12.776C33.2799 12.776 33.4278 12.8075 33.5194 12.8331C33.613 12.8593 33.6784 12.888 33.7115 12.9039C33.7731 12.9333 33.7799 12.9456 33.7266 12.9054C33.6204 12.8254 33.4211 12.6486 33.1346 12.3314L30.1662 15.0126ZM32.937 16.7701C34.1782 16.8656 35.251 16.0929 35.9418 15.2704L32.879 12.6976C32.7585 12.8411 32.6909 12.8747 32.7111 12.8635C32.7217 12.8576 32.7657 12.8345 32.8448 12.8136C32.9204 12.7935 33.058 12.7676 33.2438 12.7819L32.937 16.7701ZM35.9957 15.2034C36.7928 14.1672 37.0711 12.961 37.2074 11.9791L33.2455 11.4289C33.1418 12.175 32.9881 12.5528 32.8252 12.7646L35.9957 15.2034ZM55.1881 11.248V13.248C55.1948 13.248 55.2015 13.248 55.2083 13.2479L55.1881 11.248ZM53.1241 11.272L53.0408 9.27373C51.9695 9.31837 51.1241 10.1998 51.1241 11.272H53.1241ZM53.7961 17.368V19.368C53.8742 19.368 53.9522 19.3634 54.0297 19.3543L53.7961 17.368ZM55.5241 15.28L55.8119 13.3008C54.8972 13.1678 54.0104 13.6789 53.6671 14.5372L55.5241 15.28ZM58.6441 16.888L60.5385 17.5292C60.7577 16.8815 60.6308 16.1667 60.2021 15.634L58.6441 16.888ZM51.5401 21.376V19.376C50.53 19.376 49.6785 20.1291 49.555 21.1316C49.4316 22.1341 50.0751 23.0713 51.055 23.3163L51.5401 21.376ZM51.5641 21.376V23.376C52.5884 23.376 53.4472 22.602 53.5533 21.5831C53.6594 20.5643 52.9785 19.6299 51.9761 19.4189L51.5641 21.376ZM48.8281 16.888L50.828 16.9063C50.828 16.9002 50.8281 16.8941 50.8281 16.888H48.8281ZM48.8521 13.744L50.8518 13.7734C50.852 13.7636 50.8521 13.7538 50.8521 13.744H48.8521ZM48.8521 11.656H50.8521C50.8521 11.0931 50.6149 10.5563 50.1987 10.1773C49.7825 9.79825 49.2258 9.61219 48.6654 9.66473L48.8521 11.656ZM46.9561 11.8H44.9561C44.9561 12.3552 45.1868 12.8854 45.5932 13.2637C45.9995 13.6421 46.5448 13.8345 47.0986 13.7949L46.9561 11.8ZM46.9561 8.128V6.128C45.8515 6.128 44.9561 7.02343 44.9561 8.128H46.9561ZM48.7801 8.176L48.9611 10.1678C49.9913 10.0741 50.7801 9.2104 50.7801 8.176H48.7801ZM48.8281 6.256L50.8171 6.46537C50.8221 6.41721 50.8255 6.36888 50.827 6.32048L48.8281 6.256ZM49.2121 0.423999L49.0042 -1.56517C48.0355 -1.46396 47.2805 -0.679531 47.2164 0.292416L49.2121 0.423999ZM53.3641 0.855999L55.363 0.921538C55.3907 0.0775782 54.8853 -0.69283 54.1002 -1.00361L53.3641 0.855999ZM53.3161 2.32L55.3105 2.46958C55.3126 2.4416 55.3141 2.41358 55.315 2.38554L53.3161 2.32ZM53.2441 3.28L51.2497 3.13042C51.2473 3.16222 51.2457 3.19408 51.2448 3.22596L53.2441 3.28ZM53.0521 6.448L55.0445 6.62126C55.0469 6.59428 55.0487 6.56726 55.0499 6.54021L53.0521 6.448ZM53.0041 7.768H51.0041C51.0041 8.33194 51.2422 8.86968 51.6597 9.24876C52.0772 9.62784 52.6354 9.81302 53.1967 9.7587L53.0041 7.768ZM55.4281 7.6L55.3048 5.60379L55.2993 5.60415L55.4281 7.6ZM57.3721 7.48L59.1724 6.60888C58.8189 5.8783 58.0589 5.43379 57.2488 5.4838L57.3721 7.48ZM57.5641 11.224L57.5843 13.2239C58.53 13.2143 59.3397 12.5436 59.5252 11.6162L57.5641 11.224ZM55.1881 9.248C54.7258 9.248 53.6684 9.24758 53.0408 9.27373L53.2073 13.2703C53.7317 13.2484 54.6903 13.248 55.1881 13.248V9.248ZM51.1241 11.272C51.1241 11.683 51.1126 12.2616 51.1003 13.0343C51.0882 13.7946 51.0761 14.7126 51.0761 15.76H55.0761C55.0761 14.7434 55.0879 13.8494 55.0998 13.0977C55.1115 12.3584 55.1241 11.725 55.1241 11.272H51.1241ZM51.0761 15.76C51.0761 16.2481 51.1217 16.9228 51.3511 17.549C51.5644 18.1312 52.2447 19.368 53.7961 19.368V15.368C53.98 15.368 54.1788 15.4034 54.3741 15.4845C54.5669 15.5646 54.7182 15.6735 54.8296 15.7794C55.0364 15.9763 55.1012 16.157 55.107 16.173C55.1176 16.202 55.1063 16.1801 55.0943 16.0881C55.0832 16.0025 55.0761 15.891 55.0761 15.76H51.0761ZM54.0297 19.3543C54.633 19.2833 55.0549 18.9704 55.18 18.8769C55.3722 18.7334 55.5371 18.5749 55.6613 18.4467C55.9148 18.185 56.164 17.8767 56.37 17.6054C56.5821 17.326 56.7816 17.0418 56.9383 16.8052C57.0165 16.6872 57.0904 16.5714 57.1531 16.4671C57.1891 16.4071 57.3009 16.2231 57.381 16.0228L53.6671 14.5372C53.6897 14.4807 53.7094 14.44 53.7176 14.4234C53.7272 14.4038 53.7341 14.3911 53.7361 14.3874C53.7399 14.3804 53.7372 14.3857 53.7249 14.4062C53.7007 14.4464 53.66 14.511 53.6035 14.5963C53.491 14.7662 53.341 14.98 53.1842 15.1866C53.0211 15.4013 52.8818 15.567 52.7881 15.6638C52.7387 15.7148 52.7402 15.7067 52.787 15.6717C52.8117 15.6533 52.8775 15.6059 52.9791 15.5545C53.0704 15.5083 53.2747 15.4155 53.5624 15.3817L54.0297 19.3543ZM55.2362 17.2592C56.2387 17.405 56.7098 17.6746 57.086 18.142L60.2021 15.634C58.9943 14.1334 57.4494 13.539 55.8119 13.3008L55.2362 17.2592ZM56.7496 16.2468C56.0109 18.4295 53.8706 19.472 52.4281 19.472V23.472C55.3056 23.472 59.1652 21.5865 60.5385 17.5292L56.7496 16.2468ZM52.4281 19.472C52.3537 19.472 52.2693 19.4685 52.1882 19.4605C52.1039 19.4523 52.0492 19.4417 52.0251 19.4357L51.055 23.3163C51.5597 23.4425 52.0738 23.472 52.4281 23.472V19.472ZM51.5401 23.376H51.5641V19.376H51.5401V23.376ZM51.9761 19.4189C51.5569 19.3306 51.3556 19.1637 51.2071 18.922C51.0165 18.6118 50.8179 18.0039 50.828 16.9063L46.8281 16.8697C46.8142 18.3881 47.0716 19.8322 47.799 21.016C48.5685 22.2683 49.7472 23.0374 51.152 23.3331L51.9761 19.4189ZM50.8281 16.888C50.8281 16.4369 50.828 15.3917 50.8518 13.7734L46.8523 13.7146C46.8281 15.3603 46.8281 16.4271 46.8281 16.888H50.8281ZM50.8521 13.744V11.656H46.8521V13.744H50.8521ZM48.6654 9.66473C47.9268 9.73397 47.1791 9.77898 46.8136 9.80508L47.0986 13.7949C47.4051 13.773 48.2413 13.722 49.0387 13.6473L48.6654 9.66473ZM48.9561 11.8V8.128H44.9561V11.8H48.9561ZM46.9561 10.128C47.214 10.128 47.5519 10.1433 47.9162 10.1591C48.0863 10.1665 48.2655 10.1741 48.4213 10.178C48.5462 10.1811 48.7639 10.1857 48.9611 10.1678L48.599 6.18421C48.6642 6.17828 48.666 6.18287 48.5216 6.17925C48.4082 6.17641 48.2649 6.17049 48.0899 6.16289C47.7642 6.14873 47.3221 6.128 46.9561 6.128V10.128ZM50.7801 8.176C50.7801 7.35735 50.7828 6.7907 50.8171 6.46537L46.8391 6.04663C46.7773 6.6333 46.7801 7.45865 46.7801 8.176H50.7801ZM50.827 6.32048C50.8737 4.87429 51.0584 2.81974 51.2077 0.555581L47.2164 0.292416C47.0777 2.39626 46.8785 4.66171 46.8291 6.19152L50.827 6.32048ZM49.4199 2.41317C50.8032 2.26865 51.8539 2.4092 52.628 2.71561L54.1002 -1.00361C52.5703 -1.6092 50.8369 -1.75665 49.0042 -1.56517L49.4199 2.41317ZM51.3651 0.79046L51.3171 2.25446L55.315 2.38554L55.363 0.921538L51.3651 0.79046ZM51.3217 2.17042L51.2497 3.13042L55.2385 3.42958L55.3105 2.46958L51.3217 2.17042ZM51.2448 3.22596C51.2343 3.61525 51.2081 3.97047 51.1715 4.46426C51.1352 4.95408 51.0915 5.54683 51.0542 6.35579L55.0499 6.54021C55.0846 5.78917 55.1249 5.24192 55.1606 4.75974C55.196 4.28152 55.2299 3.83275 55.2433 3.33403L51.2448 3.22596ZM51.0596 6.27474C51.0488 6.39888 51.0413 6.47073 51.0338 6.54728C51.0259 6.62814 51.0175 6.71942 51.0121 6.83719C51.0035 7.02771 51.0041 7.28355 51.0041 7.768H55.0041C55.0041 7.22045 55.0047 7.09229 55.008 7.01881C55.0086 7.00458 55.0092 6.99386 55.0148 6.93672C55.0208 6.87527 55.0313 6.77312 55.0445 6.62126L51.0596 6.27474ZM53.1967 9.7587C53.8982 9.69081 54.769 9.64668 55.5568 9.59585L55.2993 5.60415C54.5992 5.64932 53.5979 5.70118 52.8114 5.7773L53.1967 9.7587ZM55.5513 9.5962L57.4953 9.4762L57.2488 5.4838L55.3048 5.6038L55.5513 9.5962ZM55.5717 8.35112C55.6993 8.61465 55.7081 8.88606 55.7081 9.496H59.7081C59.7081 9.04994 59.7649 7.83335 59.1724 6.60888L55.5717 8.35112ZM55.7081 9.496C55.7081 9.56931 55.6955 9.84582 55.6691 10.1873C55.6567 10.347 55.6427 10.5008 55.6288 10.6288C55.6131 10.7726 55.6027 10.833 55.6029 10.8318L59.5252 11.6162C59.5883 11.3007 59.6312 10.8301 59.6571 10.4967C59.6846 10.1422 59.7081 9.73468 59.7081 9.496H55.7081ZM57.5439 9.2241L55.1679 9.2481L55.2083 13.2479L57.5843 13.2239L57.5439 9.2241ZM70.6512 12.784L72.6509 12.8168C72.6514 12.7896 72.6513 12.7624 72.6506 12.7352L70.6512 12.784ZM69.5952 17.008L71.1784 18.2301C71.1877 18.218 71.197 18.2057 71.2061 18.1934L69.5952 17.008ZM60.8352 16.912L62.4069 15.6752C62.401 15.6677 62.3951 15.6603 62.3891 15.6528L60.8352 16.912ZM66.8352 12.496L68.7923 12.084C68.7848 12.0483 68.7763 12.0129 68.7669 11.9777L66.8352 12.496ZM68.6515 12.7512C68.6273 14.2227 68.5065 15.113 67.9843 15.8226L71.2061 18.1934C72.5559 16.359 72.627 14.2733 72.6509 12.8168L68.6515 12.7512ZM68.012 15.7859C67.3061 16.7003 66.5061 17.12 65.3712 17.12V21.12C67.8362 21.12 69.7722 20.0517 71.1784 18.2301L68.012 15.7859ZM65.3712 17.12C64.1378 17.12 63.1806 16.6584 62.4069 15.6752L59.2634 18.1488C60.7938 20.0936 62.9086 21.12 65.3712 21.12V17.12ZM62.3891 15.6528C61.6419 14.7308 61.4192 13.8172 61.4192 12.496H57.4192C57.4192 14.3908 57.7725 16.3092 59.2813 18.1712L62.3891 15.6528ZM61.4192 12.496C61.4192 10.5815 62.713 8.904 64.8912 8.904V4.904C60.0614 4.904 57.4192 8.84248 57.4192 12.496H61.4192ZM64.8912 8.904C66.5255 8.904 68.5869 10.1715 68.6518 12.8328L72.6506 12.7352C72.5235 7.52455 68.2968 4.904 64.8912 4.904V8.904ZM68.7669 11.9777C68.5289 11.0909 67.9964 10.2633 67.3802 9.65158C66.8002 9.07586 65.8287 8.384 64.6032 8.384V12.384C64.4381 12.384 64.3609 12.3365 64.3856 12.3494C64.4073 12.3607 64.4728 12.4017 64.5622 12.4904C64.6492 12.5767 64.7321 12.6819 64.798 12.7903C64.8657 12.9015 64.8949 12.9822 64.9035 13.0143L68.7669 11.9777ZM64.6032 8.384C63.223 8.384 62.3362 9.23279 61.8917 9.93315C61.4711 10.5957 61.2592 11.381 61.2592 12.04H65.2592C65.2592 12.1254 65.2473 12.1434 65.2574 12.1088C65.2654 12.0815 65.2739 12.0687 65.2687 12.0768C65.2645 12.0835 65.2179 12.1565 65.1001 12.2343C64.9648 12.3236 64.7863 12.384 64.6032 12.384V8.384ZM61.2592 12.04C61.2592 13.1207 61.616 14.2991 62.1589 15.2292C62.6283 16.0334 63.6805 17.376 65.3952 17.376V13.376C65.6825 13.376 65.8313 13.4987 65.8205 13.4901C65.8058 13.4782 65.7225 13.3996 65.6135 13.2128C65.5095 13.0347 65.4156 12.8151 65.3497 12.5856C65.2826 12.3524 65.2592 12.1609 65.2592 12.04H61.2592ZM65.3952 17.376C66.6551 17.376 67.6157 16.767 68.2069 15.9991C68.7479 15.2964 69.0032 14.4434 69.0032 13.696H65.0032C65.0032 13.6556 65.0067 13.6303 65.0086 13.6193C65.0106 13.6075 65.0125 13.6015 65.0132 13.5994C65.0134 13.5989 65.0173 13.5851 65.0375 13.5589C65.0601 13.5295 65.1095 13.4775 65.1928 13.4337C65.2827 13.3866 65.3611 13.376 65.3952 13.376V17.376ZM69.0032 13.696C69.0032 13.1279 68.8871 12.5341 68.7923 12.084L64.8781 12.908C64.9753 13.3699 65.0032 13.5921 65.0032 13.696H69.0032ZM89.3281 18.616L87.5316 17.7369C87.1019 18.6151 87.37 19.6752 88.1656 20.2435C88.9612 20.8117 90.051 20.7215 90.7423 20.0302L89.3281 18.616ZM89.3521 18.592L91.1655 19.4355C91.5747 18.5557 91.2934 17.5092 90.4984 16.9531C89.7034 16.397 88.6239 16.4917 87.9378 17.1778L89.3521 18.592ZM87.0961 21.256L88.2895 22.8609L88.2961 22.856L87.0961 21.256ZM80.2561 21.184V19.184C79.3859 19.184 78.6155 19.7467 78.3508 20.5757C78.0861 21.4046 78.3878 22.3096 79.097 22.8139L80.2561 21.184ZM80.2801 21.184V23.184C81.1651 23.184 81.945 22.6023 82.1972 21.7539C82.4493 20.9055 82.1139 19.9923 81.3726 19.5088L80.2801 21.184ZM78.3121 16.576L80.31 16.6658C80.3114 16.6359 80.3121 16.6059 80.3121 16.576H78.3121ZM78.3601 15.16L77.7461 13.2566C76.92 13.5231 76.3601 14.292 76.3601 15.16H78.3601ZM82.3921 15.016L84.3909 15.0838C84.4214 14.1852 83.8485 13.3768 82.9907 13.1077L82.3921 15.016ZM82.3441 16.432L84.3393 16.5696C84.3409 16.5463 84.3421 16.5231 84.3429 16.4998L82.3441 16.432ZM82.3681 18.136L80.4278 18.6211C80.438 18.6619 80.4495 18.7023 80.4622 18.7424L82.3681 18.136ZM83.5441 18.76L83.2612 20.7399C83.295 20.7447 83.329 20.7487 83.363 20.7518L83.5441 18.76ZM84.7441 17.944L83.3298 16.5298C83.3194 16.5403 83.309 16.5508 83.2988 16.5616L84.7441 17.944ZM85.5841 16.648L87.3871 17.5135C87.4035 17.4793 87.419 17.4446 87.4334 17.4095L85.5841 16.648ZM85.7041 13.84L87.3041 12.64C87.297 12.6306 87.2899 12.6213 87.2828 12.6121L85.7041 13.84ZM83.7361 13.096L84.0727 11.1245C84.0519 11.121 84.0312 11.1178 84.0104 11.1149L83.7361 13.096ZM79.6801 11.272L81.2482 10.0306L81.2471 10.0292L79.6801 11.272ZM78.8161 9.28L76.827 9.48937C76.83 9.51735 76.8335 9.54527 76.8377 9.5731L78.8161 9.28ZM80.0641 2.392L78.5789 1.05246C78.567 1.06571 78.5552 1.07913 78.5436 1.09269L80.0641 2.392ZM84.3121 0.879999L84.4864 -1.11239C84.4675 -1.11405 84.4485 -1.11543 84.4295 -1.11655L84.3121 0.879999ZM88.1761 2.296L86.7619 3.71023C87.5136 4.46195 88.7221 4.49419 89.5128 3.78363C90.3036 3.07306 90.4003 1.86803 89.7329 1.04049L88.1761 2.296ZM88.1521 2.272L89.5663 0.857765C88.8126 0.104114 87.6003 0.0739151 86.81 0.789104C86.0198 1.50429 85.9292 2.71356 86.6041 3.53848L88.1521 2.272ZM89.2321 4.888H91.2321C91.2321 4.83809 91.2302 4.78819 91.2265 4.73842L89.2321 4.888ZM89.2321 7.432L89.2081 9.43186C89.7427 9.43826 90.2575 9.23039 90.6378 8.85466C91.0181 8.47892 91.2321 7.96658 91.2321 7.432H89.2321ZM85.2241 7.384H83.2241C83.2241 8.47923 84.105 9.37074 85.2001 9.38386L85.2241 7.384ZM85.2241 5.032H87.2241C87.2241 4.94907 87.2189 4.86622 87.2086 4.78393L85.2241 5.032ZM85.1521 4.624L86.5663 3.20976C86.4943 3.13778 86.4169 3.07139 86.3348 3.01119L85.1521 4.624ZM83.1361 4.912L81.6309 3.59499C81.6264 3.60011 81.622 3.60525 81.6176 3.61042L83.1361 4.912ZM82.9681 8.608L84.894 8.06874C84.8907 8.0569 84.8873 8.04508 84.8837 8.0333L82.9681 8.608ZM84.2641 9.592L84.5579 7.61367L84.5469 7.6121L84.2641 9.592ZM89.1601 11.56L90.731 10.3223C90.724 10.3134 90.7169 10.3045 90.7098 10.2957L89.1601 11.56ZM88.1681 14.944C88.1681 15.9413 87.9471 16.8879 87.5316 17.7369L91.1245 19.4951C91.813 18.0881 92.1681 16.5387 92.1681 14.944H88.1681ZM90.7423 20.0302L90.7663 20.0062L87.9378 17.1778L87.9138 17.2018L90.7423 20.0302ZM87.5386 17.7485C87.2228 18.4275 86.7407 19.0225 85.8961 19.656L88.2961 22.856C89.5634 21.9055 90.5213 20.8205 91.1655 19.4355L87.5386 17.7485ZM85.9027 19.6511C85.3255 20.0802 84.6677 20.312 83.8081 20.312V24.312C85.4924 24.312 86.9946 23.8238 88.2895 22.8609L85.9027 19.6511ZM83.8081 20.312C82.8959 20.312 82.1504 20.077 81.4151 19.5541L79.097 22.8139C80.5217 23.827 82.0803 24.312 83.8081 24.312V20.312ZM80.2561 23.184H80.2801V19.184H80.2561V23.184ZM81.3726 19.5088C81.5226 19.6066 81.4901 19.6243 81.3089 19.3897C81.166 19.2048 80.9925 18.942 80.829 18.6263C80.4878 17.9673 80.2833 17.2616 80.31 16.6658L76.3141 16.4862C76.2449 18.0264 76.7484 19.4447 77.2771 20.4657C77.5486 20.99 77.8507 21.4562 78.1435 21.8353C78.398 22.1647 78.7615 22.5814 79.1875 22.8592L81.3726 19.5088ZM80.3121 16.576C80.3121 16.4976 80.3212 16.2673 80.3343 15.9513C80.3452 15.6913 80.3601 15.3456 80.3601 15.16H76.3601C76.3601 15.2384 76.351 15.4687 76.3378 15.7847C76.327 16.0447 76.3121 16.3904 76.3121 16.576H80.3121ZM78.9741 17.0634C80.1571 16.6818 81.0451 16.6895 81.7934 16.9243L82.9907 13.1077C81.291 12.5745 79.539 12.6782 77.7461 13.2566L78.9741 17.0634ZM80.3932 14.9482L80.3452 16.3642L84.3429 16.4998L84.3909 15.0838L80.3932 14.9482ZM80.3488 16.2944C80.3187 16.7315 80.3199 17.204 80.3298 17.564C80.3349 17.7481 80.3426 17.918 80.3516 18.0565C80.356 18.1247 80.3614 18.1952 80.3679 18.261C80.3693 18.2745 80.3835 18.4441 80.4278 18.6211L84.3083 17.6509C84.3344 17.755 84.3444 17.8343 84.3449 17.8377C84.3477 17.8584 84.3487 17.8697 84.3484 17.8666C84.3479 17.8614 84.3459 17.8394 84.3432 17.7977C84.338 17.7165 84.3322 17.5969 84.3283 17.454C84.3202 17.16 84.3215 16.8285 84.3393 16.5696L80.3488 16.2944ZM80.4622 18.7424C80.8452 19.9461 81.8967 20.3871 82.3034 20.5275C82.7832 20.6931 83.2774 20.7422 83.2612 20.7399L83.8269 16.7801C83.6947 16.7612 83.7272 16.7687 83.6578 16.7566C83.6159 16.7492 83.6012 16.7439 83.6087 16.7465C83.6145 16.7485 83.6363 16.7563 83.6697 16.7731C83.7026 16.7897 83.7578 16.8206 83.8242 16.872C83.9622 16.979 84.1663 17.1914 84.2739 17.5296L80.4622 18.7424ZM83.363 20.7518C84.2269 20.8303 84.8953 20.4103 85.1771 20.2168C85.5396 19.9679 85.8818 19.648 86.1893 19.3264L83.2988 16.5616C83.1945 16.6706 83.1077 16.7543 83.038 16.8166C82.9667 16.8804 82.9257 16.9105 82.913 16.9192C82.8955 16.9312 82.9434 16.8949 83.049 16.8542C83.1495 16.8155 83.3919 16.7379 83.7251 16.7682L83.363 20.7518ZM86.1583 19.3582C86.7921 18.7244 87.0785 18.1564 87.3871 17.5135L83.781 15.7825C83.6359 16.0848 83.565 16.2199 83.5055 16.3147C83.4637 16.3814 83.4213 16.4383 83.3298 16.5298L86.1583 19.3582ZM87.4334 17.4095C87.7189 16.7162 87.8721 15.8734 87.8721 14.944H83.8721C83.8721 15.4546 83.7852 15.7638 83.7347 15.8865L87.4334 17.4095ZM87.8721 14.944C87.8721 14.6105 87.8354 14.2524 87.7915 13.9688C87.7691 13.824 87.7393 13.6629 87.7004 13.5083C87.6814 13.4326 87.6533 13.3305 87.6134 13.2199C87.5896 13.1538 87.4994 12.9004 87.3041 12.64L84.1041 15.04C84.049 14.9665 84.0081 14.9011 83.9798 14.8521C83.9509 14.8021 83.9287 14.7585 83.9126 14.7247C83.8812 14.6589 83.8612 14.6063 83.8505 14.5767C83.8391 14.5449 83.8317 14.521 83.8279 14.5079C83.8238 14.4942 83.8216 14.4855 83.821 14.4829C83.8204 14.4806 83.8281 14.513 83.8386 14.5812C83.8484 14.6444 83.8574 14.717 83.8636 14.7881C83.8701 14.8614 83.8721 14.915 83.8721 14.944H87.8721ZM87.2828 12.6121C86.7807 11.9666 86.1254 11.6515 85.6059 11.4751C85.1076 11.306 84.5495 11.2059 84.0727 11.1245L83.3995 15.0675C83.6392 15.1084 83.8302 15.1432 83.9916 15.1778C84.1538 15.2126 84.2562 15.2411 84.3202 15.2629C84.4548 15.3085 84.2914 15.2814 84.1254 15.0679L87.2828 12.6121ZM84.0104 11.1149C82.5125 10.9075 81.6404 10.5261 81.2482 10.0306L78.112 12.5134C79.5437 14.3219 81.8397 14.8525 83.4618 15.0771L84.0104 11.1149ZM81.2471 10.0292C80.9469 9.6508 80.8476 9.34579 80.7945 8.9869L76.8377 9.5731C76.9765 10.5102 77.3092 11.5012 78.1131 12.5148L81.2471 10.0292ZM80.8051 9.07063C80.7704 8.74104 80.7681 8.30493 80.7681 7.696H76.7681C76.7681 8.23907 76.7657 8.90696 76.827 9.48937L80.8051 9.07063ZM80.7681 7.696V7.312H76.7681V7.696H80.7681ZM80.7681 7.312C80.7681 5.71071 80.9809 4.39764 81.5845 3.6913L78.5436 1.09269C76.8912 3.02636 76.7681 5.74529 76.7681 7.312H80.7681ZM81.5492 3.73154C82.1162 3.10295 82.9436 2.80296 84.1946 2.87655L84.4295 -1.11655C82.4165 -1.23496 80.22 -0.766953 78.5789 1.05246L81.5492 3.73154ZM84.1377 2.87239C84.9768 2.94581 85.6084 3.08675 86.0472 3.24854C86.5049 3.41725 86.6271 3.56124 86.6192 3.5515L89.7329 1.04049C89.125 0.286756 88.2752 -0.193256 87.4309 -0.50454C86.5677 -0.822751 85.5673 -1.01781 84.4864 -1.11239L84.1377 2.87239ZM89.5903 0.881764L89.5663 0.857765L86.7379 3.68623L86.7619 3.71023L89.5903 0.881764ZM86.6041 3.53848C87.014 4.03937 87.1988 4.51982 87.2377 5.03758L91.2265 4.73842C91.1213 3.33618 90.5862 2.08862 89.7 1.00552L86.6041 3.53848ZM87.2321 4.888V7.432H91.2321V4.888H87.2321ZM89.256 5.43214L85.248 5.38414L85.2001 9.38386L89.2081 9.43186L89.256 5.43214ZM87.2241 7.384V5.032H83.2241V7.384H87.2241ZM87.2086 4.78393C87.1981 4.69957 87.1815 4.5653 87.1629 4.44902C87.1542 4.3944 87.138 4.29794 87.1121 4.19283C87.0998 4.14286 87.0746 4.04621 87.0314 3.93223C87.0165 3.89289 86.8921 3.53564 86.5663 3.20976L83.7379 6.03823C83.5504 5.85078 83.4446 5.66914 83.3977 5.58241C83.3438 5.48284 83.3096 5.39883 83.2907 5.34886C83.2535 5.25072 83.2343 5.17452 83.228 5.14891C83.2142 5.09255 83.2099 5.0606 83.2132 5.08098C83.2186 5.1147 83.2261 5.17243 83.2395 5.28007L87.2086 4.78393ZM86.3348 3.01119C85.4357 2.35188 84.4515 2.336 84.1441 2.336V6.336C84.1798 6.336 84.1846 6.3387 84.1706 6.33565C84.1566 6.33263 84.0736 6.3133 83.9693 6.23681L86.3348 3.01119ZM84.1441 2.336C82.9451 2.336 82.1307 3.02381 81.6309 3.59499L84.6412 6.22901C84.7252 6.13303 84.7239 6.15807 84.6368 6.2087C84.5882 6.23697 84.5168 6.27098 84.4247 6.29696C84.3312 6.32331 84.2355 6.336 84.1441 6.336V2.336ZM81.6176 3.61042C81.2871 3.99598 81.1277 4.42344 81.047 4.67967C80.9552 4.97103 80.8969 5.26901 80.8577 5.5339C80.7789 6.06573 80.7521 6.6375 80.7521 7.12H84.7521C84.7521 6.7625 84.7733 6.39827 84.8145 6.1201C84.8352 5.97999 84.8549 5.90447 84.8621 5.88158C84.8651 5.8721 84.8582 5.89684 84.8351 5.94424C84.814 5.98768 84.7597 6.09096 84.6546 6.21358L81.6176 3.61042ZM80.7521 7.12C80.7521 7.75561 80.8483 8.50238 81.0524 9.1827L84.8837 8.0333C84.7998 7.75362 84.7521 7.39639 84.7521 7.12H80.7521ZM81.0421 9.14726C81.2399 9.85372 81.6457 10.4672 82.252 10.9074C82.8208 11.3204 83.4481 11.4957 83.9812 11.5719L84.5469 7.6121C84.4081 7.59227 84.4713 7.57564 84.6021 7.67057C84.6722 7.72145 84.7423 7.79093 84.8 7.87555C84.8566 7.95877 84.8832 8.03006 84.894 8.06874L81.0421 9.14726ZM83.9703 11.5703C85.0761 11.7345 85.953 11.966 86.5958 12.2246C87.2667 12.4944 87.5378 12.7353 87.6103 12.8243L90.7098 10.2957C90.0383 9.47267 89.0734 8.90962 88.0883 8.51344C87.0751 8.10597 85.876 7.80946 84.5579 7.6137L83.9703 11.5703ZM87.5891 12.7977C87.8781 13.1645 88.1681 13.8271 88.1681 14.944H92.1681C92.1681 13.1329 91.69 11.5395 90.731 10.3223L87.5891 12.7977ZM99.6959 11.248V13.248C99.7026 13.248 99.7093 13.248 99.7161 13.2479L99.6959 11.248ZM97.6319 11.272L97.5486 9.27373C96.4774 9.31837 95.6319 10.1998 95.6319 11.272H97.6319ZM98.3039 17.368V19.368C98.382 19.368 98.46 19.3634 98.5376 19.3543L98.3039 17.368ZM100.032 15.28L100.32 13.3008C99.405 13.1678 98.5182 13.6789 98.1749 14.5372L100.032 15.28ZM103.152 16.888L105.046 17.5292C105.266 16.8815 105.139 16.1667 104.71 15.634L103.152 16.888ZM96.0479 21.376V19.376C95.0378 19.376 94.1863 20.1291 94.0629 21.1316C93.9394 22.1341 94.5829 23.0713 95.5628 23.3163L96.0479 21.376ZM96.0719 21.376V23.376C97.0963 23.376 97.955 22.602 98.0611 21.5831C98.1672 20.5643 97.4863 19.6299 96.4839 19.4189L96.0719 21.376ZM93.3359 16.888L95.3358 16.9063C95.3358 16.9002 95.3359 16.8941 95.3359 16.888H93.3359ZM93.3599 13.744L95.3597 13.7734C95.3598 13.7636 95.3599 13.7538 95.3599 13.744H93.3599ZM93.3599 11.656H95.3599C95.3599 11.0931 95.1227 10.5563 94.7065 10.1773C94.2903 9.79825 93.7336 9.61219 93.1732 9.66473L93.3599 11.656ZM91.4639 11.8H89.4639C89.4639 12.3552 89.6946 12.8854 90.101 13.2637C90.5073 13.6421 91.0526 13.8345 91.6064 13.7949L91.4639 11.8ZM91.4639 8.128V6.128C90.3593 6.128 89.4639 7.02343 89.4639 8.128H91.4639ZM93.2879 8.176L93.4689 10.1678C94.4991 10.0741 95.2879 9.2104 95.2879 8.176H93.2879ZM93.3359 6.256L95.3249 6.46537C95.33 6.41721 95.3333 6.36888 95.3348 6.32048L93.3359 6.256ZM93.7199 0.423999L93.5121 -1.56517C92.5433 -1.46396 91.7883 -0.679531 91.7242 0.292416L93.7199 0.423999ZM97.8719 0.855999L99.8708 0.921538C99.8985 0.0775782 99.3931 -0.69283 98.608 -1.00361L97.8719 0.855999ZM97.8239 2.32L99.8183 2.46958C99.8204 2.4416 99.8219 2.41358 99.8228 2.38554L97.8239 2.32ZM97.7519 3.28L95.7575 3.13042C95.7551 3.16222 95.7535 3.19408 95.7526 3.22596L97.7519 3.28ZM97.5599 6.448L99.5524 6.62126C99.5547 6.59428 99.5565 6.56726 99.5577 6.54021L97.5599 6.448ZM97.5119 7.768H95.5119C95.5119 8.33194 95.75 8.86968 96.1675 9.24876C96.585 9.62784 97.1432 9.81302 97.7045 9.7587L97.5119 7.768ZM99.9359 7.6L99.8127 5.60379L99.8071 5.60415L99.9359 7.6ZM101.88 7.48L103.68 6.60888C103.327 5.8783 102.567 5.43379 101.757 5.4838L101.88 7.48ZM102.072 11.224L102.092 13.2239C103.038 13.2143 103.848 12.5436 104.033 11.6162L102.072 11.224ZM99.6959 9.248C99.2337 9.248 98.1762 9.24758 97.5486 9.27373L97.7151 13.2703C98.2396 13.2484 99.1981 13.248 99.6959 13.248V9.248ZM95.6319 11.272C95.6319 11.683 95.6204 12.2616 95.6081 13.0343C95.5961 13.7946 95.5839 14.7126 95.5839 15.76H99.5839C99.5839 14.7434 99.5957 13.8494 99.6076 13.0977C99.6194 12.3584 99.6319 11.725 99.6319 11.272H95.6319ZM95.5839 15.76C95.5839 16.2481 95.6295 16.9228 95.8589 17.549C96.0722 18.1312 96.7525 19.368 98.3039 19.368V15.368C98.4878 15.368 98.6866 15.4034 98.8819 15.4845C99.0747 15.5646 99.2261 15.6735 99.3374 15.7794C99.5442 15.9763 99.609 16.157 99.6148 16.173C99.6254 16.202 99.6141 16.1801 99.6021 16.0881C99.591 16.0025 99.5839 15.891 99.5839 15.76H95.5839ZM98.5376 19.3543C99.1409 19.2833 99.5627 18.9704 99.6879 18.8769C99.8801 18.7334 100.045 18.5749 100.169 18.4467C100.423 18.185 100.672 17.8767 100.878 17.6054C101.09 17.326 101.289 17.0418 101.446 16.8052C101.524 16.6872 101.598 16.5714 101.661 16.4671C101.697 16.4071 101.809 16.2231 101.889 16.0228L98.1749 14.5372C98.1975 14.4807 98.2172 14.44 98.2254 14.4234C98.235 14.4038 98.2419 14.3911 98.2439 14.3874C98.2477 14.3804 98.245 14.3857 98.2327 14.4062C98.2085 14.4464 98.1678 14.511 98.1113 14.5963C97.9988 14.7662 97.8488 14.98 97.692 15.1866C97.5289 15.4013 97.3896 15.567 97.2959 15.6638C97.2465 15.7148 97.248 15.7067 97.2948 15.6717C97.3195 15.6533 97.3853 15.6059 97.4869 15.5545C97.5782 15.5083 97.7825 15.4155 98.0702 15.3817L98.5376 19.3543ZM99.744 17.2592C100.747 17.405 101.218 17.6746 101.594 18.142L104.71 15.634C103.502 14.1334 101.957 13.539 100.32 13.3008L99.744 17.2592ZM101.257 16.2468C100.519 18.4295 98.3784 19.472 96.9359 19.472V23.472C99.8134 23.472 103.673 21.5865 105.046 17.5292L101.257 16.2468ZM96.9359 19.472C96.8615 19.472 96.7771 19.4685 96.696 19.4605C96.6117 19.4523 96.557 19.4417 96.5329 19.4357L95.5628 23.3163C96.0675 23.4425 96.5816 23.472 96.9359 23.472V19.472ZM96.0479 23.376H96.0719V19.376H96.0479V23.376ZM96.4839 19.4189C96.0647 19.3306 95.8634 19.1637 95.7149 18.922C95.5243 18.6118 95.3257 18.0039 95.3358 16.9063L91.336 16.8697C91.322 18.3881 91.5795 19.8322 92.3069 21.016C93.0763 22.2683 94.2551 23.0374 95.6599 23.3331L96.4839 19.4189ZM95.3359 16.888C95.3359 16.4369 95.3359 15.3917 95.3597 13.7734L91.3601 13.7146C91.3359 15.3603 91.3359 16.4271 91.3359 16.888H95.3359ZM95.3599 13.744V11.656H91.3599V13.744H95.3599ZM93.1732 9.66473C92.4346 9.73397 91.6869 9.77898 91.3214 9.80508L91.6064 13.7949C91.9129 13.773 92.7491 13.722 93.5466 13.6473L93.1732 9.66473ZM93.4639 11.8V8.128H89.4639V11.8H93.4639ZM91.4639 10.128C91.7218 10.128 92.0597 10.1433 92.424 10.1591C92.5941 10.1665 92.7733 10.1741 92.9291 10.178C93.054 10.1811 93.2717 10.1857 93.4689 10.1678L93.1068 6.18421C93.172 6.17828 93.1738 6.18287 93.0294 6.17925C92.916 6.17641 92.7727 6.17049 92.5977 6.16289C92.272 6.14873 91.8299 6.128 91.4639 6.128V10.128ZM95.2879 8.176C95.2879 7.35735 95.2906 6.7907 95.3249 6.46537L91.3469 6.04663C91.2851 6.6333 91.2879 7.45865 91.2879 8.176H95.2879ZM95.3348 6.32048C95.3815 4.87429 95.5663 2.81974 95.7155 0.555581L91.7242 0.292416C91.5855 2.39626 91.3863 4.66171 91.3369 6.19152L95.3348 6.32048ZM93.9277 2.41317C95.311 2.26865 96.3617 2.4092 97.1358 2.71561L98.608 -1.00361C97.0781 -1.6092 95.3447 -1.75665 93.5121 -1.56517L93.9277 2.41317ZM95.8729 0.79046L95.825 2.25446L99.8228 2.38554L99.8708 0.921538L95.8729 0.79046ZM95.8295 2.17042L95.7575 3.13042L99.7463 3.42958L99.8183 2.46958L95.8295 2.17042ZM95.7526 3.22596C95.7421 3.61525 95.7159 3.97047 95.6793 4.46426C95.6431 4.95408 95.5993 5.54683 95.562 6.35579L99.5577 6.54021C99.5924 5.78917 99.6327 5.24192 99.6684 4.75974C99.7038 4.28152 99.7377 3.83275 99.7511 3.33403L95.7526 3.22596ZM95.5674 6.27474C95.5566 6.39888 95.5491 6.47073 95.5416 6.54728C95.5337 6.62814 95.5253 6.71942 95.5199 6.83719C95.5113 7.02771 95.5119 7.28355 95.5119 7.768H99.5119C99.5119 7.22045 99.5125 7.09229 99.5158 7.01881C99.5165 7.00458 99.517 6.99386 99.5226 6.93672C99.5286 6.87527 99.5392 6.77312 99.5524 6.62126L95.5674 6.27474ZM97.7045 9.7587C98.406 9.69081 99.2768 9.64668 100.065 9.59585L99.8071 5.60415C99.107 5.64932 98.1058 5.70118 97.3192 5.7773L97.7045 9.7587ZM100.059 9.5962L102.003 9.4762L101.757 5.4838L99.8127 5.6038L100.059 9.5962ZM100.08 8.35112C100.207 8.61465 100.216 8.88606 100.216 9.496H104.216C104.216 9.04994 104.273 7.83335 103.68 6.60888L100.08 8.35112ZM100.216 9.496C100.216 9.56931 100.203 9.84582 100.177 10.1873C100.164 10.347 100.151 10.5008 100.137 10.6288C100.121 10.7726 100.11 10.833 100.111 10.8318L104.033 11.6162C104.096 11.3007 104.139 10.8301 104.165 10.4967C104.192 10.1422 104.216 9.73468 104.216 9.496H100.216ZM102.052 9.2241L99.6757 9.2481L99.7161 13.2479L102.092 13.2239L102.052 9.2241ZM114.484 18.928L116.171 20.0018C116.725 19.1314 116.526 17.9826 115.712 17.3493L114.484 18.928ZM113.5 20.008L112.471 18.293C112.46 18.2992 112.45 18.3056 112.44 18.312L113.5 20.008ZM110.5 20.872L109.013 22.2099C109.354 22.5885 109.826 22.8228 110.334 22.8651L110.5 20.872ZM109.852 18.784L111.834 18.5177C111.753 17.9177 111.405 17.3864 110.887 17.073C110.369 16.7595 109.737 16.6975 109.168 16.9044L109.852 18.784ZM103.204 14.368L105.131 14.9033L105.133 14.8942L103.204 14.368ZM105.004 11.512L103.732 9.96814C103.728 9.97173 103.724 9.97533 103.719 9.97896L105.004 11.512ZM109.516 10.72L109.058 12.6668C109.652 12.8068 110.279 12.6672 110.758 12.2878C111.237 11.9085 111.516 11.331 111.516 10.72H109.516ZM109.516 10.096H111.516C111.516 10.065 111.515 10.034 111.514 10.0031L109.516 10.096ZM109.468 9.064L111.466 8.97108C111.462 8.89454 111.454 8.81827 111.442 8.74265L109.468 9.064ZM108.628 8.224L109.062 10.1764C109.079 10.1726 109.096 10.1685 109.113 10.1643L108.628 8.224ZM106.852 8.776L105.957 6.98714C105.912 7.01004 105.867 7.03468 105.823 7.06101L106.852 8.776ZM105.148 9.928L104.018 11.5786C104.8 12.1134 105.85 12.0267 106.533 11.3708L105.148 9.928ZM104.26 8.08L106.189 7.55376C106.187 7.54602 106.185 7.53828 106.183 7.53056L104.26 8.08ZM104.236 6.232L103.087 4.59489C102.736 4.84097 102.474 5.19314 102.338 5.59954L104.236 6.232ZM110.668 5.128L109.939 6.99049C109.988 7.0095 110.037 7.0266 110.087 7.04176L110.668 5.128ZM113.332 7.624L111.413 8.18833C111.42 8.21116 111.427 8.23388 111.434 8.25645L113.332 7.624ZM113.62 12.52L115.619 12.5654C115.62 12.5503 115.62 12.5351 115.62 12.52H113.62ZM109.372 13.672L110.786 12.2578V12.2578L109.372 13.672ZM109.588 15.712L111.503 16.2867C111.562 16.0919 111.59 15.8894 111.588 15.686L109.588 15.712ZM109.564 13.864L111.564 13.838C111.557 13.3166 111.347 12.8185 110.978 12.4498L109.564 13.864ZM114.484 18.928C112.796 17.8542 112.797 17.854 112.797 17.8538C112.797 17.8538 112.797 17.8535 112.797 17.8534C112.797 17.8531 112.797 17.8529 112.798 17.8526C112.798 17.8521 112.798 17.8517 112.798 17.8513C112.799 17.8505 112.799 17.8498 112.8 17.8493C112.8 17.8484 112.8 17.8481 112.8 17.8485C112.8 17.8493 112.798 17.8526 112.794 17.8581C112.787 17.8692 112.773 17.8888 112.755 17.9146C112.719 17.9675 112.666 18.0398 112.606 18.1155C112.544 18.1937 112.487 18.2583 112.442 18.3035C112.387 18.3582 112.396 18.3377 112.471 18.293L114.529 21.723C115.099 21.3807 115.533 20.862 115.737 20.6045C115.863 20.4462 115.967 20.3025 116.04 20.1979C116.076 20.145 116.106 20.1005 116.129 20.0671C116.14 20.0504 116.149 20.0364 116.156 20.0254C116.159 20.0199 116.163 20.0152 116.165 20.0112C116.166 20.0092 116.167 20.0075 116.169 20.0059C116.169 20.0051 116.169 20.0044 116.17 20.0037C116.17 20.0033 116.17 20.003 116.171 20.0027C116.171 20.0025 116.171 20.0023 116.171 20.0022C116.171 20.002 116.171 20.0018 114.484 18.928ZM112.44 18.312C111.587 18.8451 111.027 18.909 110.666 18.8789L110.334 22.8651C111.7 22.979 113.109 22.6109 114.56 21.704L112.44 18.312ZM111.986 19.5341C112.139 19.704 112.15 19.8063 112.091 19.6474C112.05 19.5372 112.005 19.3799 111.961 19.1927C111.919 19.0121 111.886 18.8376 111.864 18.7064C111.853 18.6418 111.845 18.5903 111.84 18.5567C111.837 18.54 111.835 18.528 111.835 18.5212C111.834 18.5179 111.834 18.5158 111.834 18.5152C111.834 18.5149 111.834 18.515 111.834 18.5154C111.834 18.5156 111.834 18.5159 111.834 18.5163C111.834 18.5165 111.834 18.5167 111.834 18.5169C111.834 18.5171 111.834 18.5173 111.834 18.5173C111.834 18.5175 111.834 18.5177 109.852 18.784C107.87 19.0503 107.87 19.0505 107.87 19.0507C107.87 19.0508 107.87 19.051 107.87 19.0512C107.87 19.0516 107.87 19.0519 107.87 19.0523C107.87 19.0531 107.87 19.054 107.87 19.055C107.871 19.0569 107.871 19.0593 107.871 19.062C107.872 19.0675 107.873 19.0746 107.874 19.0831C107.877 19.1001 107.88 19.1231 107.884 19.1513C107.893 19.2076 107.905 19.2854 107.921 19.3791C107.952 19.5644 108.001 19.8219 108.066 20.1033C108.131 20.3781 108.22 20.7128 108.341 21.0391C108.444 21.3167 108.644 21.8 109.013 22.2099L111.986 19.5341ZM109.168 16.9044C108.98 16.973 108.761 17.0655 108.589 17.1378C108.397 17.2188 108.217 17.2946 108.039 17.3637C107.859 17.4336 107.716 17.4826 107.61 17.5124C107.481 17.5484 107.503 17.528 107.62 17.528V21.528C108.348 21.528 109.11 21.2388 109.487 21.0923C109.726 20.9994 109.959 20.9012 110.14 20.8247C110.343 20.7395 110.46 20.691 110.535 20.6636L109.168 16.9044ZM107.62 17.528C106.673 17.528 105.994 17.2939 105.604 17.0001C105.287 16.7619 105.036 16.4033 105.036 15.688H101.036C101.036 17.6127 101.84 19.1741 103.198 20.1959C104.482 21.1621 106.094 21.528 107.62 21.528V17.528ZM105.036 15.688C105.036 15.3768 105.068 15.1293 105.131 14.9033L101.277 13.8327C101.1 14.4707 101.036 15.0872 101.036 15.688H105.036ZM105.133 14.8942C105.325 14.1901 105.744 13.5006 106.288 13.045L103.719 9.97896C102.487 11.0114 101.658 12.4339 101.274 13.8418L105.133 14.8942ZM106.275 13.0559C106.657 12.7418 107.206 12.528 108.052 12.528V8.528C106.498 8.528 104.983 8.93823 103.732 9.96814L106.275 13.0559ZM108.052 12.528C108.298 12.528 108.734 12.5905 109.058 12.6668L109.974 8.77316C109.482 8.65745 108.718 8.528 108.052 8.528V12.528ZM111.516 10.72V10.096H107.516V10.72H111.516ZM111.514 10.0031L111.466 8.97108L107.47 9.15692L107.518 10.1889L111.514 10.0031ZM111.442 8.74265C111.393 8.44453 111.327 8.11301 111.215 7.80324C111.111 7.51408 110.884 6.99802 110.359 6.60753C109.764 6.1648 109.138 6.13524 108.768 6.1667C108.479 6.19134 108.181 6.27413 108.143 6.28371L109.113 10.1643C109.193 10.1443 109.21 10.1397 109.228 10.1358C109.242 10.1327 109.191 10.1452 109.108 10.1523C108.914 10.1688 108.437 10.1632 107.971 9.81647C107.575 9.52198 107.457 9.17392 107.451 9.15776C107.438 9.12099 107.458 9.16747 107.494 9.38535L111.442 8.74265ZM108.194 6.27163C108 6.31477 107.543 6.44591 107.17 6.55858C106.967 6.61997 106.753 6.6867 106.568 6.74851C106.436 6.79226 106.168 6.88194 105.957 6.98714L107.746 10.5649C107.674 10.6012 107.635 10.6131 107.684 10.5948C107.715 10.5834 107.764 10.5661 107.833 10.5432C107.969 10.4978 108.144 10.443 108.328 10.3874C108.51 10.3323 108.691 10.2795 108.837 10.2382C109.005 10.1906 109.073 10.1739 109.062 10.1764L108.194 6.27163ZM105.823 7.06101C105.541 7.23034 104.578 7.7025 103.763 8.48522L106.533 11.3708C106.918 11.0015 107.203 10.8977 107.881 10.491L105.823 7.06101ZM106.277 8.27739C106.409 8.36737 106.473 8.4542 106.488 8.47601C106.502 8.49584 106.488 8.47968 106.454 8.40028C106.421 8.32285 106.382 8.2154 106.336 8.06596C106.289 7.91638 106.243 7.75107 106.189 7.55376L102.33 8.60623C102.433 8.98281 102.574 9.49798 102.774 9.96772C102.965 10.4155 103.32 11.101 104.018 11.5786L106.277 8.27739ZM106.183 7.53056C106.189 7.5521 106.178 7.51744 106.167 7.41275C106.156 7.31793 106.15 7.20355 106.149 7.08505C106.148 6.96548 106.153 6.86421 106.159 6.79487C106.163 6.76078 106.165 6.74585 106.165 6.74783C106.165 6.74943 106.163 6.75955 106.159 6.77677C106.155 6.79331 106.147 6.82375 106.133 6.86446L102.338 5.59954C102.167 6.11484 102.146 6.73533 102.149 7.11895C102.153 7.54704 102.193 8.12549 102.337 8.62944L106.183 7.53056ZM105.385 7.86911C106.436 7.13151 107.502 6.792 108.676 6.792V2.792C106.633 2.792 104.772 3.41249 103.087 4.59489L105.385 7.86911ZM108.676 6.792C109.243 6.792 109.66 6.88138 109.939 6.99049L111.397 3.26551C110.571 2.94262 109.645 2.792 108.676 2.792V6.792ZM110.087 7.04176C110.913 7.29254 111.278 7.72842 111.413 8.18833L115.251 7.05967C114.666 5.07157 113.111 3.77946 111.249 3.21424L110.087 7.04176ZM111.434 8.25645C111.57 8.66378 111.668 9.38637 111.668 10.528H115.668C115.668 9.26963 115.573 8.02422 115.229 6.99154L111.434 8.25645ZM111.668 10.528C111.668 10.7731 111.657 11.0635 111.645 11.4179C111.633 11.7554 111.62 12.1435 111.62 12.52H115.62C115.62 12.2245 115.63 11.9046 115.643 11.5581C115.654 11.2285 115.668 10.8589 115.668 10.528H111.668ZM111.62 12.4746C111.596 13.5506 111.596 14.0467 111.596 14.608H115.596C115.596 14.0653 115.596 13.6014 115.619 12.5654L111.62 12.4746ZM111.596 14.608C111.596 15.8591 111.655 16.968 111.835 17.8755C112 18.7139 112.343 19.7967 113.256 20.5067L115.712 17.3493C115.977 17.5553 115.875 17.6901 115.759 17.1005C115.656 16.58 115.596 15.7809 115.596 14.608H111.596ZM110.786 12.2578C109.966 11.4379 108.898 11.144 108.124 11.144V15.144C108.07 15.144 108.041 15.1387 108.034 15.1374C108.029 15.1365 108.026 15.1357 108.024 15.1354C108.023 15.135 108.023 15.1348 108.022 15.1346C108.022 15.1345 108.017 15.1327 108.007 15.1268C107.997 15.1206 107.979 15.1081 107.958 15.0862L110.786 12.2578ZM108.124 11.144C107.023 11.144 106.385 11.8908 106.169 12.1798C105.898 12.5436 105.723 12.9447 105.611 13.2535C105.389 13.866 105.236 14.6204 105.236 15.232H109.236C109.236 15.2384 109.236 15.2186 109.241 15.1709C109.246 15.1256 109.255 15.0679 109.267 15.0014C109.294 14.8638 109.332 14.7266 109.371 14.6185C109.418 14.4893 109.433 14.4944 109.375 14.5717C109.344 14.6138 109.248 14.7359 109.067 14.8588C108.875 14.9896 108.551 15.144 108.124 15.144V11.144ZM105.236 15.232C105.236 15.8787 105.317 16.6254 105.658 17.2836C106.062 18.0613 106.858 18.72 107.956 18.72V14.72C108.218 14.72 108.512 14.7954 108.775 14.9718C109.025 15.139 109.153 15.3341 109.209 15.4424C109.263 15.5454 109.265 15.5954 109.256 15.5463C109.248 15.5015 109.236 15.4016 109.236 15.232H105.236ZM107.956 18.72C108.536 18.72 109.214 18.5834 109.835 18.2573C110.472 17.9236 111.198 17.3036 111.503 16.2867L107.672 15.1373C107.713 15.0014 107.783 14.8926 107.852 14.8183C107.915 14.7496 107.966 14.721 107.978 14.7147C107.99 14.7082 107.986 14.712 107.967 14.7166C107.947 14.7213 107.939 14.72 107.956 14.72V18.72ZM111.588 15.686L111.564 13.838L107.564 13.89L107.588 15.738L111.588 15.686ZM110.978 12.4498L110.786 12.2578L107.958 15.0862L108.15 15.2782L110.978 12.4498ZM126.188 10.624L124.188 10.5775C124.188 10.6135 124.188 10.6495 124.189 10.6855L126.188 10.624ZM126.236 12.184L126.595 14.1514C127.568 13.9737 128.265 13.1112 128.235 12.1225L126.236 12.184ZM122.564 12.64L120.566 12.559C120.544 13.103 120.744 13.6325 121.121 14.0253C121.498 14.418 122.019 14.64 122.564 14.64V12.64ZM122.636 10.864L124.634 10.945C124.635 10.918 124.636 10.891 124.636 10.864H122.636ZM122.204 10.048L121.754 8.09922C121.749 8.10053 121.743 8.10186 121.737 8.10322L122.204 10.048ZM120.356 11.44L118.861 10.1113C118.8 10.1804 118.743 10.2537 118.692 10.3306L120.356 11.44ZM119.78 12.304L118.116 11.1946C117.906 11.5086 117.79 11.8755 117.781 12.2527L119.78 12.304ZM119.732 15.376L121.731 15.3335C121.731 15.318 121.731 15.3026 121.73 15.2872L119.732 15.376ZM119.924 19.48L119.891 21.4797C120.451 21.4889 120.989 21.263 121.374 20.857C121.76 20.451 121.957 19.9021 121.919 19.3436L119.924 19.48ZM115.508 19.408L113.508 19.383C113.494 20.4845 114.374 21.3898 115.475 21.4077L115.508 19.408ZM115.532 17.488L113.535 17.3847C113.533 17.4108 113.532 17.4369 113.532 17.463L115.532 17.488ZM115.7 9.976L113.7 10.013L113.7 10.0198L115.7 9.976ZM115.508 6.688L114.709 4.85461C113.921 5.19806 113.44 6.00653 113.516 6.86277L115.508 6.688ZM119.516 5.92L121.514 5.82708C121.488 5.27288 121.233 4.75429 120.81 4.39526C120.387 4.03623 119.834 3.86902 119.283 3.93359L119.516 5.92ZM119.66 8.176L117.666 8.33238C117.726 9.09337 118.213 9.75403 118.923 10.0353C119.633 10.3165 120.44 10.1693 121.005 9.65588L119.66 8.176ZM122.204 6.208L122.46 8.19158L122.471 8.19012L122.204 6.208ZM125.012 7.192L123.534 8.53951C123.555 8.56223 123.576 8.58447 123.598 8.60621L125.012 7.192ZM124.189 10.6855L124.237 12.2455L128.235 12.1225L128.187 10.5625L124.189 10.6855ZM126.236 12.184C125.877 10.2166 125.877 10.2166 125.877 10.2165C125.877 10.2165 125.877 10.2165 125.877 10.2165C125.877 10.2165 125.877 10.2165 125.877 10.2165C125.877 10.2165 125.876 10.2166 125.876 10.2167C125.875 10.2168 125.874 10.217 125.872 10.2174C125.868 10.2181 125.862 10.2192 125.854 10.2207C125.837 10.2237 125.811 10.2283 125.778 10.2341C125.712 10.2459 125.615 10.2628 125.494 10.2833C125.251 10.3244 124.917 10.3791 124.548 10.4335C123.766 10.5491 122.985 10.64 122.564 10.64V14.64C123.319 14.64 124.373 14.5029 125.133 14.3905C125.536 14.3309 125.899 14.2716 126.162 14.2272C126.293 14.2049 126.4 14.1863 126.474 14.1731C126.512 14.1665 126.541 14.1612 126.562 14.1575C126.572 14.1557 126.58 14.1542 126.586 14.1532C126.588 14.1527 126.591 14.1523 126.592 14.152C126.593 14.1519 126.594 14.1517 126.594 14.1516C126.595 14.1516 126.595 14.1515 126.595 14.1515C126.595 14.1515 126.595 14.1515 126.595 14.1515C126.595 14.1515 126.595 14.1514 126.236 12.184ZM124.562 12.721L124.634 10.945L120.638 10.783L120.566 12.559L124.562 12.721ZM124.636 10.864C124.636 10.5213 124.593 9.99916 124.377 9.49228C124.269 9.23905 124.047 8.81976 123.601 8.48644C123.078 8.09466 122.41 7.948 121.754 8.09922L122.654 11.9968C122.154 12.112 121.618 11.9983 121.205 11.6891C120.87 11.4382 120.736 11.1509 120.697 11.0597C120.619 10.8768 120.636 10.7987 120.636 10.864H124.636ZM121.737 8.10322C121.287 8.21134 120.789 8.37324 120.235 8.77788C119.778 9.11169 119.342 9.56981 118.861 10.1113L121.851 12.7687C122.078 12.5128 122.245 12.335 122.373 12.2075C122.502 12.0801 122.569 12.0269 122.595 12.0081C122.61 11.9971 122.596 12.0082 122.569 12.0194C122.553 12.0259 122.567 12.0177 122.671 11.9928L121.737 8.10322ZM118.692 10.3306L118.116 11.1946L121.444 13.4134L122.02 12.5494L118.692 10.3306ZM117.781 12.2527C117.759 13.0766 117.682 14.2919 117.734 15.4648L121.73 15.2872C121.686 14.3001 121.752 13.4034 121.779 12.3553L117.781 12.2527ZM117.732 15.4185C117.757 16.5616 117.734 16.7643 117.929 19.6164L121.919 19.3436C121.73 16.5797 121.755 16.4464 121.731 15.3335L117.732 15.4185ZM119.957 17.4803L115.541 17.4083L115.475 21.4077L119.891 21.4797L119.957 17.4803ZM117.508 19.433L117.532 17.513L113.532 17.463L113.508 19.383L117.508 19.433ZM117.529 17.5913C117.673 14.8049 117.773 13.3005 117.699 9.93221L113.7 10.0198C113.771 13.2275 113.678 14.6031 113.535 17.3847L117.529 17.5913ZM117.7 9.93897C117.674 8.57757 117.622 7.90244 117.5 6.51323L113.516 6.86277C113.634 8.20956 113.677 8.78243 113.7 10.013L117.7 9.93897ZM116.307 8.52139C116.306 8.52192 116.359 8.50017 116.491 8.46295C116.614 8.42832 116.769 8.39032 116.953 8.35032C117.322 8.2702 117.754 8.1936 118.178 8.12609C118.598 8.05911 118.993 8.00386 119.284 7.96527C119.429 7.94604 119.547 7.93111 119.628 7.92107C119.669 7.91606 119.7 7.91227 119.72 7.9098C119.731 7.90857 119.738 7.90766 119.743 7.90709C119.745 7.90681 119.747 7.90661 119.748 7.90649C119.748 7.90643 119.749 7.9064 119.749 7.90638C119.749 7.90638 119.749 7.90638 119.749 7.90638C119.749 7.90638 119.749 7.90639 119.749 7.90639C119.749 7.9064 119.749 7.90641 119.516 5.92C119.283 3.93359 119.283 3.9336 119.283 3.93362C119.283 3.93362 119.283 3.93364 119.283 3.93365C119.282 3.93368 119.282 3.93371 119.282 3.93375C119.281 3.93382 119.28 3.93391 119.279 3.93403C119.277 3.93427 119.275 3.93459 119.271 3.935C119.264 3.93582 119.255 3.93698 119.242 3.93848C119.217 3.94148 119.181 3.94583 119.136 3.95146C119.045 3.96271 118.916 3.97908 118.758 3.99998C118.444 4.04164 118.013 4.10189 117.548 4.17591C117.087 4.2494 116.575 4.3393 116.105 4.44143C115.675 4.5348 115.139 4.66723 114.709 4.85461L116.307 8.52139ZM117.518 6.01292C117.543 6.55048 117.58 7.13132 117.611 7.5726C117.626 7.79441 117.64 7.98338 117.65 8.11721C117.655 8.18416 117.659 8.23741 117.662 8.27418C117.663 8.29257 117.664 8.30684 117.665 8.31665C117.665 8.32156 117.666 8.32535 117.666 8.32799C117.666 8.32931 117.666 8.33034 117.666 8.33107C117.666 8.33144 117.666 8.33173 117.666 8.33195C117.666 8.33206 117.666 8.33215 117.666 8.33222C117.666 8.33226 117.666 8.3323 117.666 8.33232C117.666 8.33235 117.666 8.33238 119.66 8.176C121.654 8.01962 121.654 8.01964 121.654 8.01966C121.654 8.01965 121.654 8.01967 121.654 8.01967C121.654 8.01966 121.654 8.01964 121.654 8.0196C121.654 8.01952 121.654 8.01937 121.654 8.01915C121.654 8.0187 121.654 8.01795 121.654 8.01692C121.653 8.01486 121.653 8.01166 121.653 8.00735C121.652 7.99873 121.651 7.9857 121.65 7.9686C121.647 7.9344 121.643 7.88396 121.639 7.82004C121.629 7.69212 121.616 7.51059 121.601 7.2974C121.572 6.86868 121.537 6.32152 121.514 5.82708L117.518 6.01292ZM121.005 9.65588C121.17 9.50574 121.393 9.28573 121.57 9.11323C121.77 8.91892 121.973 8.72512 122.173 8.54905C122.378 8.36798 122.542 8.24014 122.66 8.16334C122.824 8.05628 122.733 8.15631 122.46 8.19155L121.948 4.22444C121.303 4.30768 120.774 4.61772 120.474 4.81365C120.127 5.03986 119.801 5.30801 119.529 5.54695C119.252 5.79088 118.992 6.04108 118.781 6.24576C118.548 6.47227 118.413 6.60626 118.315 6.69612L121.005 9.65588ZM122.471 8.19012C122.86 8.13778 123.035 8.18219 123.112 8.21022C123.187 8.23745 123.319 8.30359 123.534 8.53951L126.49 5.84449C125.961 5.26441 125.313 4.75455 124.481 4.45178C123.652 4.14981 122.796 4.11022 121.937 4.22588L122.471 8.19012ZM123.598 8.60621C123.584 8.59217 123.636 8.64437 123.725 8.81164C123.807 8.96749 123.893 9.17014 123.969 9.40379C124.131 9.89993 124.194 10.3515 124.188 10.5775L128.187 10.6705C128.206 9.8645 128.029 8.94807 127.771 8.16021C127.525 7.40971 127.104 6.45593 126.426 5.77779L123.598 8.60621ZM135.907 11.248V13.248C135.914 13.248 135.92 13.248 135.927 13.2479L135.907 11.248ZM133.843 11.272L133.76 9.27373C132.688 9.31837 131.843 10.1998 131.843 11.272H133.843ZM134.515 17.368V19.368C134.593 19.368 134.671 19.3634 134.748 19.3543L134.515 17.368ZM136.243 15.28L136.531 13.3008C135.616 13.1678 134.729 13.6789 134.386 14.5372L136.243 15.28ZM139.363 16.888L141.257 17.5292C141.476 16.8815 141.35 16.1667 140.921 15.634L139.363 16.888ZM132.259 21.376V19.376C131.249 19.376 130.397 20.1291 130.274 21.1316C130.15 22.1341 130.794 23.0713 131.774 23.3163L132.259 21.376ZM132.283 21.376V23.376C133.307 23.376 134.166 22.602 134.272 21.5831C134.378 20.5643 133.697 19.6299 132.695 19.4189L132.283 21.376ZM129.547 16.888L131.547 16.9063C131.547 16.9002 131.547 16.8941 131.547 16.888H129.547ZM129.571 13.744L131.571 13.7734C131.571 13.7636 131.571 13.7538 131.571 13.744H129.571ZM129.571 11.656H131.571C131.571 11.0931 131.334 10.5563 130.917 10.1773C130.501 9.79825 129.945 9.61219 129.384 9.66473L129.571 11.656ZM127.675 11.8H125.675C125.675 12.3552 125.906 12.8854 126.312 13.2637C126.718 13.6421 127.264 13.8345 127.817 13.7949L127.675 11.8ZM127.675 8.128V6.128C126.57 6.128 125.675 7.02343 125.675 8.128H127.675ZM129.499 8.176L129.68 10.1678C130.71 10.0741 131.499 9.2104 131.499 8.176H129.499ZM129.547 6.256L131.536 6.46537C131.541 6.41721 131.544 6.36888 131.546 6.32048L129.547 6.256ZM129.931 0.423999L129.723 -1.56517C128.754 -1.46396 127.999 -0.679531 127.935 0.292416L129.931 0.423999ZM134.083 0.855999L136.082 0.921538C136.109 0.0775782 135.604 -0.69283 134.819 -1.00361L134.083 0.855999ZM134.035 2.32L136.029 2.46958C136.031 2.4416 136.033 2.41358 136.034 2.38554L134.035 2.32ZM133.963 3.28L131.968 3.13042C131.966 3.16222 131.964 3.19408 131.964 3.22596L133.963 3.28ZM133.771 6.448L135.763 6.62126C135.766 6.59428 135.767 6.56726 135.769 6.54021L133.771 6.448ZM133.723 7.768H131.723C131.723 8.33194 131.961 8.86968 132.378 9.24876C132.796 9.62784 133.354 9.81302 133.915 9.7587L133.723 7.768ZM136.147 7.6L136.024 5.60379L136.018 5.60415L136.147 7.6ZM138.091 7.48L139.891 6.60888C139.538 5.8783 138.778 5.43379 137.968 5.4838L138.091 7.48ZM138.283 11.224L138.303 13.2239C139.249 13.2143 140.058 12.5436 140.244 11.6162L138.283 11.224ZM135.907 9.248C135.445 9.248 134.387 9.24758 133.76 9.27373L133.926 13.2703C134.451 13.2484 135.409 13.248 135.907 13.248V9.248ZM131.843 11.272C131.843 11.683 131.831 12.2616 131.819 13.0343C131.807 13.7946 131.795 14.7126 131.795 15.76H135.795C135.795 14.7434 135.807 13.8494 135.819 13.0977C135.83 12.3584 135.843 11.725 135.843 11.272H131.843ZM131.795 15.76C131.795 16.2481 131.84 16.9228 132.07 17.549C132.283 18.1312 132.963 19.368 134.515 19.368V15.368C134.699 15.368 134.898 15.4034 135.093 15.4845C135.286 15.5646 135.437 15.6735 135.548 15.7794C135.755 15.9763 135.82 16.157 135.826 16.173C135.836 16.202 135.825 16.1801 135.813 16.0881C135.802 16.0025 135.795 15.891 135.795 15.76H131.795ZM134.748 19.3543C135.352 19.2833 135.774 18.9704 135.899 18.8769C136.091 18.7334 136.256 18.5749 136.38 18.4467C136.634 18.185 136.883 17.8767 137.089 17.6054C137.301 17.326 137.5 17.0418 137.657 16.8052C137.735 16.6872 137.809 16.5714 137.872 16.4671C137.908 16.4071 138.02 16.2231 138.1 16.0228L134.386 14.5372C134.408 14.4807 134.428 14.44 134.436 14.4234C134.446 14.4038 134.453 14.3911 134.455 14.3874C134.459 14.3804 134.456 14.3857 134.444 14.4062C134.419 14.4464 134.379 14.511 134.322 14.5963C134.21 14.7662 134.06 14.98 133.903 15.1866C133.74 15.4013 133.601 15.567 133.507 15.6638C133.457 15.7148 133.459 15.7067 133.506 15.6717C133.53 15.6533 133.596 15.6059 133.698 15.5545C133.789 15.5083 133.993 15.4155 134.281 15.3817L134.748 19.3543ZM135.955 17.2592C136.957 17.405 137.429 17.6746 137.805 18.142L140.921 15.634C139.713 14.1334 138.168 13.539 136.531 13.3008L135.955 17.2592ZM137.468 16.2468C136.73 18.4295 134.589 19.472 133.147 19.472V23.472C136.024 23.472 139.884 21.5865 141.257 17.5292L137.468 16.2468ZM133.147 19.472C133.072 19.472 132.988 19.4685 132.907 19.4605C132.823 19.4523 132.768 19.4417 132.744 19.4357L131.774 23.3163C132.278 23.4425 132.793 23.472 133.147 23.472V19.472ZM132.259 23.376H132.283V19.376H132.259V23.376ZM132.695 19.4189C132.276 19.3306 132.074 19.1637 131.926 18.922C131.735 18.6118 131.537 18.0039 131.547 16.9063L127.547 16.8697C127.533 18.3881 127.79 19.8322 128.518 21.016C129.287 22.2683 130.466 23.0374 131.871 23.3331L132.695 19.4189ZM131.547 16.888C131.547 16.4369 131.547 15.3917 131.571 13.7734L127.571 13.7146C127.547 15.3603 127.547 16.4271 127.547 16.888H131.547ZM131.571 13.744V11.656H127.571V13.744H131.571ZM129.384 9.66473C128.646 9.73397 127.898 9.77898 127.532 9.80508L127.817 13.7949C128.124 13.773 128.96 13.722 129.757 13.6473L129.384 9.66473ZM129.675 11.8V8.128H125.675V11.8H129.675ZM127.675 10.128C127.933 10.128 128.271 10.1433 128.635 10.1591C128.805 10.1665 128.984 10.1741 129.14 10.178C129.265 10.1811 129.483 10.1857 129.68 10.1678L129.318 6.18421C129.383 6.17828 129.385 6.18287 129.24 6.17925C129.127 6.17641 128.984 6.17049 128.809 6.16289C128.483 6.14873 128.041 6.128 127.675 6.128V10.128ZM131.499 8.176C131.499 7.35735 131.502 6.7907 131.536 6.46537L127.558 6.04663C127.496 6.6333 127.499 7.45865 127.499 8.176H131.499ZM131.546 6.32048C131.592 4.87429 131.777 2.81974 131.926 0.555581L127.935 0.292416C127.796 2.39626 127.597 4.66171 127.548 6.19152L131.546 6.32048ZM130.139 2.41317C131.522 2.26865 132.573 2.4092 133.347 2.71561L134.819 -1.00361C133.289 -1.6092 131.556 -1.75665 129.723 -1.56517L130.139 2.41317ZM132.084 0.79046L132.036 2.25446L136.034 2.38554L136.082 0.921538L132.084 0.79046ZM132.04 2.17042L131.968 3.13042L135.957 3.42958L136.029 2.46958L132.04 2.17042ZM131.964 3.22596C131.953 3.61525 131.927 3.97047 131.89 4.46426C131.854 4.95408 131.81 5.54683 131.773 6.35579L135.769 6.54021C135.803 5.78917 135.844 5.24192 135.879 4.75974C135.915 4.28152 135.949 3.83275 135.962 3.33403L131.964 3.22596ZM131.778 6.27474C131.768 6.39888 131.76 6.47073 131.753 6.54728C131.745 6.62814 131.736 6.71942 131.731 6.83719C131.722 7.02771 131.723 7.28355 131.723 7.768H135.723C135.723 7.22045 135.723 7.09229 135.727 7.01881C135.727 7.00458 135.728 6.99386 135.734 6.93672C135.74 6.87527 135.75 6.77312 135.763 6.62126L131.778 6.27474ZM133.915 9.7587C134.617 9.69081 135.488 9.64668 136.276 9.59585L136.018 5.60415C135.318 5.64932 134.317 5.70118 133.53 5.7773L133.915 9.7587ZM136.27 9.5962L138.214 9.4762L137.968 5.4838L136.024 5.6038L136.27 9.5962ZM136.29 8.35112C136.418 8.61465 136.427 8.88606 136.427 9.496H140.427C140.427 9.04994 140.484 7.83335 139.891 6.60888L136.29 8.35112ZM136.427 9.496C136.427 9.56931 136.414 9.84582 136.388 10.1873C136.375 10.347 136.361 10.5008 136.348 10.6288C136.332 10.7726 136.321 10.833 136.322 10.8318L140.244 11.6162C140.307 11.3007 140.35 10.8301 140.376 10.4967C140.403 10.1422 140.427 9.73468 140.427 9.496H136.427ZM138.263 9.2241L135.887 9.2481L135.927 13.2479L138.303 13.2239L138.263 9.2241Z" fill="black"/>
</svg>
