<svg width="25" height="24" viewBox="0 0 25 24" fill="none" xmlns="http://www.w3.org/2000/svg">
<path fill-rule="evenodd" clip-rule="evenodd" d="M2.85165 11.169L3.32692 15.9217L7.56156 19.4863L13.3077 21.1497L19.2486 18.0605L21.3874 11.6442L19.011 5.70254L11.4066 2.85165L4.03984 6.17858L2.85165 11.169ZM0 11.9547L1.42582 18.7734L7.56156 22.3371L14.2582 23.5261L21.3874 19.4863L24.0014 10.4561L19.9615 2.85165L10.456 0L1.18819 4.27748L0 11.9547ZM6.29182 10.6877L4.7793 9.74206L5.06329 7.94554L6.13865 6.96484L9.4711 7.24884L10.5826 8.47737L11.0432 10.3569L9.18686 10.815L8.91645 9.46293L8.37562 8.65169H7.02354L6.29182 10.6877ZM12.4601 10.296C12.4601 10.296 14.0192 10.8488 14.0543 10.8137C14.0894 10.7786 14.6098 9.82265 14.6098 9.82265L15.4064 9.46161H16.7585L17.4349 10.2949L17.2993 11.3545L18.7591 11.2054L18.8889 9.82265L17.4349 7.70703L14.6098 7.8251L12.7303 8.91216L12.458 10.2949L12.4601 10.296ZM8.10499 13.2031H5.70337L6.2586 14.2434L7.70092 16.9972L10.526 17.528L14.3669 17.328L17.0287 15.4156L17.5695 13.5227L15.4062 13.7931L14.0541 15.4156L11.35 15.6144L9.18665 15.4156L8.10499 13.2031Z" fill="black"/>
</svg>
