<svg width="24" height="24" viewBox="0 0 24 24" fill="none" xmlns="http://www.w3.org/2000/svg">
<path d="M23.1892 12.4158L20.9042 5.50541L14.7992 1L7.15616 1.7789L3.31034 4.40771L0.58415 10.0548L0 19.4503L2.77483 21.2028L8.12984 22.6146L17.7201 21.8844L24 19.1096L23.1892 12.4158ZM6.25554 11.456L6.57715 10.6903L8.4949 11.5L8.20551 12.358L6.85473 12.5269L6.25554 11.456ZM16.3898 15.6929L14.142 17.435L11.4645 17.7723L8.54356 16.6763L7.71598 15.5803V14.8009L10.004 14L14.7748 14.1049L16.4604 14.9183L16.3898 15.6929ZM16.9991 12.5269L15.6484 12.3581L15.359 11.5L17.2767 10.6904L17.5983 11.456L16.9991 12.5269Z" fill="black"/>
</svg>
