<svg width="71" height="20" viewBox="0 0 71 20" fill="none" xmlns="http://www.w3.org/2000/svg">
<path d="M12.3349 17.375C11.4049 17.03 10.3849 16.445 9.43989 15.29C8.67489 14.375 8.01489 12.71 7.81989 11.975C7.57989 13.175 7.41489 14.63 7.38489 15.23L4.99989 14.645C5.17989 13.79 5.73489 11.225 6.30489 7.91001C6.37989 7.40001 6.70989 5.87001 6.79989 5.25501L5.65989 5.52501C5.64489 5.27001 5.64489 5.00001 5.64489 4.73001C5.64489 3.92001 5.68989 3.18501 5.68989 3.18501C6.58989 2.99001 6.87489 2.99001 7.17489 2.97501L7.29489 2.12001L9.87489 2.00001L9.63489 2.90001C11.5999 3.06501 12.6799 4.28001 12.6799 5.90001C12.6799 7.16001 12.1099 8.30001 11.2549 9.11001V9.09501C10.7449 9.59001 10.1449 9.92001 9.37989 10.085C9.75489 11.135 10.2499 12.185 10.8649 13.025C11.5849 14 12.4999 14.705 13.5499 15.32L12.3349 17.375ZM9.43989 7.50501C9.70989 7.22001 10.0999 6.80001 10.0999 5.94501C10.0999 5.36001 9.76989 5.06001 9.25989 5.03001H9.22989C9.04989 6.06501 8.79489 7.37001 8.67489 7.94001V7.97001C8.89989 7.86501 9.19989 7.71501 9.43989 7.49001V7.50501Z" fill="white"/>
<path d="M20.9294 12.89C19.6844 13.145 16.6844 13.835 14.8544 14.645L14.7494 9.93501C14.4344 9.95001 13.8344 10.055 13.8344 10.055L13.8194 7.88001C13.9694 7.88001 14.5694 7.79001 14.7044 7.77501C14.6894 6.44001 14.6444 4.80501 14.6294 3.59001C14.9144 3.60501 16.0244 3.56001 16.3244 3.56001C16.5794 3.56001 18.4544 3.45501 20.6144 3.32001C20.8394 3.90501 20.7944 4.25001 20.7944 4.49001C20.7944 4.67001 20.7944 4.80501 20.6744 5.45001C19.4594 5.55501 19.2794 5.55501 19.1294 5.57001C18.4694 5.61501 18.3194 5.64501 17.2244 5.69001C17.2244 6.29001 17.2244 6.90501 17.2394 7.49001C18.1244 7.37001 19.5794 7.19001 20.3744 7.02501C20.5244 7.55001 20.6294 8.37501 20.5244 9.15501C18.5444 9.51501 18.3194 9.57501 17.2844 9.69501L17.3294 11.375C18.2594 11.12 19.5494 10.835 20.7944 10.64C20.9894 11.345 20.9744 12.425 20.9294 12.89Z" fill="white"/>
<path d="M29.7517 6.03501C29.7517 6.89001 29.3617 8.07501 28.7917 8.97501C28.2217 9.83001 27.5017 10.265 26.5867 10.7C26.1217 10.91 25.5367 11.03 24.8317 11.045C24.9367 12.53 25.0867 13.94 25.1617 15.35C24.0217 15.62 23.1367 15.68 22.4617 15.47C22.5217 14.48 22.4917 14.015 22.4917 13.445C22.4917 13.115 22.4017 10.67 22.2367 5.67501L21.6817 5.82501L21.5317 3.69501C22.3717 3.47001 24.4717 2.94501 25.6417 2.94501C27.5617 2.94501 28.8217 3.51501 29.4067 4.65501C29.6467 5.09001 29.7517 5.55501 29.7517 6.03501ZM27.1717 6.32001C27.1717 5.85501 27.0367 5.52501 26.7517 5.34501C26.3617 5.13501 25.8967 5.15001 25.3567 5.13501C25.1917 5.13501 24.9367 5.16501 24.5917 5.22501C24.6367 6.57501 24.6967 7.70001 24.7567 9.02001C25.3567 9.02001 25.8517 8.85501 26.2267 8.51001C26.6167 8.19501 27.1567 7.17501 27.1717 6.32001Z" fill="white"/>
<path d="M40.7493 8.61501C40.7493 8.88501 40.7193 9.24501 40.6593 9.60501V9.59001C40.4043 11.48 39.7293 12.965 38.6493 14.045C37.7043 15.005 36.5643 15.485 35.1993 15.485C34.1943 15.485 33.2193 15.155 32.4693 14.615C30.8343 13.37 30.2943 10.895 30.2943 9.11001C30.2943 6.24501 31.6143 4.31001 34.2243 3.32001H34.2093C34.7043 3.12501 35.2293 3.05001 35.7543 3.05001C37.1343 3.05001 38.3343 3.62001 39.2643 4.62501C40.1793 5.69001 40.7493 7.11501 40.7493 8.61501ZM37.9593 8.58501C37.9593 7.56501 37.7493 6.74001 37.3293 6.15501C36.9393 5.57001 36.4893 5.30001 36.0393 5.30001C35.8743 5.30001 35.6643 5.33001 35.4093 5.43501L35.4243 5.42001C33.9093 6.00501 32.9943 7.29501 32.9943 9.14001C32.9943 10.625 33.2193 12.035 34.2243 12.83C34.5993 13.13 35.0193 13.25 35.4093 13.25C35.9043 13.25 36.3543 12.98 36.8043 12.455C37.3293 11.825 37.6893 10.805 37.8993 9.45501V9.47001C37.9293 9.14001 37.9593 8.82501 37.9593 8.58501Z" fill="white"/>
<path d="M48.1024 17.375C47.1724 17.03 46.1524 16.445 45.2074 15.29C44.4424 14.375 43.7824 12.71 43.5874 11.975C43.3474 13.175 43.1824 14.63 43.1524 15.23L40.7674 14.645C40.9474 13.79 41.5024 11.225 42.0724 7.91001C42.1474 7.40001 42.4774 5.87001 42.5674 5.25501L41.4274 5.52501C41.4124 5.27001 41.4124 5.00001 41.4124 4.73001C41.4124 3.92001 41.4574 3.18501 41.4574 3.18501C42.3574 2.99001 42.6424 2.99001 42.9424 2.97501L43.0624 2.12001L45.6424 2.00001L45.4024 2.90001C47.3674 3.06501 48.4474 4.28001 48.4474 5.90001C48.4474 7.16001 47.8774 8.30001 47.0224 9.11001V9.09501C46.5124 9.59001 45.9124 9.92001 45.1474 10.085C45.5224 11.135 46.0174 12.185 46.6324 13.025C47.3524 14 48.2674 14.705 49.3174 15.32L48.1024 17.375ZM45.2074 7.50501C45.4774 7.22001 45.8674 6.80001 45.8674 5.94501C45.8674 5.36001 45.5374 5.06001 45.0274 5.03001H44.9974C44.8174 6.06501 44.5624 7.37001 44.4424 7.94001V7.97001C44.6674 7.86501 44.9674 7.71501 45.2074 7.49001V7.50501Z" fill="white"/>
<path d="M58.2943 3.98001C58.3993 4.37001 58.3843 6.00501 58.2943 6.62001L56.8693 6.45501L54.8744 6.42501C54.7994 7.11501 54.8444 8.46501 54.8294 9.51501C54.8144 10.235 54.8893 10.97 54.9943 13.175L55.0544 13.955C54.5744 14.27 53.6594 14.33 52.2494 14.255L52.1893 13.22L52.3543 9.35001L52.4743 6.39501C51.8593 6.35001 51.2444 6.35001 50.5094 6.41001L49.3393 6.62001C49.2493 6.17001 49.2494 5.46501 49.2494 5.24001C49.2494 5.15001 49.3693 4.40001 49.4743 4.05501L50.4193 4.17501C51.3643 4.19001 52.1143 4.16001 53.7943 4.17501C54.9943 4.19001 56.9743 4.05501 56.9743 4.05501L58.2943 3.98001Z" fill="white"/>
<path d="M66.4017 11.465C66.4017 12.275 66.2217 13.055 65.8767 13.76L65.8917 13.745C65.5917 14.39 65.1417 14.915 64.4817 15.41C63.8967 15.845 63.2217 16.07 62.4267 16.07C61.6017 16.07 60.8817 15.845 60.2067 15.365H60.2217C59.8767 15.14 58.9317 13.82 58.9917 12.485C58.9917 12.32 59.0217 11.765 59.0217 11.6C59.9517 11.3 60.7767 11.27 61.5417 11.51L61.5117 12.395C61.4817 12.83 61.5117 13.4 61.5267 13.46C61.6317 13.79 62.1567 13.835 62.2617 13.85C62.4267 13.865 62.6817 13.685 63.0117 13.34C63.2517 13.1 63.3567 12.905 63.5367 12.53C63.6417 12.275 63.7167 11.915 63.7167 11.465C63.7167 11.21 63.6567 10.835 63.6117 10.775C63.4017 10.505 62.9967 10.415 62.3817 10.31C61.4067 10.175 60.4167 9.89001 59.8467 9.17001C59.5017 8.73501 59.3667 8.33001 59.3067 7.92501C59.2767 7.64001 59.2767 7.29501 59.2767 6.93501V6.69501C59.2767 5.70501 59.3817 4.44501 60.0867 3.62001C60.7767 2.85501 61.7217 2.61501 62.7417 2.67501C63.9417 2.78001 64.7817 3.09501 65.1567 3.56001L65.1417 3.54501C65.5467 4.04001 65.7717 4.58001 65.8167 5.18001V6.77001L63.3117 6.74001V5.27001C63.2967 5.15001 63.2817 5.03001 63.2667 5.01501C63.0417 4.85001 62.7717 4.83501 62.6367 4.83501C62.4117 4.83501 62.2167 4.95501 62.0067 5.19501C61.8267 5.40501 61.7667 6.05001 61.7667 6.57501C61.7667 6.86001 61.8117 7.20501 61.9017 7.50501C62.0067 7.88001 62.2917 8.06001 62.7117 8.12001C64.2267 8.34501 65.3067 8.78001 65.7717 9.35001C66.1617 9.84501 66.4017 10.55 66.4017 11.465Z" fill="white"/>
</svg>
