<svg width="83" height="20" viewBox="0 0 83 20" fill="none" xmlns="http://www.w3.org/2000/svg">
<path d="M5.22367 7.5C5.50867 8.37 5.83867 9.27 6.55867 11.22C6.69367 11.58 6.91867 12.315 6.94867 12.66C7.26367 14.865 6.61867 17.16 4.36867 17.505C4.09867 17.55 3.81367 17.58 3.48367 17.565C2.79367 17.52 2.22367 17.355 1.77367 17.04C1.57867 16.935 0.918672 15.525 0.918672 14.61C1.69867 14.37 2.98867 14.22 2.98867 14.22C3.03367 14.94 3.39367 15.315 3.39367 15.315C3.57367 15.405 3.99367 15.465 4.15867 15.39C4.62367 15.18 4.56367 14.295 4.39867 13.11C4.33867 12.6 4.15867 12 3.90367 11.265C3.70867 10.695 3.51367 10.17 3.31867 9.63C3.13867 9.18 3.06367 8.985 2.76367 8.085L0.768672 8.565C0.498672 7.935 0.333672 7.23 0.258672 6.465L1.42867 6.195L6.78367 5.07C7.12867 5.73 7.29367 6.405 7.24867 7.155L5.22367 7.5ZM8.14457 15.72C8.05457 15.195 8.24957 13.5 8.48957 13.05C8.48957 13.05 9.62957 13.5 10.4246 13.32C10.8446 13.245 11.0546 12.27 11.0546 11.4C11.0546 10.89 10.9646 10.26 10.8146 9.495C10.6946 8.91 10.7246 8.955 10.5896 8.385C10.4846 7.92 10.4396 7.71 10.2746 6.78L8.05457 6.93C7.87457 6.27 7.79957 5.55 7.82957 4.785L9.02957 4.695L14.2496 4.23C14.5046 4.935 14.5646 5.64 14.4296 6.375L12.5396 6.555C12.8546 7.44 13.0946 8.235 13.5296 10.275C13.6196 10.65 13.6496 10.995 13.6496 11.34C13.6496 12.525 13.2146 13.59 12.3746 14.565C11.5496 15.48 10.5596 15.87 9.22457 15.87C8.95457 15.87 8.42957 15.795 8.14457 15.72ZM24.0945 15.15C23.8245 15.315 23.1795 15.555 22.7745 15.525C22.4295 15.525 22.0095 15.465 21.6495 15.42C21.5745 15.15 21.2895 14.16 21.1695 13.68C21.0195 13.11 20.8245 12.66 20.7045 12.33C20.1945 12.36 19.0845 12.375 18.2895 12.375C18.1395 13.275 17.8395 14.505 17.7195 15.39C16.7145 15.435 16.0095 15.33 15.3345 15.03C15.4395 14.235 15.7695 12.9 15.8595 12.27C15.7995 12.27 15.7845 12.225 14.6895 12.255C14.6895 12.015 14.6445 11.55 14.7045 11.145C14.7645 10.815 14.9445 10.38 15.0645 10.14C16.2795 10.155 15.9945 10.14 16.3845 10.14C16.9545 8.4 17.4795 6.12 18.1995 4.095L20.5545 3.93C20.8845 5.07 23.2245 12.285 24.0945 15.15ZM18.7695 10.125C19.0695 10.125 19.8045 10.11 20.1045 10.08C19.9545 9.615 19.5495 8.43 19.4295 7.98C19.2795 8.685 18.9195 9.345 18.7695 10.125ZM32.5552 12.48C32.4352 13.35 32.3152 13.86 31.9552 14.535V14.52C31.5502 15.435 30.6352 16.2 28.7002 16.2C27.5752 16.2 26.5252 15.75 25.9252 15.03C24.6352 13.5 24.4552 11.25 24.4552 9.705C24.4552 7.41 25.7452 4.185 28.8502 4.185C30.9202 4.185 32.3302 5.7 32.4802 7.545L32.5552 8.655C31.5202 9.06 30.7252 9.03 29.7952 8.985C29.8852 8.325 29.9152 7.92 29.9002 7.725C29.9002 7.62 29.8852 7.515 29.8852 7.44C29.8852 6.795 29.4352 6.39 28.8502 6.39C27.6352 6.39 27.1252 8.295 27.1252 9.495C27.1252 9.96 27.1252 10.65 27.2002 11.355C27.2452 12 27.3952 12.705 27.6802 13.23C27.9502 13.74 28.3402 14.01 28.7602 14.01C29.1352 14.01 29.4652 13.875 29.6452 13.71C29.8702 13.35 29.9752 12.84 29.9752 11.82L32.5852 11.94L32.5552 12.48ZM40.206 7.23L39.426 7.905H39.441L37.686 9.345H37.701C37.581 9.435 37.236 9.66 36.756 9.96L36.771 9.945L36.546 10.095C37.266 10.86 37.701 11.355 37.911 11.55C38.601 12.27 39.246 12.87 39.816 13.335L41.001 14.325C40.896 14.775 40.776 15.18 40.611 15.495C40.416 15.87 40.116 16.2 39.816 16.44L38.151 14.955C37.626 14.475 36.486 13.185 35.931 12.375C35.901 13.23 35.931 14.625 35.886 15.225C35.871 15.42 35.901 16.14 35.886 16.275C34.971 16.515 34.131 16.455 33.336 16.05L33.396 15.21C33.411 13.545 33.456 11.865 33.471 10.185C33.471 9.75 33.501 9.03 33.561 8.055C33.606 7.065 33.621 4.71 33.621 4.245C34.566 4.02 35.421 4.035 36.171 4.2L35.961 7.635C36.636 7.155 37.626 6.48 38.556 5.625L39.366 4.89C40.146 5.43 40.671 6.03 40.956 6.615L40.206 7.23ZM53.065 12.465C53.065 13.275 52.885 14.055 52.54 14.76L52.555 14.745C52.255 15.39 51.805 15.915 51.145 16.41C50.56 16.845 49.885 17.07 49.09 17.07C48.265 17.07 47.545 16.845 46.87 16.365H46.885C46.54 16.14 45.595 14.82 45.655 13.485C45.655 13.32 45.685 12.765 45.685 12.6C46.615 12.3 47.44 12.27 48.205 12.51L48.175 13.395C48.145 13.83 48.175 14.4 48.19 14.46C48.295 14.79 48.82 14.835 48.925 14.85C49.09 14.865 49.345 14.685 49.675 14.34C49.915 14.1 50.02 13.905 50.2 13.53C50.305 13.275 50.38 12.915 50.38 12.465C50.38 12.21 50.32 11.835 50.275 11.775C50.065 11.505 49.66 11.415 49.045 11.31C48.07 11.175 47.08 10.89 46.51 10.17C46.165 9.735 46.03 9.33 45.97 8.925C45.94 8.64 45.94 8.295 45.94 7.935V7.695C45.94 6.705 46.045 5.445 46.75 4.62C47.44 3.855 48.385 3.615 49.405 3.675C50.605 3.78 51.445 4.095 51.82 4.56L51.805 4.545C52.21 5.04 52.435 5.58 52.48 6.18V7.77L49.975 7.74V6.27C49.96 6.15 49.945 6.03 49.93 6.015C49.705 5.85 49.435 5.835 49.3 5.835C49.075 5.835 48.88 5.955 48.67 6.195C48.49 6.405 48.43 7.05 48.43 7.575C48.43 7.86 48.475 8.205 48.565 8.505C48.67 8.88 48.955 9.06 49.375 9.12C50.89 9.345 51.97 9.78 52.435 10.35C52.825 10.845 53.065 11.55 53.065 12.465ZM60.7899 12.27C60.7899 13.575 60.7599 15.09 60.7599 16.305C60.2799 16.425 59.7849 16.515 59.5449 16.515C59.2899 16.515 58.8249 16.44 58.2099 16.305V15.39L58.2399 12.3H56.7849C56.7999 13.29 56.8449 14.415 56.8599 15.315C56.1399 15.465 55.7649 15.525 55.5249 15.525C55.3149 15.525 54.8199 15.48 54.3249 15.42L54.2349 12.3H53.2449V10.17H54.2199L54.1149 4.035C54.8349 3.87 55.2399 3.825 55.4799 3.825C55.6599 3.825 55.8099 3.825 56.6649 3.99L56.7699 10.155H58.2549C58.2699 7.8 58.3149 5.205 58.3299 2.88C58.9749 2.685 59.3199 2.625 59.5599 2.625C59.7999 2.625 60.1599 2.685 60.8799 2.835L60.8049 10.155C61.3299 10.155 61.9299 10.14 62.2299 10.14V12.24L60.7899 12.27ZM73.2895 9.615C73.2895 9.885 73.2595 10.245 73.1995 10.605V10.59C72.9445 12.48 72.2695 13.965 71.1895 15.045C70.2445 16.005 69.1045 16.485 67.7395 16.485C66.7345 16.485 65.7595 16.155 65.0095 15.615C63.3745 14.37 62.8345 11.895 62.8345 10.11C62.8345 7.245 64.1545 5.31 66.7645 4.32H66.7495C67.2445 4.125 67.7695 4.05 68.2945 4.05C69.6745 4.05 70.8745 4.62 71.8045 5.625C72.7195 6.69 73.2895 8.115 73.2895 9.615ZM70.4995 9.585C70.4995 8.565 70.2895 7.74 69.8695 7.155C69.4795 6.57 69.0295 6.3 68.5795 6.3C68.4145 6.3 68.2045 6.33 67.9495 6.435L67.9645 6.42C66.4495 7.005 65.5345 8.295 65.5345 10.14C65.5345 11.625 65.7595 13.035 66.7645 13.83C67.1395 14.13 67.5595 14.25 67.9495 14.25C68.4445 14.25 68.8945 13.98 69.3445 13.455C69.8695 12.825 70.2295 11.805 70.4395 10.455V10.47C70.4695 10.14 70.4995 9.825 70.4995 9.585ZM82.1923 4.98C82.2973 5.37 82.2823 7.005 82.1923 7.62L80.7673 7.455L78.7723 7.425C78.6973 8.115 78.7423 9.465 78.7273 10.515C78.7123 11.235 78.7873 11.97 78.8923 14.175L78.9523 14.955C78.4723 15.27 77.5573 15.33 76.1473 15.255L76.0873 14.22L76.2523 10.35L76.3723 7.395C75.7573 7.35 75.1423 7.35 74.4073 7.41L73.2373 7.62C73.1473 7.17 73.1473 6.465 73.1473 6.24C73.1473 6.15 73.2673 5.4 73.3723 5.055L74.3173 5.175C75.2623 5.19 76.0123 5.16 77.6923 5.175C78.8923 5.19 80.8723 5.055 80.8723 5.055L82.1923 4.98Z" fill="white"/>
</svg>
