<svg width="71" height="20" viewBox="0 0 71 20" fill="none" xmlns="http://www.w3.org/2000/svg">
<path d="M25.2034 10.708C25.2034 11.752 25.1792 13.972 25.1792 14.944C24.7952 15.04 24.3992 15.112 24.2072 15.112C24.0032 15.112 23.6312 15.052 23.1392 14.944V14.212L23.1634 10.732H21.0118C21.0238 11.524 21.0596 13.432 21.0716 14.152C20.4956 14.272 20.1956 14.32 20.0036 14.32C19.8356 14.32 19.4396 14.284 19.0436 14.236L18.9718 10.732H18.1798V9.02802H18.9598L18.8756 5.12802C19.4516 4.99602 19.7756 4.96002 19.9676 4.96002C20.1116 4.96002 20.2316 4.96002 20.9156 5.09202L20.9998 9.01602H23.1754C23.1874 7.13202 23.2232 6.06402 23.2352 4.20402C23.7512 4.04802 24.0272 4.00002 24.2192 4.00002C24.4112 4.00002 24.6992 4.04802 25.2752 4.16802L25.2154 9.01602C25.6354 9.01602 25.7599 9.00402 25.9999 9.00402V10.684L25.2034 10.708Z" fill="#6B75A4"/>
<path d="M35.2031 9.59202C35.2031 9.80802 35.1791 10.096 35.1311 10.384V10.372C34.9271 11.884 34.3871 13.072 33.5231 13.936C32.7671 14.704 31.8551 15.088 30.7631 15.088C29.9591 15.088 29.1791 14.824 28.5791 14.392C27.2711 13.396 26.8391 11.416 26.8391 9.98802C26.8391 7.69602 27.8951 6.14802 29.9831 5.35602H29.9711C30.3671 5.20002 30.7871 5.14002 31.2071 5.14002C32.3111 5.14002 33.2711 5.59602 34.0151 6.40002C34.7471 7.25202 35.2031 8.39202 35.2031 9.59202ZM32.9711 9.56802C32.9711 8.75202 32.8031 8.09202 32.4671 7.62402C32.1551 7.15602 31.7951 6.94002 31.4351 6.94002C31.3031 6.94002 31.1351 6.96402 30.9311 7.04802L30.9431 7.03602C29.7311 7.50402 28.9991 8.53602 28.9991 10.012C28.9991 11.2 29.1791 12.328 29.9831 12.964C30.2831 13.204 30.6191 13.3 30.9311 13.3C31.3271 13.3 31.6871 13.084 32.0471 12.664C32.4671 12.16 32.7551 11.344 32.9231 10.264V10.276C32.9471 10.012 32.9711 9.76002 32.9711 9.56802Z" fill="#6B75A4"/>
<path d="M45.1078 14.176C44.7718 14.296 44.3878 14.428 43.9198 14.428C43.6438 14.428 43.2718 14.344 42.8158 14.188V13.456C42.8398 13.252 42.7558 13.012 42.7558 12.784C42.7558 11.44 42.5878 9.42402 42.4558 8.56002C41.8438 9.72402 41.1358 12.124 40.8478 13.012H39.8758L37.9798 9.85602C37.9078 11.38 37.9198 12.52 37.8598 13.936C37.2958 14.008 36.9118 14.044 36.7318 14.044C36.4198 14.044 36.0238 13.96 35.5678 13.792L35.5798 13.084L36.1558 5.68002L37.4158 4.76802L40.0798 9.49602C40.3918 8.38002 41.6998 5.77602 42.2998 4.82802L44.0398 5.41602L44.1118 6.06402C44.1598 6.40002 44.2198 6.78402 44.3038 7.26402L44.4358 8.08002C44.6638 9.64002 44.9758 12.4 45.0718 13.468L45.1078 14.176Z" fill="#6B75A4"/>
<path d="M51.2291 13.012C50.2331 13.216 47.8331 13.768 46.3691 14.416L46.2851 10.648C46.0331 10.66 45.5531 10.744 45.5531 10.744L45.5411 9.00402C45.6611 9.00402 46.1411 8.93202 46.2491 8.92002C46.2371 7.85202 46.2011 6.54402 46.1891 5.57202C46.4171 5.58402 47.3051 5.54802 47.5451 5.54802C47.7491 5.54802 49.2491 5.46402 50.9771 5.35602C51.1571 5.82402 51.1211 6.10002 51.1211 6.29202C51.1211 6.43602 51.1211 6.54402 51.0251 7.06002C50.0531 7.14402 49.9091 7.14402 49.7891 7.15602C49.2611 7.19202 49.1411 7.21602 48.2651 7.25202C48.2651 7.73202 48.2651 8.22402 48.2771 8.69202C48.9851 8.59602 50.1491 8.45202 50.7851 8.32002C50.9051 8.74002 50.9891 9.40002 50.9051 10.024C49.3211 10.312 49.1411 10.36 48.3131 10.456L48.3491 11.8C49.0931 11.596 50.1251 11.368 51.1211 11.212C51.2771 11.776 51.2651 12.64 51.2291 13.012Z" fill="#6B75A4"/>
</svg>
