<svg width="71" height="20" viewBox="0 0 71 20" fill="none" xmlns="http://www.w3.org/2000/svg">
<path d="M23.6695 11.405C23.6695 12.71 23.6393 15.465 23.6393 16.68C23.1593 16.8 22.6643 16.89 22.4243 16.89C22.1693 16.89 21.7043 16.815 21.0893 16.68V15.765L21.1195 11.435H18.5401C18.5551 12.425 18.5999 14.79 18.6149 15.69C17.8949 15.84 17.5199 15.9 17.2799 15.9C17.0699 15.9 16.5749 15.855 16.0799 15.795L15.9901 11.435H15.0001V9.305H15.9751L15.8699 4.41C16.5899 4.245 16.9949 4.2 17.2349 4.2C17.4149 4.2 17.5649 4.2 18.4199 4.365L18.5251 9.29H21.1345C21.1495 6.935 21.1943 5.58 21.2093 3.255C21.8543 3.06 22.1993 3 22.4393 3C22.6793 3 23.0393 3.06 23.7593 3.21L23.6845 9.29C24.2095 9.29 24.2402 9.275 24.5402 9.275V11.375L23.6695 11.405Z" fill="white"/>
<path d="M36.1688 9.99C36.1688 10.26 36.1388 10.62 36.0788 10.98V10.965C35.8238 12.855 35.1488 14.34 34.0688 15.42C33.1238 16.38 31.9838 16.86 30.6188 16.86C29.6138 16.86 28.6388 16.53 27.8888 15.99C26.2538 14.745 25.7138 12.27 25.7138 10.485C25.7138 7.62 27.0338 5.685 29.6438 4.695H29.6288C30.1238 4.5 30.6488 4.425 31.1738 4.425C32.5538 4.425 33.7538 4.995 34.6838 6C35.5988 7.065 36.1688 8.49 36.1688 9.99ZM33.3788 9.96C33.3788 8.94 33.1688 8.115 32.7488 7.53C32.3588 6.945 31.9088 6.675 31.4588 6.675C31.2938 6.675 31.0838 6.705 30.8288 6.81L30.8438 6.795C29.3288 7.38 28.4138 8.67 28.4138 10.515C28.4138 12 28.6388 13.41 29.6438 14.205C30.0188 14.505 30.4388 14.625 30.8288 14.625C31.3238 14.625 31.7738 14.355 32.2238 13.83C32.7488 13.2 33.1088 12.18 33.3188 10.83V10.845C33.3488 10.515 33.3788 10.2 33.3788 9.96Z" fill="white"/>
<path d="M48.5498 15.72C48.1298 15.87 47.6498 16.035 47.0648 16.035C46.7198 16.035 46.2548 15.93 45.6848 15.735V14.82C45.7148 14.565 45.6098 14.265 45.6098 13.98C45.6098 12.3 45.3998 9.78 45.2348 8.7C44.4698 10.155 43.5848 13.155 43.2248 14.265H42.0098L39.6398 10.32C39.5498 12.225 39.5648 13.65 39.4898 15.42C38.7848 15.51 38.3048 15.555 38.0798 15.555C37.6898 15.555 37.1948 15.45 36.6248 15.24L36.6398 14.355L37.3598 5.1L38.9348 3.96L42.2648 9.87C42.6548 8.475 44.2898 5.22 45.0398 4.035L47.2148 4.77L47.3048 5.58C47.3648 6 47.4398 6.48 47.5448 7.08L47.7098 8.1C47.9948 10.05 48.3848 13.5 48.5048 14.835L48.5498 15.72Z" fill="white"/>
<path d="M56.2013 14.265C54.9563 14.52 51.9563 15.21 50.1263 16.02L50.0213 11.31C49.7063 11.325 49.1063 11.43 49.1063 11.43L49.0913 9.255C49.2413 9.255 49.8413 9.165 49.9763 9.15C49.9613 7.815 49.9163 6.18 49.9013 4.965C50.1863 4.98 51.2963 4.935 51.5963 4.935C51.8513 4.935 53.7263 4.83 55.8863 4.695C56.1113 5.28 56.0663 5.625 56.0663 5.865C56.0663 6.045 56.0663 6.18 55.9463 6.825C54.7313 6.93 54.5513 6.93 54.4013 6.945C53.7413 6.99 53.5913 7.02 52.4963 7.065C52.4963 7.665 52.4963 8.28 52.5113 8.865C53.3963 8.745 54.8513 8.565 55.6463 8.4C55.7963 8.925 55.9013 9.75 55.7963 10.53C53.8163 10.89 53.5913 10.95 52.5563 11.07L52.6013 12.75C53.5313 12.495 54.8213 12.21 56.0663 12.015C56.2613 12.72 56.2463 13.8 56.2013 14.265Z" fill="white"/>
</svg>
