<svg width="71" height="20" viewBox="0 0 71 20" fill="none" xmlns="http://www.w3.org/2000/svg">
<path d="M21.0431 7.628C21.0431 8.312 20.7311 9.26 20.2751 9.98C19.8191 10.664 19.2431 11.012 18.5111 11.36C18.1391 11.528 17.6711 11.624 17.1071 11.636C17.1911 12.824 17.3111 13.952 17.3711 15.08C16.4591 15.296 15.7511 15.344 15.2111 15.176C15.2591 14.384 15.2351 14.012 15.2351 13.556C15.2351 13.292 15.1631 11.336 15.0311 7.34L14.5871 7.46L14.4671 5.756C15.1391 5.576 16.8191 5.156 17.7551 5.156C19.2911 5.156 20.2991 5.612 20.7671 6.524C20.9591 6.872 21.0431 7.244 21.0431 7.628ZM18.9791 7.856C18.9791 7.484 18.8711 7.22 18.6431 7.076C18.3311 6.908 17.9591 6.92 17.5271 6.908C17.3951 6.908 17.1911 6.932 16.9151 6.98C16.9511 8.06 16.9991 8.96 17.0471 10.016C17.5271 10.016 17.9231 9.884 18.2231 9.608C18.5351 9.356 18.9671 8.54 18.9791 7.856ZM27.2486 16.7C26.5046 16.424 25.6886 15.956 24.9326 15.032C24.3206 14.3 23.7926 12.968 23.6366 12.38C23.4446 13.34 23.3126 14.504 23.2886 14.984L21.3806 14.516C21.5246 13.832 21.9686 11.78 22.4246 9.128C22.4846 8.72 22.7486 7.496 22.8206 7.004L21.9086 7.22C21.8966 7.016 21.8966 6.8 21.8966 6.584C21.8966 5.936 21.9326 5.348 21.9326 5.348C22.6526 5.192 22.8806 5.192 23.1206 5.18L23.2166 4.496L25.2806 4.4L25.0886 5.12C26.6606 5.252 27.5246 6.224 27.5246 7.52C27.5246 8.528 27.0686 9.44 26.3846 10.088V10.076C25.9766 10.472 25.4966 10.736 24.8846 10.868C25.1846 11.708 25.5806 12.548 26.0726 13.22C26.6486 14 27.3806 14.564 28.2206 15.056L27.2486 16.7ZM24.9326 8.804C25.1486 8.576 25.4606 8.24 25.4606 7.556C25.4606 7.088 25.1966 6.848 24.7886 6.824H24.7646C24.6206 7.652 24.4166 8.696 24.3206 9.152V9.176C24.5006 9.092 24.7406 8.972 24.9326 8.792V8.804ZM35.996 9.692C35.996 9.908 35.972 10.196 35.924 10.484V10.472C35.72 11.984 35.18 13.172 34.316 14.036C33.56 14.804 32.648 15.188 31.556 15.188C30.752 15.188 29.972 14.924 29.372 14.492C28.064 13.496 27.632 11.516 27.632 10.088C27.632 7.796 28.688 6.248 30.776 5.456H30.764C31.16 5.3 31.58 5.24 32 5.24C33.104 5.24 34.064 5.696 34.808 6.5C35.54 7.352 35.996 8.492 35.996 9.692ZM33.764 9.668C33.764 8.852 33.596 8.192 33.26 7.724C32.948 7.256 32.588 7.04 32.228 7.04C32.096 7.04 31.928 7.064 31.724 7.148L31.736 7.136C30.524 7.604 29.792 8.636 29.792 10.112C29.792 11.3 29.972 12.428 30.776 13.064C31.076 13.304 31.412 13.4 31.724 13.4C32.12 13.4 32.48 13.184 32.84 12.764C33.26 12.26 33.548 11.444 33.716 10.364V10.376C33.74 10.112 33.764 9.86 33.764 9.668ZM41.7128 4.892C41.9288 5.552 41.9888 5.9 42.0368 6.62L41.0288 6.788C40.0688 6.98 39.2888 7.124 38.6288 7.244C38.7128 7.808 38.7848 8.312 38.9168 9.104C39.4928 9.056 39.8888 8.948 40.2848 8.876C40.4288 8.852 41.0528 8.672 41.1728 8.648C41.3888 9.02 41.4368 9.296 41.4728 9.428C41.4968 9.596 41.4968 9.908 41.4608 10.388L40.4528 10.592C40.1288 10.652 39.6848 10.736 39.1928 10.796H39.1808C39.3488 11.9 39.5528 13.208 39.7328 14.24C39.0728 14.528 38.9528 14.552 38.8328 14.576C38.6168 14.624 38.3048 14.636 37.7048 14.588L37.2008 11.216L36.5888 11.336L36.2168 9.728L36.9488 9.596L36.4448 6.056C37.1408 5.84 37.8608 5.624 38.4488 5.504C38.5928 5.468 39.5168 5.3 41.1488 5.024L41.7128 4.892ZM42.9865 12.392C42.9505 11.624 42.9385 11 42.9025 10.484C42.9025 10.388 42.8905 10.268 42.8905 10.16C42.8545 9.512 42.6145 6.656 42.5425 5.888C43.2625 5.684 44.3185 5.708 44.7025 5.768C44.7865 6.356 44.7265 6.944 44.7865 7.604C44.8465 8.324 44.8585 9.464 44.9305 10.568C44.9785 11.336 45.0625 13.268 45.1225 14.048L43.0345 14.096L42.9865 12.392ZM51.1358 12.98C51.1838 13.34 51.1358 14.384 50.9558 14.972C50.4158 14.924 50.0678 14.864 49.5398 14.852C49.1078 14.84 48.6278 14.792 48.2078 14.792C47.5718 14.768 47.0798 14.756 46.6478 14.672L45.9278 14.54L45.9998 13.712C46.2158 11.936 46.3358 10.676 46.3838 9.92L46.5758 5.756C47.0678 5.624 47.3558 5.588 47.5358 5.588C47.7638 5.588 48.1238 5.648 48.6278 5.816L48.6038 6.524L48.4478 10.004C48.4118 10.7 48.3518 11.156 48.1718 12.776C49.1678 12.848 49.5398 12.908 50.5358 12.956L51.1358 12.98ZM57.0494 13.112C56.0534 13.316 53.6534 13.868 52.1894 14.516L52.1054 10.748C51.8534 10.76 51.3734 10.844 51.3734 10.844L51.3614 9.104C51.4814 9.104 51.9614 9.032 52.0694 9.02C52.0574 7.952 52.0214 6.644 52.0094 5.672C52.2374 5.684 53.1254 5.648 53.3654 5.648C53.5694 5.648 55.0694 5.564 56.7974 5.456C56.9774 5.924 56.9414 6.2 56.9414 6.392C56.9414 6.536 56.9414 6.644 56.8454 7.16C55.8734 7.244 55.7294 7.244 55.6094 7.256C55.0814 7.292 54.9614 7.316 54.0854 7.352C54.0854 7.832 54.0854 8.324 54.0974 8.792C54.8054 8.696 55.9694 8.552 56.6054 8.42C56.7254 8.84 56.8094 9.5 56.7254 10.124C55.1414 10.412 54.9614 10.46 54.1334 10.556L54.1694 11.9C54.9134 11.696 55.9454 11.468 56.9414 11.312C57.0974 11.876 57.0854 12.74 57.0494 13.112Z" fill="#6B75A4"/>
</svg>
