<svg width="71" height="20" viewBox="0 0 71 20" fill="none" xmlns="http://www.w3.org/2000/svg">
<path d="M19.554 15.15C19.284 15.315 18.639 15.555 18.234 15.525C17.889 15.525 17.469 15.465 17.109 15.42C17.034 15.15 16.749 14.16 16.629 13.68C16.479 13.11 16.284 12.66 16.164 12.33C15.654 12.36 14.544 12.375 13.749 12.375C13.599 13.275 13.299 14.505 13.179 15.39C12.174 15.435 11.469 15.33 10.794 15.03C10.899 14.235 11.229 12.9 11.319 12.27C11.259 12.27 11.244 12.225 10.149 12.255C10.149 12.015 10.104 11.55 10.164 11.145C10.224 10.815 10.404 10.38 10.524 10.14C11.739 10.155 11.454 10.14 11.844 10.14C12.414 8.4 12.939 6.12 13.659 4.095L16.014 3.93C16.344 5.07 18.684 12.285 19.554 15.15ZM14.229 10.125C14.529 10.125 15.264 10.11 15.564 10.08C15.414 9.615 15.009 8.43 14.889 7.98C14.739 8.685 14.379 9.345 14.229 10.125ZM28.0147 12.48C27.8947 13.35 27.7747 13.86 27.4147 14.535V14.52C27.0097 15.435 26.0947 16.2 24.1597 16.2C23.0347 16.2 21.9847 15.75 21.3847 15.03C20.0947 13.5 19.9147 11.25 19.9147 9.705C19.9147 7.41 21.2047 4.185 24.3097 4.185C26.3797 4.185 27.7897 5.7 27.9397 7.545L28.0147 8.655C26.9797 9.06 26.1847 9.03 25.2547 8.985C25.3447 8.325 25.3747 7.92 25.3597 7.725C25.3597 7.62 25.3447 7.515 25.3447 7.44C25.3447 6.795 24.8947 6.39 24.3097 6.39C23.0947 6.39 22.5847 8.295 22.5847 9.495C22.5847 9.96 22.5847 10.65 22.6597 11.355C22.7047 12 22.8547 12.705 23.1397 13.23C23.4097 13.74 23.7997 14.01 24.2197 14.01C24.5947 14.01 24.9247 13.875 25.1047 13.71C25.3297 13.35 25.4347 12.84 25.4347 11.82L28.0447 11.94L28.0147 12.48ZM37.7055 4.98C37.8105 5.37 37.7955 7.005 37.7055 7.62L36.2805 7.455L34.2855 7.425C34.2105 8.115 34.2555 9.465 34.2405 10.515C34.2255 11.235 34.3005 11.97 34.4055 14.175L34.4655 14.955C33.9855 15.27 33.0705 15.33 31.6605 15.255L31.6005 14.22L31.7655 10.35L31.8855 7.395C31.2705 7.35 30.6555 7.35 29.9205 7.41L28.7505 7.62C28.6605 7.17 28.6605 6.465 28.6605 6.24C28.6605 6.15 28.7805 5.4 28.8855 5.055L29.8305 5.175C30.7755 5.19 31.5255 5.16 33.2055 5.175C34.4055 5.19 36.3855 5.055 36.3855 5.055L37.7055 4.98ZM39.0495 12.99C39.0045 12.03 38.9895 11.25 38.9445 10.605C38.9445 10.485 38.9295 10.335 38.9295 10.2C38.8845 9.39 38.5845 5.82 38.4945 4.86C39.3945 4.605 40.7145 4.635 41.1945 4.71C41.2995 5.445 41.2245 6.18 41.2995 7.005C41.3745 7.905 41.3895 9.33 41.4795 10.71C41.5395 11.67 41.6445 14.085 41.7195 15.06L39.1095 15.12L39.0495 12.99ZM53.0312 9.615C53.0312 9.885 53.0012 10.245 52.9412 10.605V10.59C52.6862 12.48 52.0112 13.965 50.9312 15.045C49.9862 16.005 48.8462 16.485 47.4812 16.485C46.4762 16.485 45.5012 16.155 44.7512 15.615C43.1162 14.37 42.5762 11.895 42.5762 10.11C42.5762 7.245 43.8962 5.31 46.5062 4.32H46.4912C46.9862 4.125 47.5112 4.05 48.0362 4.05C49.4162 4.05 50.6162 4.62 51.5462 5.625C52.4612 6.69 53.0312 8.115 53.0312 9.615ZM50.2412 9.585C50.2412 8.565 50.0312 7.74 49.6112 7.155C49.2212 6.57 48.7712 6.3 48.3212 6.3C48.1562 6.3 47.9462 6.33 47.6912 6.435L47.7062 6.42C46.1912 7.005 45.2762 8.295 45.2762 10.14C45.2762 11.625 45.5012 13.035 46.5062 13.83C46.8812 14.13 47.3012 14.25 47.6912 14.25C48.1862 14.25 48.6362 13.98 49.0862 13.455C49.6112 12.825 49.9712 11.805 50.1812 10.455V10.47C50.2112 10.14 50.2412 9.825 50.2412 9.585ZM59.791 16.8C58.981 15.585 58.006 14.115 56.926 12.36C57.091 13.98 57.271 15.405 57.421 16.5C56.641 16.77 55.786 16.875 54.871 16.8L54.751 15.855L54.766 15.87C54.481 13.74 54.091 10.005 53.626 5.235L55.471 3.96C56.806 6.825 57.976 9.255 58.366 9.975C58.351 9.27 58.351 8.565 58.351 7.86C58.351 6.6 58.381 4.965 58.426 3.705C58.996 3.51 59.326 3.45 59.581 3.45C59.851 3.45 60.301 3.555 60.976 3.735C60.946 4.935 60.916 6.495 60.916 7.665C60.916 10.65 61.006 13.53 61.231 16.44L59.791 16.8Z" fill="white"/>
</svg>
