<svg width="71" height="20" viewBox="0 0 71 20" fill="none" xmlns="http://www.w3.org/2000/svg">
<path d="M22.2916 14.36C22.0756 14.492 21.5596 14.684 21.2356 14.66C20.9596 14.66 20.6236 14.612 20.3356 14.576C20.2756 14.36 20.0476 13.568 19.9516 13.184C19.8316 12.728 19.6756 12.368 19.5796 12.104C19.1716 12.128 18.2836 12.14 17.6476 12.14C17.5276 12.86 17.2876 13.844 17.1916 14.552C16.3876 14.588 15.8236 14.504 15.2836 14.264C15.3676 13.628 15.6316 12.56 15.7036 12.056C15.6556 12.056 15.6436 12.02 14.7676 12.044C14.7676 11.852 14.7316 11.48 14.7796 11.156C14.8276 10.892 14.9716 10.544 15.0676 10.352C16.0396 10.364 15.8116 10.352 16.1236 10.352C16.5796 8.95999 16.9996 7.13599 17.5756 5.51599L19.4596 5.38399C19.7236 6.29599 21.5956 12.068 22.2916 14.36ZM18.0316 10.34C18.2716 10.34 18.8596 10.328 19.0996 10.304C18.9796 9.93199 18.6556 8.98399 18.5596 8.62399C18.4396 9.18799 18.1516 9.71599 18.0316 10.34Z" fill="#6B75A4"/>
<path d="M29.0601 12.224C28.9641 12.92 28.8681 13.328 28.5801 13.868V13.856C28.2561 14.588 27.5241 15.2 25.9761 15.2C25.0761 15.2 24.2361 14.84 23.7561 14.264C22.7241 13.04 22.5801 11.24 22.5801 10.004C22.5801 8.16799 23.6121 5.58799 26.0961 5.58799C27.7521 5.58799 28.8801 6.79999 29.0001 8.27599L29.0601 9.16399C28.2321 9.48799 27.5961 9.46399 26.8521 9.42799C26.9241 8.89999 26.9481 8.57599 26.9361 8.41999C26.9361 8.33599 26.9241 8.25199 26.9241 8.19199C26.9241 7.67599 26.5641 7.35199 26.0961 7.35199C25.1241 7.35199 24.7161 8.87599 24.7161 9.83599C24.7161 10.208 24.7161 10.76 24.7761 11.324C24.8121 11.84 24.9321 12.404 25.1601 12.824C25.3761 13.232 25.6881 13.448 26.0241 13.448C26.3241 13.448 26.5881 13.34 26.7321 13.208C26.9121 12.92 26.9961 12.512 26.9961 11.696L29.0841 11.792L29.0601 12.224Z" fill="#6B75A4"/>
<path d="M37.3644 6.22399C37.4484 6.53599 37.4364 7.84399 37.3644 8.33599L36.2244 8.20399L34.6284 8.17999C34.5684 8.73199 34.6044 9.81199 34.5924 10.652C34.5804 11.228 34.6404 11.816 34.7244 13.58L34.7724 14.204C34.3884 14.456 33.6564 14.504 32.5284 14.444L32.4804 13.616L32.6124 10.52L32.7084 8.15599C32.2164 8.11999 31.7244 8.11999 31.1364 8.16799L30.2004 8.33599C30.1284 7.97599 30.1284 7.41199 30.1284 7.23199C30.1284 7.15999 30.2244 6.55999 30.3084 6.28399L31.0644 6.37999C31.8204 6.39199 32.4204 6.36799 33.7644 6.37999C34.7244 6.39199 36.3084 6.28399 36.3084 6.28399L37.3644 6.22399Z" fill="#6B75A4"/>
<path d="M38.4396 12.632C38.4036 11.864 38.3916 11.24 38.3556 10.724C38.3556 10.628 38.3436 10.508 38.3436 10.4C38.3076 9.75199 38.0676 6.89599 37.9956 6.12799C38.7156 5.92399 39.7716 5.94799 40.1556 6.00799C40.2396 6.59599 40.1796 7.18399 40.2396 7.84399C40.2996 8.56399 40.3116 9.70399 40.3836 10.808C40.4316 11.576 40.5156 13.508 40.5756 14.288L38.4876 14.336L38.4396 12.632Z" fill="#6B75A4"/>
<path d="M49.6249 9.93199C49.6249 10.148 49.6009 10.436 49.5529 10.724V10.712C49.3489 12.224 48.8089 13.412 47.9449 14.276C47.1889 15.044 46.2769 15.428 45.1849 15.428C44.3809 15.428 43.6009 15.164 43.0009 14.732C41.6929 13.736 41.2609 11.756 41.2609 10.328C41.2609 8.03599 42.3169 6.48799 44.4049 5.69599H44.3929C44.7889 5.53999 45.2089 5.47999 45.6289 5.47999C46.7329 5.47999 47.6929 5.93599 48.4369 6.73999C49.1689 7.59199 49.6249 8.73199 49.6249 9.93199ZM47.3929 9.90799C47.3929 9.09199 47.2249 8.43199 46.8889 7.96399C46.5769 7.49599 46.2169 7.27999 45.8569 7.27999C45.7249 7.27999 45.5569 7.30399 45.3529 7.38799L45.3649 7.37599C44.1529 7.84399 43.4209 8.87599 43.4209 10.352C43.4209 11.54 43.6009 12.668 44.4049 13.304C44.7049 13.544 45.0409 13.64 45.3529 13.64C45.7489 13.64 46.1089 13.424 46.4689 13.004C46.8889 12.5 47.1769 11.684 47.3449 10.604V10.616C47.3689 10.352 47.3929 10.1 47.3929 9.90799Z" fill="#6B75A4"/>
<path d="M55.0328 15.68C54.3848 14.708 53.6048 13.532 52.7408 12.128C52.8728 13.424 53.0168 14.564 53.1368 15.44C52.5128 15.656 51.8288 15.74 51.0968 15.68L51.0008 14.924L51.0128 14.936C50.7848 13.232 50.4728 10.244 50.1008 6.42799L51.5768 5.40799C52.6448 7.69999 53.5808 9.64399 53.8928 10.22C53.8808 9.65599 53.8808 9.09199 53.8808 8.52799C53.8808 7.51999 53.9048 6.21199 53.9408 5.20399C54.3968 5.04799 54.6608 4.99999 54.8648 4.99999C55.0808 4.99999 55.4408 5.08399 55.9808 5.22799C55.9568 6.18799 55.9328 7.43599 55.9328 8.37199C55.9328 10.76 56.0048 13.064 56.1848 15.392L55.0328 15.68Z" fill="#6B75A4"/>
</svg>
