<svg width="71" height="20" viewBox="0 0 71 20" fill="none" xmlns="http://www.w3.org/2000/svg">
<path d="M21.0142 16.7C20.2702 16.424 19.4542 15.956 18.6982 15.032C18.0862 14.3 17.5582 12.968 17.4022 12.38C17.2102 13.34 17.0782 14.504 17.0542 14.984L15.1462 14.516C15.2902 13.832 15.7342 11.78 16.1902 9.12801C16.2502 8.72001 16.5142 7.49601 16.5862 7.00401L15.6742 7.22001C15.6622 7.01601 15.6622 6.80001 15.6622 6.58401C15.6622 5.93601 15.6982 5.34801 15.6982 5.34801C16.4182 5.19201 16.6462 5.19201 16.8862 5.18001L16.9822 4.49601L19.0462 4.40001L18.8542 5.12001C20.4262 5.25201 21.2902 6.22401 21.2902 7.52001C21.2902 8.52801 20.8342 9.44001 20.1502 10.088V10.076C19.7422 10.472 19.2622 10.736 18.6502 10.868C18.9502 11.708 19.3462 12.548 19.8382 13.22C20.4142 14 21.1462 14.564 21.9862 15.056L21.0142 16.7ZM18.6982 8.80401C18.9142 8.57601 19.2262 8.24001 19.2262 7.55601C19.2262 7.08801 18.9622 6.84801 18.5542 6.82401H18.5302C18.3862 7.65201 18.1822 8.69601 18.0862 9.15201V9.17601C18.2662 9.09201 18.5062 8.97201 18.6982 8.79201V8.80401ZM27.5298 13.112C26.5338 13.316 24.1338 13.868 22.6698 14.516L22.5858 10.748C22.3338 10.76 21.8538 10.844 21.8538 10.844L21.8418 9.10401C21.9618 9.10401 22.4418 9.03201 22.5498 9.02001C22.5378 7.95201 22.5018 6.64401 22.4898 5.67201C22.7178 5.68401 23.6058 5.64801 23.8458 5.64801C24.0498 5.64801 25.5498 5.56401 27.2778 5.45601C27.4578 5.92401 27.4218 6.20001 27.4218 6.39201C27.4218 6.53601 27.4218 6.64401 27.3258 7.16001C26.3538 7.24401 26.2098 7.24401 26.0898 7.25601C25.5618 7.29201 25.4418 7.31601 24.5658 7.35201C24.5658 7.83201 24.5658 8.32401 24.5778 8.79201C25.2858 8.69601 26.4498 8.55201 27.0858 8.42001C27.2058 8.84001 27.2898 9.50001 27.2058 10.124C25.6218 10.412 25.4418 10.46 24.6138 10.556L24.6498 11.9C25.3938 11.696 26.4258 11.468 27.4218 11.312C27.5778 11.876 27.5658 12.74 27.5298 13.112ZM34.6134 7.62801C34.6134 8.31201 34.3014 9.26001 33.8454 9.98001C33.3894 10.664 32.8134 11.012 32.0814 11.36C31.7094 11.528 31.2414 11.624 30.6774 11.636C30.7614 12.824 30.8814 13.952 30.9414 15.08C30.0294 15.296 29.3214 15.344 28.7814 15.176C28.8294 14.384 28.8054 14.012 28.8054 13.556C28.8054 13.292 28.7334 11.336 28.6014 7.34001L28.1574 7.46001L28.0374 5.75601C28.7094 5.57601 30.3894 5.15601 31.3254 5.15601C32.8614 5.15601 33.8694 5.61201 34.3374 6.52401C34.5294 6.87201 34.6134 7.24401 34.6134 7.62801ZM32.5494 7.85601C32.5494 7.48401 32.4414 7.22001 32.2134 7.07601C31.9014 6.90801 31.5294 6.92001 31.0974 6.90801C30.9654 6.90801 30.7614 6.93201 30.4854 6.98001C30.5214 8.06001 30.5694 8.96001 30.6174 10.016C31.0974 10.016 31.4934 9.88401 31.7934 9.60801C32.1054 9.35601 32.5374 8.54001 32.5494 7.85601ZM43.2499 9.69201C43.2499 9.90801 43.2259 10.196 43.1779 10.484V10.472C42.9739 11.984 42.4339 13.172 41.5699 14.036C40.8139 14.804 39.9019 15.188 38.8099 15.188C38.0059 15.188 37.2259 14.924 36.6259 14.492C35.3179 13.496 34.8859 11.516 34.8859 10.088C34.8859 7.79601 35.9419 6.24801 38.0299 5.45601H38.0179C38.4139 5.30001 38.8339 5.24001 39.2539 5.24001C40.3579 5.24001 41.3179 5.69601 42.0619 6.50001C42.7939 7.35201 43.2499 8.49201 43.2499 9.69201ZM41.0179 9.66801C41.0179 8.85201 40.8499 8.19201 40.5139 7.72401C40.2019 7.25601 39.8419 7.04001 39.4819 7.04001C39.3499 7.04001 39.1819 7.06401 38.9779 7.14801L38.9899 7.13601C37.7779 7.60401 37.0459 8.63601 37.0459 10.112C37.0459 11.3 37.2259 12.428 38.0299 13.064C38.3299 13.304 38.6659 13.4 38.9779 13.4C39.3739 13.4 39.7339 13.184 40.0939 12.764C40.5139 12.26 40.8019 11.444 40.9699 10.364V10.376C40.9939 10.112 41.0179 9.86001 41.0179 9.66801ZM49.1744 16.7C48.4304 16.424 47.6144 15.956 46.8584 15.032C46.2464 14.3 45.7184 12.968 45.5624 12.38C45.3704 13.34 45.2384 14.504 45.2144 14.984L43.3064 14.516C43.4504 13.832 43.8944 11.78 44.3504 9.12801C44.4104 8.72001 44.6744 7.49601 44.7464 7.00401L43.8344 7.22001C43.8224 7.01601 43.8224 6.80001 43.8224 6.58401C43.8224 5.93601 43.8584 5.34801 43.8584 5.34801C44.5784 5.19201 44.8064 5.19201 45.0464 5.18001L45.1424 4.49601L47.2064 4.40001L47.0144 5.12001C48.5864 5.25201 49.4504 6.22401 49.4504 7.52001C49.4504 8.52801 48.9944 9.44001 48.3104 10.088V10.076C47.9024 10.472 47.4224 10.736 46.8104 10.868C47.1104 11.708 47.5064 12.548 47.9984 13.22C48.5744 14 49.3064 14.564 50.1464 15.056L49.1744 16.7ZM46.8584 8.80401C47.0744 8.57601 47.3864 8.24001 47.3864 7.55601C47.3864 7.08801 47.1224 6.84801 46.7144 6.82401H46.6904C46.5464 7.65201 46.3424 8.69601 46.2464 9.15201V9.17601C46.4264 9.09201 46.6664 8.97201 46.8584 8.79201V8.80401ZM56.6066 5.98401C56.6906 6.29601 56.6786 7.60401 56.6066 8.09601L55.4666 7.96401L53.8706 7.94001C53.8106 8.49201 53.8466 9.57201 53.8346 10.412C53.8226 10.988 53.8826 11.576 53.9666 13.34L54.0146 13.964C53.6306 14.216 52.8986 14.264 51.7706 14.204L51.7226 13.376L51.8546 10.28L51.9506 7.91601C51.4586 7.88001 50.9666 7.88001 50.3786 7.92801L49.4426 8.09601C49.3706 7.73601 49.3706 7.17201 49.3706 6.99201C49.3706 6.92001 49.4666 6.32001 49.5506 6.04401L50.3066 6.14001C51.0626 6.15201 51.6626 6.12801 53.0066 6.14001C53.9666 6.15201 55.5506 6.04401 55.5506 6.04401L56.6066 5.98401Z" fill="#6B75A4"/>
</svg>
