<svg width="72" height="20" viewBox="0 0 72 20" fill="none" xmlns="http://www.w3.org/2000/svg">
<path d="M7.85394 8C8.08194 8.696 8.34594 9.416 8.92194 10.976C9.02994 11.264 9.20994 11.852 9.23394 12.128C9.48594 13.892 8.96994 15.728 7.16994 16.004C6.95394 16.04 6.72594 16.064 6.46194 16.052C5.90994 16.016 5.45394 15.884 5.09394 15.632C4.93794 15.548 4.40994 14.42 4.40994 13.688C5.03394 13.496 6.06594 13.376 6.06594 13.376C6.10194 13.952 6.38994 14.252 6.38994 14.252C6.53394 14.324 6.86994 14.372 7.00194 14.312C7.37394 14.144 7.32594 13.436 7.19394 12.488C7.14594 12.08 7.00194 11.6 6.79794 11.012C6.64194 10.556 6.48594 10.136 6.32994 9.704C6.18594 9.344 6.12594 9.188 5.88594 8.468L4.28994 8.852C4.07394 8.348 3.94194 7.784 3.88194 7.172L4.81794 6.956L9.10194 6.056C9.37794 6.584 9.50994 7.124 9.47394 7.724L7.85394 8ZM10.1907 14.576C10.1187 14.156 10.2747 12.8 10.4667 12.44C10.4667 12.44 11.3787 12.8 12.0147 12.656C12.3507 12.596 12.5187 11.816 12.5187 11.12C12.5187 10.712 12.4467 10.208 12.3267 9.596C12.2307 9.128 12.2547 9.164 12.1467 8.708C12.0627 8.336 12.0267 8.168 11.8947 7.424L10.1187 7.544C9.97466 7.016 9.91466 6.44 9.93866 5.828L10.8987 5.756L15.0747 5.384C15.2787 5.948 15.3267 6.512 15.2187 7.1L13.7067 7.244C13.9587 7.952 14.1507 8.588 14.4987 10.22C14.5707 10.52 14.5947 10.796 14.5947 11.072C14.5947 12.02 14.2467 12.872 13.5747 13.652C12.9147 14.384 12.1227 14.696 11.0547 14.696C10.8387 14.696 10.4187 14.636 10.1907 14.576ZM22.9506 14.12C22.7346 14.252 22.2186 14.444 21.8946 14.42C21.6186 14.42 21.2826 14.372 20.9946 14.336C20.9346 14.12 20.7066 13.328 20.6106 12.944C20.4906 12.488 20.3346 12.128 20.2386 11.864C19.8306 11.888 18.9426 11.9 18.3066 11.9C18.1866 12.62 17.9466 13.604 17.8506 14.312C17.0466 14.348 16.4826 14.264 15.9426 14.024C16.0266 13.388 16.2906 12.32 16.3626 11.816C16.3146 11.816 16.3026 11.78 15.4266 11.804C15.4266 11.612 15.3906 11.24 15.4386 10.916C15.4866 10.652 15.6306 10.304 15.7266 10.112C16.6986 10.124 16.4706 10.112 16.7826 10.112C17.2386 8.72 17.6586 6.896 18.2346 5.276L20.1186 5.144C20.3826 6.056 22.2546 11.828 22.9506 14.12ZM18.6906 10.1C18.9306 10.1 19.5186 10.088 19.7586 10.064C19.6386 9.692 19.3146 8.744 19.2186 8.384C19.0986 8.948 18.8106 9.476 18.6906 10.1ZM29.7192 11.984C29.6232 12.68 29.5272 13.088 29.2392 13.628V13.616C28.9152 14.348 28.1832 14.96 26.6352 14.96C25.7352 14.96 24.8952 14.6 24.4152 14.024C23.3832 12.8 23.2392 11 23.2392 9.764C23.2392 7.928 24.2712 5.348 26.7552 5.348C28.4112 5.348 29.5392 6.56 29.6592 8.036L29.7192 8.924C28.8912 9.248 28.2552 9.224 27.5112 9.188C27.5832 8.66 27.6072 8.336 27.5952 8.18C27.5952 8.096 27.5832 8.012 27.5832 7.952C27.5832 7.436 27.2232 7.112 26.7552 7.112C25.7832 7.112 25.3752 8.636 25.3752 9.596C25.3752 9.968 25.3752 10.52 25.4352 11.084C25.4712 11.6 25.5912 12.164 25.8192 12.584C26.0352 12.992 26.3472 13.208 26.6832 13.208C26.9832 13.208 27.2472 13.1 27.3912 12.968C27.5712 12.68 27.6552 12.272 27.6552 11.456L29.7432 11.552L29.7192 11.984ZM35.8398 7.784L35.2158 8.324H35.2278L33.8238 9.476H33.8358C33.7398 9.548 33.4638 9.728 33.0798 9.968L33.0918 9.956L32.9118 10.076C33.4878 10.688 33.8358 11.084 34.0038 11.24C34.5558 11.816 35.0718 12.296 35.5278 12.668L36.4758 13.46C36.3918 13.82 36.2958 14.144 36.1638 14.396C36.0078 14.696 35.7678 14.96 35.5278 15.152L34.1958 13.964C33.7758 13.58 32.8638 12.548 32.4198 11.9C32.3958 12.584 32.4198 13.7 32.3838 14.18C32.3718 14.336 32.3958 14.912 32.3838 15.02C31.6518 15.212 30.9798 15.164 30.3438 14.84L30.3918 14.168C30.4038 12.836 30.4398 11.492 30.4518 10.148C30.4518 9.8 30.4758 9.224 30.5238 8.444C30.5598 7.652 30.5718 5.768 30.5718 5.396C31.3278 5.216 32.0118 5.228 32.6118 5.36L32.4438 8.108C32.9838 7.724 33.7758 7.184 34.5198 6.5L35.1678 5.912C35.7918 6.344 36.2118 6.824 36.4398 7.292L35.8398 7.784ZM46.127 11.972C46.127 12.62 45.983 13.244 45.707 13.808L45.719 13.796C45.479 14.312 45.119 14.732 44.591 15.128C44.123 15.476 43.583 15.656 42.947 15.656C42.287 15.656 41.711 15.476 41.171 15.092H41.183C40.907 14.912 40.151 13.856 40.199 12.788C40.199 12.656 40.223 12.212 40.223 12.08C40.967 11.84 41.627 11.816 42.239 12.008L42.215 12.716C42.191 13.064 42.215 13.52 42.227 13.568C42.311 13.832 42.731 13.868 42.815 13.88C42.947 13.892 43.151 13.748 43.415 13.472C43.607 13.28 43.691 13.124 43.835 12.824C43.919 12.62 43.979 12.332 43.979 11.972C43.979 11.768 43.931 11.468 43.895 11.42C43.727 11.204 43.403 11.132 42.911 11.048C42.131 10.94 41.339 10.712 40.883 10.136C40.607 9.788 40.499 9.464 40.451 9.14C40.427 8.912 40.427 8.636 40.427 8.348V8.156C40.427 7.364 40.511 6.356 41.075 5.696C41.627 5.084 42.383 4.892 43.199 4.94C44.159 5.024 44.831 5.276 45.131 5.648L45.119 5.636C45.443 6.032 45.623 6.464 45.659 6.944V8.216L43.655 8.192V7.016C43.643 6.92 43.631 6.824 43.619 6.812C43.439 6.68 43.223 6.668 43.115 6.668C42.935 6.668 42.779 6.764 42.611 6.956C42.467 7.124 42.419 7.64 42.419 8.06C42.419 8.288 42.455 8.564 42.527 8.804C42.611 9.104 42.839 9.248 43.175 9.296C44.387 9.476 45.251 9.824 45.623 10.28C45.935 10.676 46.127 11.24 46.127 11.972ZM52.3069 11.816C52.3069 12.86 52.2829 14.072 52.2829 15.044C51.8989 15.14 51.5029 15.212 51.3109 15.212C51.1069 15.212 50.7349 15.152 50.2429 15.044V14.312L50.2669 11.84H49.1029C49.1149 12.632 49.1509 13.532 49.1629 14.252C48.5869 14.372 48.2869 14.42 48.0949 14.42C47.9269 14.42 47.5309 14.384 47.1349 14.336L47.0629 11.84H46.2709V10.136H47.0509L46.9669 5.228C47.5429 5.096 47.8669 5.06 48.0589 5.06C48.2029 5.06 48.3229 5.06 49.0069 5.192L49.0909 10.124H50.2789C50.2909 8.24 50.3269 6.164 50.3389 4.304C50.8549 4.148 51.1309 4.1 51.3229 4.1C51.5149 4.1 51.8029 4.148 52.3789 4.268L52.3189 10.124C52.7389 10.124 53.2189 10.112 53.4589 10.112V11.792L52.3069 11.816ZM62.3066 9.692C62.3066 9.908 62.2826 10.196 62.2346 10.484V10.472C62.0306 11.984 61.4906 13.172 60.6266 14.036C59.8706 14.804 58.9586 15.188 57.8666 15.188C57.0626 15.188 56.2826 14.924 55.6826 14.492C54.3746 13.496 53.9426 11.516 53.9426 10.088C53.9426 7.796 54.9986 6.248 57.0866 5.456H57.0746C57.4706 5.3 57.8906 5.24 58.3106 5.24C59.4146 5.24 60.3746 5.696 61.1186 6.5C61.8506 7.352 62.3066 8.492 62.3066 9.692ZM60.0746 9.668C60.0746 8.852 59.9066 8.192 59.5706 7.724C59.2586 7.256 58.8986 7.04 58.5386 7.04C58.4066 7.04 58.2386 7.064 58.0346 7.148L58.0466 7.136C56.8346 7.604 56.1026 8.636 56.1026 10.112C56.1026 11.3 56.2826 12.428 57.0866 13.064C57.3866 13.304 57.7226 13.4 58.0346 13.4C58.4306 13.4 58.7906 13.184 59.1506 12.764C59.5706 12.26 59.8586 11.444 60.0266 10.364V10.376C60.0506 10.112 60.0746 9.86 60.0746 9.668ZM69.4288 5.984C69.5128 6.296 69.5008 7.604 69.4288 8.096L68.2888 7.964L66.6928 7.94C66.6328 8.492 66.6688 9.572 66.6568 10.412C66.6448 10.988 66.7048 11.576 66.7888 13.34L66.8368 13.964C66.4528 14.216 65.7208 14.264 64.5928 14.204L64.5448 13.376L64.6768 10.28L64.7728 7.916C64.2808 7.88 63.7888 7.88 63.2008 7.928L62.2648 8.096C62.1928 7.736 62.1928 7.172 62.1928 6.992C62.1928 6.92 62.2888 6.32 62.3728 6.044L63.1288 6.14C63.8848 6.152 64.4848 6.128 65.8288 6.14C66.7888 6.152 68.3728 6.044 68.3728 6.044L69.4288 5.984Z" fill="#6B75A4"/>
</svg>
