<svg width="71" height="20" viewBox="0 0 71 20" fill="none" xmlns="http://www.w3.org/2000/svg">
<path d="M17.3038 7.035C17.3038 7.89 16.9138 9.075 16.3438 9.975C15.7738 10.83 15.0538 11.265 14.1388 11.7C13.6738 11.91 13.0888 12.03 12.3838 12.045C12.4888 13.53 12.6388 14.94 12.7138 16.35C11.5738 16.62 10.6888 16.68 10.0138 16.47C10.0738 15.48 10.0438 15.015 10.0438 14.445C10.0438 14.115 9.95385 11.67 9.78885 6.675L9.23385 6.825L9.08385 4.695C9.92385 4.47 12.0238 3.945 13.1938 3.945C15.1138 3.945 16.3738 4.515 16.9588 5.655C17.1988 6.09 17.3038 6.555 17.3038 7.035ZM14.7238 7.32C14.7238 6.855 14.5888 6.525 14.3038 6.345C13.9138 6.135 13.4488 6.15 12.9088 6.135C12.7438 6.135 12.4888 6.165 12.1438 6.225C12.1888 7.575 12.2488 8.7 12.3088 10.02C12.9088 10.02 13.4038 9.855 13.7788 9.51C14.1688 9.195 14.7088 8.175 14.7238 7.32ZM25.0607 18.375C24.1307 18.03 23.1107 17.445 22.1657 16.29C21.4007 15.375 20.7407 13.71 20.5457 12.975C20.3057 14.175 20.1407 15.63 20.1107 16.23L17.7257 15.645C17.9057 14.79 18.4607 12.225 19.0307 8.91C19.1057 8.4 19.4357 6.87 19.5257 6.255L18.3857 6.525C18.3707 6.27 18.3707 6 18.3707 5.73C18.3707 4.92 18.4157 4.185 18.4157 4.185C19.3157 3.99 19.6007 3.99 19.9007 3.975L20.0207 3.12L22.6007 3L22.3607 3.9C24.3257 4.065 25.4057 5.28 25.4057 6.9C25.4057 8.16 24.8357 9.3 23.9807 10.11V10.095C23.4707 10.59 22.8707 10.92 22.1057 11.085C22.4807 12.135 22.9757 13.185 23.5907 14.025C24.3107 15 25.2257 15.705 26.2757 16.32L25.0607 18.375ZM22.1657 8.505C22.4357 8.22 22.8257 7.8 22.8257 6.945C22.8257 6.36 22.4957 6.06 21.9857 6.03H21.9557C21.7757 7.065 21.5207 8.37 21.4007 8.94V8.97C21.6257 8.865 21.9257 8.715 22.1657 8.49V8.505ZM35.995 9.615C35.995 9.885 35.965 10.245 35.905 10.605V10.59C35.65 12.48 34.975 13.965 33.895 15.045C32.95 16.005 31.81 16.485 30.445 16.485C29.44 16.485 28.465 16.155 27.715 15.615C26.08 14.37 25.54 11.895 25.54 10.11C25.54 7.245 26.86 5.31 29.47 4.32H29.455C29.95 4.125 30.475 4.05 31 4.05C32.38 4.05 33.58 4.62 34.51 5.625C35.425 6.69 35.995 8.115 35.995 9.615ZM33.205 9.585C33.205 8.565 32.995 7.74 32.575 7.155C32.185 6.57 31.735 6.3 31.285 6.3C31.12 6.3 30.91 6.33 30.655 6.435L30.67 6.42C29.155 7.005 28.24 8.295 28.24 10.14C28.24 11.625 28.465 13.035 29.47 13.83C29.845 14.13 30.265 14.25 30.655 14.25C31.15 14.25 31.6 13.98 32.05 13.455C32.575 12.825 32.935 11.805 33.145 10.455V10.47C33.175 10.14 33.205 9.825 33.205 9.585ZM43.141 3.615C43.411 4.44 43.486 4.875 43.546 5.775L42.286 5.985C41.086 6.225 40.111 6.405 39.286 6.555C39.391 7.26 39.481 7.89 39.646 8.88C40.366 8.82 40.861 8.685 41.356 8.595C41.536 8.565 42.316 8.34 42.466 8.31C42.736 8.775 42.796 9.12 42.841 9.285C42.871 9.495 42.871 9.885 42.826 10.485L41.566 10.74C41.161 10.815 40.606 10.92 39.991 10.995H39.976C40.186 12.375 40.441 14.01 40.666 15.3C39.841 15.66 39.691 15.69 39.541 15.72C39.271 15.78 38.881 15.795 38.131 15.735L37.501 11.52L36.736 11.67L36.271 9.66L37.186 9.495L36.556 5.07C37.426 4.8 38.326 4.53 39.061 4.38C39.241 4.335 40.396 4.125 42.436 3.78L43.141 3.615ZM44.7331 12.99C44.6881 12.03 44.6731 11.25 44.6281 10.605C44.6281 10.485 44.6131 10.335 44.6131 10.2C44.5681 9.39 44.2681 5.82 44.1781 4.86C45.0781 4.605 46.3981 4.635 46.8781 4.71C46.9831 5.445 46.9081 6.18 46.9831 7.005C47.0581 7.905 47.0731 9.33 47.1631 10.71C47.2231 11.67 47.3281 14.085 47.4031 15.06L44.7931 15.12L44.7331 12.99ZM54.9197 13.725C54.9797 14.175 54.9197 15.48 54.6947 16.215C54.0197 16.155 53.5847 16.08 52.9247 16.065C52.3847 16.05 51.7847 15.99 51.2597 15.99C50.4647 15.96 49.8497 15.945 49.3097 15.84L48.4097 15.675L48.4997 14.64C48.7697 12.42 48.9197 10.845 48.9797 9.9L49.2197 4.695C49.8347 4.53 50.1947 4.485 50.4197 4.485C50.7047 4.485 51.1547 4.56 51.7847 4.77L51.7547 5.655L51.5597 10.005C51.5147 10.875 51.4397 11.445 51.2147 13.47C52.4597 13.56 52.9247 13.635 54.1697 13.695L54.9197 13.725ZM62.3117 13.89C61.0667 14.145 58.0667 14.835 56.2367 15.645L56.1317 10.935C55.8167 10.95 55.2167 11.055 55.2167 11.055L55.2017 8.88C55.3517 8.88 55.9517 8.79 56.0867 8.775C56.0717 7.44 56.0267 5.805 56.0117 4.59C56.2967 4.605 57.4067 4.56 57.7067 4.56C57.9617 4.56 59.8367 4.455 61.9967 4.32C62.2217 4.905 62.1767 5.25 62.1767 5.49C62.1767 5.67 62.1767 5.805 62.0567 6.45C60.8417 6.555 60.6617 6.555 60.5117 6.57C59.8517 6.615 59.7017 6.645 58.6067 6.69C58.6067 7.29 58.6067 7.905 58.6217 8.49C59.5067 8.37 60.9617 8.19 61.7567 8.025C61.9067 8.55 62.0117 9.375 61.9067 10.155C59.9267 10.515 59.7017 10.575 58.6667 10.695L58.7117 12.375C59.6417 12.12 60.9317 11.835 62.1767 11.64C62.3717 12.345 62.3567 13.425 62.3117 13.89Z" fill="white"/>
</svg>
