<svg width="51" height="53" viewBox="0 0 51 53" fill="none" xmlns="http://www.w3.org/2000/svg">
<path d="M13.9664 36.9326C13.665 36.9093 13.3975 36.7317 13.2588 36.4633L11.4234 33.173C11.2468 32.8309 11.3155 32.4134 11.5925 32.1459L12.6601 31.1145L12.274 30.768C12.0986 30.6106 11.9945 30.389 11.9852 30.1535C11.9758 29.918 12.0621 29.6887 12.2245 29.5181L12.2706 29.4697L11.0464 28.7772C10.7085 28.5861 10.5377 28.1945 10.6276 27.8165L12.004 22.0309L11.5916 17.9723C11.5846 17.972 11.5774 17.9714 11.5704 17.9709C11.5018 17.9658 11.434 17.9526 11.3682 17.9315C11.2716 17.9725 11.1665 17.9965 11.0569 18.0002L10.2818 18.0265C10.2504 18.0275 10.2188 18.0269 10.1874 18.0246C10.1362 18.0207 10.0856 18.0125 10.0358 17.9996L8.57148 17.6243C8.30023 17.555 8.07895 17.3593 7.9765 17.0987L7.47528 15.8235C7.45967 15.7837 7.44694 15.7428 7.43744 15.7013L6.62409 12.1902C6.56273 11.9254 6.62832 11.6472 6.8015 11.4377L8.99404 8.78558C9.14891 8.59819 9.37539 8.48381 9.61844 8.47058L24.7687 7.64267C24.7989 7.64108 24.8295 7.64101 24.8599 7.64243C24.8599 7.64243 33.2201 8.06067 33.2273 8.06119C33.3161 8.06782 33.4034 8.08798 33.4863 8.12107L35.0278 8.73756C35.1455 8.78478 35.2516 8.85695 35.3386 8.94924L38.0482 11.8249C38.1597 11.9434 38.2361 12.0906 38.2681 12.2503L39.4186 19.9714C39.4438 20.0949 39.4415 20.2226 39.4125 20.3454L38.6451 26.4438L38.9312 28.7591L40.3669 35.8284C40.4359 36.0886 40.3808 36.3659 40.2178 36.58C40.0547 36.7941 39.8021 36.921 39.5329 36.9236L16.8551 37.1529C16.8306 37.1532 16.8061 37.1525 16.7817 37.1506L13.9664 36.9326Z" fill="black"/>
<path d="M33.1634 8.93065L34.7048 9.54699L37.4144 12.4228L38.5651 20.1437L37.7615 26.3949L38.074 28.9247L39.5251 36.0517L16.8473 36.2809L14.0346 36.0632L12.1991 32.7728L13.9405 31.091L12.8573 30.119L13.6733 29.2609L11.4768 28.0182L12.8873 22.0891L12.3566 16.8643L11.6362 17.1013L11.3122 16.0405L11.0284 17.1286L10.2533 17.1549L8.78895 16.7798L8.28779 15.5043L7.47438 11.9932L9.66685 9.34107L24.8172 8.51309L33.1634 8.93065ZM33.2932 7.19163C33.279 7.19056 33.2648 7.18969 33.2505 7.18897L24.9043 6.77147C24.8435 6.76842 24.7827 6.76857 24.722 6.77191L9.57165 7.59986C9.08567 7.62641 8.63288 7.85488 8.32276 8.23L6.13029 10.8821C5.78402 11.301 5.65282 11.8573 5.77548 12.3868L6.5889 15.8979C6.60814 15.9811 6.63349 16.0627 6.66471 16.1421L7.16587 17.4175C7.37073 17.9388 7.81353 18.33 8.35611 18.4691L9.82048 18.8443C9.91994 18.8697 10.0213 18.8864 10.1235 18.894C10.1863 18.8987 10.2494 18.8999 10.3125 18.8978L10.8085 18.881L11.1225 21.9722L9.78024 27.6146C9.60049 28.3702 9.94211 29.1535 10.6181 29.536L11.1376 29.8299C11.1178 29.9472 11.11 30.0672 11.1148 30.188C11.1279 30.5182 11.2343 30.8349 11.4177 31.1031L10.9877 31.5184C10.4337 32.0534 10.2963 32.8885 10.6496 33.5728L12.4851 36.8632C12.7623 37.4 13.2976 37.7551 13.9 37.8018L16.7127 38.0195L16.7176 38.0199C16.7666 38.0236 16.8158 38.0252 16.8649 38.0247L39.5427 37.7954C40.0808 37.7899 40.5863 37.5364 40.9124 37.1082C41.2384 36.6801 41.3486 36.1254 41.2108 35.6051L39.7902 28.593L39.5307 26.4925L40.2617 20.5467C40.32 20.3011 40.3244 20.0459 40.2744 19.7985L39.1237 12.0776C39.0593 11.7585 38.9068 11.4639 38.6836 11.227L35.9741 8.35115C35.8 8.16648 35.5879 8.02198 35.3522 7.92777L33.8108 7.31143C33.6453 7.24525 33.4708 7.2049 33.2932 7.19163Z" fill="#030302"/>
<path d="M33.1646 8.9307L24.8183 8.51318L9.66795 9.34116L7.6416 11.8635L8.28889 15.5044L8.79008 16.7798L10.2544 17.155L11.0295 17.1287L11.5851 14.9985L11.6373 17.1014L12.3576 16.8644L13.6337 21.7982L12.7796 28.0474L14.6869 29.3594L13.8709 30.2176L14.9541 31.1896L13.7434 32.4848L14.9226 35.2182L16.8485 36.281L39.5262 36.0517L38.0752 28.9248L37.7627 26.395L38.5662 20.1438L37.4156 12.4229L34.706 9.54707L33.1646 8.9307Z" fill="#FFF6DC"/>
<path d="M9.66708 9.34157L7.47461 11.9937L8.28803 15.5048L8.78921 16.7802L10.2536 17.1554L11.0286 17.1291L11.2275 15.7629L11.6364 17.1018L12.3568 16.8648L12.8875 22.0896L11.477 28.0187L13.6736 29.2613L12.8576 30.1195L13.9408 31.0915L12.1994 32.7733L14.0349 36.0636L16.8476 36.2814L14.9252 32.6849L16.1966 30.9486L15.1176 29.9212L15.7314 29.1594L13.7609 27.2021L14.956 21.9809L14.1934 15.862L12.2142 11.0356L9.66708 9.34157Z" fill="#A05217"/>
<path d="M9.99237 11.8488L9.35352 12.5357L9.62717 14.8074L10.2537 17.1554L11.0288 17.1291L11.2277 15.7628L11.6366 17.1017L12.3569 16.8648L11.5474 13.7514L9.99237 11.8488Z" fill="#FEDF86"/>
<path d="M38.0739 28.9246L39.525 36.0515L16.8472 36.2808L14.9248 32.6843L16.1962 30.948L15.1172 29.9206L15.731 29.1588L38.0739 28.9246Z" fill="#F9E8C0"/>
<path d="M38.0732 28.9248L15.7303 29.159L13.7598 27.2017L37.7607 26.395L38.0732 28.9248Z" fill="#EFD8A8"/>
<path d="M38.5642 20.1441L14.9549 21.9808L13.7598 27.2019L37.7607 26.3952L38.5642 20.1441Z" fill="#F9E8C0"/>
<path d="M14.9248 32.6846L16.8472 36.2811L39.525 36.0518L39.012 35.2755L17.3316 35.4817L15.2964 32.1832L14.9248 32.6846Z" fill="#FFFBF0"/>
<path d="M37.4153 12.4231L12.2148 11.0354L34.7057 9.54733L37.4153 12.4231Z" fill="#FFFBF0"/>
<path d="M9.62717 14.8074L9.35352 12.5357L9.99237 11.8488L11.5474 13.7514L10.1898 14.0862L9.62717 14.8074Z" fill="#E2BC72"/>
<path d="M18.1138 14.5299L17.6123 13.3406L28.3343 12.8698L32.8819 12.3787L33.6687 13.5973L28.6703 13.9608L18.1138 14.5299Z" fill="#FFA300"/>
<path d="M18.9054 18.5782L18.6709 17.3559L25.2401 17.1503L34.4364 16.2974L34.6124 17.52L25.4771 18.7522L18.9054 18.5782Z" fill="#FF9100"/>
<path d="M19.2849 23.3063L19.1777 22.1122L29.9832 21.2363L34.9125 21.2678L35.0275 22.3244L30.407 22.7161L19.2849 23.3063Z" fill="#FF8500"/>
<path d="M18.9619 27.413L19.2101 26.0274L27.801 25.7955L34.998 25.327L34.7681 27.0512L27.9278 27.1835L18.9619 27.413Z" fill="#F27900"/>
<path d="M22.9964 32.2304L18.9387 31.6769L18.792 30.3431L22.9095 30.734L27.7782 30.1765L27.7728 31.5593L22.9964 32.2304Z" fill="#FF9100"/>
<path d="M0 53H1V37L0 53Z" fill="black"/>
<path d="M1 37H49V53H1V37Z" fill="black"/>
<path d="M51 53H49V37L51 53Z" fill="black"/>
<path d="M10.8665 45.3922C10.8665 46.4362 10.8425 47.6482 10.8425 48.6202C10.4585 48.7162 10.0625 48.7882 9.87048 48.7882C9.66648 48.7882 9.29448 48.7282 8.80248 48.6202V47.8882L8.82648 45.4162H7.66248C7.67448 46.2082 7.71048 47.1082 7.72248 47.8282C7.14648 47.9482 6.84648 47.9962 6.65448 47.9962C6.48648 47.9962 6.09048 47.9602 5.69448 47.9122L5.62248 45.4162H4.83048V43.7122H5.61048L5.52648 38.8042C6.10248 38.6722 6.42648 38.6362 6.61848 38.6362C6.76248 38.6362 6.88248 38.6362 7.56648 38.7682L7.65048 43.7002H8.83848C8.85048 41.8162 8.88648 39.7402 8.89848 37.8802C9.41448 37.7242 9.69048 37.6762 9.88248 37.6762C10.0745 37.6762 10.3625 37.7242 10.9385 37.8442L10.8785 43.7002C11.2985 43.7002 11.7785 43.6882 12.0185 43.6882V45.3682L10.8665 45.3922ZM15.0341 40.0042C14.9981 40.6282 14.4581 41.0602 13.8341 41.0602C13.2701 41.0602 12.6341 40.6042 12.6341 40.0042C12.6341 39.4042 13.2461 38.9602 13.8341 38.9602C14.4701 38.9602 14.9861 39.4042 15.0341 40.0042ZM15.4061 47.9722C15.4061 47.9722 14.7221 48.1162 14.3741 48.1402C14.2301 48.1402 14.0621 48.1402 13.3781 48.0202C13.3181 46.7842 13.1381 44.3962 12.8981 42.1882C13.5461 41.9842 14.2301 41.9002 14.9261 41.9962L15.0101 42.7522L14.9981 42.7282C15.0341 42.9442 15.0941 43.8322 15.1901 44.9122C15.2381 45.4402 15.3461 46.5802 15.4061 47.9722ZM18.2132 42.9082C18.2492 43.1482 18.5252 43.2322 18.9932 43.3882C20.0492 43.7482 21.3932 44.2162 21.3932 45.9082C21.3932 47.2882 20.2532 48.2482 18.6812 48.2482C16.4372 48.2482 16.0772 47.0122 16.1252 45.2482L18.1532 45.3922C17.9972 45.8962 18.1052 46.2202 18.1292 46.3522C18.1532 46.5082 18.3212 46.7002 18.6212 46.7002C19.0412 46.7002 19.3652 46.3042 19.3652 45.8362C19.3652 45.2482 18.7892 45.0562 18.2252 44.8522C17.1932 44.4922 16.1492 44.1082 16.1372 42.9082C16.1132 41.3122 17.6492 40.7842 18.8972 40.7842C20.0492 40.7842 21.0572 40.8922 21.1292 43.0882L19.6652 43.1962C19.6292 42.5602 19.2692 42.2602 19.0052 42.2482C18.5612 42.2362 18.1892 42.5602 18.2132 42.9082ZM25.7864 43.7002C25.5464 43.7002 25.0424 43.7002 24.7544 43.7122C24.7544 44.1442 24.7304 44.9242 24.7304 45.9562C24.7304 46.3522 24.8144 46.7602 25.0904 46.7602C25.2944 46.7362 25.9064 45.8362 25.9544 45.7162C26.6144 45.8122 27.1184 46.0282 27.5144 46.5202C26.9864 48.0802 25.4864 48.8122 24.4064 48.8122C24.2744 48.8122 24.1064 48.8002 23.9624 48.7642H23.9744C23.0624 48.5722 22.5944 47.8282 22.6064 46.5202C22.6064 46.2922 22.6064 45.7642 22.6184 44.9482V43.9042C22.2344 43.9402 21.8384 43.9642 21.6704 43.9762V42.1402C21.9824 42.1402 22.4504 42.1762 22.5824 42.1642C22.5824 41.7802 22.5824 41.4322 22.6064 41.2042C22.6304 40.4602 22.7264 39.3802 22.7984 38.2882C23.6024 38.2042 24.2984 38.2762 24.8744 38.5042L24.8504 39.2362L24.8144 39.7162C24.8024 40.1602 24.7544 40.5202 24.7184 41.3002C24.6944 41.5762 24.6944 41.4442 24.6944 41.9602C25.0664 41.9242 25.5344 41.9002 25.9064 41.8762L26.8784 41.8162C27.0584 42.1882 27.0464 42.5602 27.0464 42.8242C27.0464 42.9802 27.0104 43.5082 26.9744 43.6882L25.7864 43.7002ZM33.518 44.4682C33.506 45.2002 33.458 45.9442 32.99 46.5802C32.462 47.2642 31.778 47.6362 30.878 47.6362C29.954 47.6362 29.186 47.2642 28.61 46.5322C28.046 45.8362 27.902 45.1282 27.902 44.3242C27.902 42.9322 28.886 41.5282 30.638 41.5282C31.898 41.5282 33.47 42.5002 33.518 44.4682ZM31.61 44.3242C31.478 43.8322 30.962 43.2682 30.494 43.2682C30.026 43.2682 29.822 43.8202 29.822 44.0962C29.822 44.7802 30.302 45.7642 30.89 45.7642C31.454 45.7642 31.694 45.2482 31.694 44.9242C31.694 44.7562 31.658 44.5522 31.61 44.3242ZM39.4895 43.3882L39.5135 44.1682C39.5135 44.1682 38.2655 44.3962 37.6775 44.3962L37.7135 43.5082C37.7135 43.3042 37.6535 43.0642 37.4975 43.1002C37.1975 43.1722 37.0535 43.2562 36.5735 43.7962L36.2855 44.2282C36.2735 44.6962 36.2375 45.2242 36.2615 45.7642C36.2735 46.3282 36.2615 46.4122 36.3575 47.8162L34.1495 47.7802L34.1615 46.8202C34.2335 45.4282 34.2815 44.7082 34.2455 43.0642C34.2335 42.4162 34.2095 42.1042 34.1495 41.4202C34.6175 41.2162 36.1535 41.0362 36.1535 41.0362C36.1775 41.5522 36.2255 42.1642 36.2255 42.1642C36.4895 41.9242 37.1255 41.2282 37.4975 41.1802C38.1215 41.0962 38.5295 41.2642 38.9015 41.6722C39.2495 42.0202 39.5015 42.8722 39.4895 43.3882ZM46.3409 42.5962H46.3529C45.8249 43.7242 44.9969 45.5482 43.5329 49.1962C43.3289 49.7362 43.3049 49.7482 43.0409 50.4082C42.8729 50.8882 42.5129 51.7522 42.2369 52.5082C41.3729 52.4482 40.7729 52.2082 40.4249 51.7402C40.4969 51.5962 40.6289 51.2722 40.6769 51.1642V51.1762C40.9049 50.6482 41.2409 49.7242 41.4689 49.0642C41.8169 48.1882 42.0449 47.6122 42.4049 46.7482C41.7329 46.2682 41.1689 45.6202 40.7489 44.8642C40.2569 43.9882 39.9929 42.7522 39.9809 41.8402C40.5569 41.5042 41.4089 41.6482 42.0689 41.7682C42.1889 42.7402 42.3929 43.5202 42.6689 44.0722C42.8249 44.3962 43.0049 44.7082 43.1729 44.9362C43.7729 43.5562 44.4089 42.1882 44.8769 41.2042C45.6569 41.3002 46.2689 41.5642 46.6409 42.0082L46.3409 42.5962Z" fill="white"/>
</svg>
