<svg width="29" height="30" viewBox="0 0 29 30" fill="none" xmlns="http://www.w3.org/2000/svg">
<path d="M7.87494 26.5762C7.62443 26.5762 7.40161 26.4156 7.32313 26.1769L4.85542 18.6843C4.82456 18.5892 4.81866 18.4878 4.83818 18.39L5.28971 16.1319C4.81187 15.642 4.27684 15.2406 3.66238 14.9101C3.46545 14.8041 3.25625 14.7031 3.04068 14.6103L3.0207 14.6013C2.30643 14.2811 1.97743 13.4423 2.28784 12.7207C2.29784 12.6974 2.31145 12.6719 2.32595 12.6477C2.37404 12.5526 2.43213 12.4641 2.50113 12.3809C2.52019 12.357 2.54379 12.3287 2.56968 12.3017C2.65002 12.2177 2.73622 12.1456 2.82651 12.0866C2.84468 12.073 2.86373 12.0605 2.88278 12.0496C2.89956 12.0401 2.9168 12.0314 2.93408 12.0237C3.14375 11.9121 3.37697 11.8533 3.61387 11.8533C3.80853 11.8533 3.99821 11.8923 4.17795 11.9693C5.1096 12.3709 5.96634 12.9029 6.72694 13.5521C6.75324 13.5682 6.77824 13.5868 6.8018 13.6074C6.86397 13.6614 6.9234 13.7184 6.98284 13.7753L7.12577 13.9096C7.18521 13.9641 7.24422 14.0186 7.30096 14.0757C7.48293 14.2584 7.66035 14.4517 7.82829 14.6502C7.8696 14.699 7.90905 14.7505 7.94901 14.802L8.00482 14.8744C8.11281 15.0099 8.21858 15.1476 8.31974 15.2901L9.49781 15.237C9.34125 15.0625 9.2591 14.9522 9.25138 14.9418C9.15111 14.8061 9.1157 14.6345 9.15157 14.4719L9.08033 14.4501C8.82894 14.3729 8.66058 14.1367 8.67011 13.8742C8.67146 13.8311 8.70821 12.8071 8.80078 11.7473C8.80124 11.7416 8.8525 11.2177 8.8525 11.2177C8.86839 11.0691 8.88428 10.9302 8.90194 10.7968C8.92192 10.6425 8.94144 10.513 8.96184 10.3891L8.97545 10.3115C8.63828 8.69304 8.26207 5.79624 9.28038 3.76143C9.5354 3.25227 10.0741 2.92351 10.6531 2.92351C10.713 2.92351 10.7738 2.9269 10.8346 2.93415C12.0081 3.07299 13.202 3.52067 14.3878 4.26603C15.127 4.02597 15.9284 3.87211 16.7703 3.80813C17.038 3.78814 17.2971 3.7802 17.5513 3.77908C17.5513 3.77908 17.991 3.78294 18.0495 3.78522C18.0836 3.78657 18.1167 3.79089 18.1489 3.7979C18.507 3.81672 18.855 3.85348 19.1877 3.90771C20.25 2.98921 21.365 2.36481 22.5068 2.05008C22.6406 2.01309 22.779 1.99451 22.9179 1.99451C23.4175 1.99451 23.885 2.23363 24.1677 2.63415C25.48 4.49084 25.545 7.40967 25.456 9.06102C25.8672 10.287 26.2765 12.4452 26.2942 12.5394C26.3427 12.7976 26.212 13.0562 25.9752 13.1701L25.908 13.2026C25.9684 13.3582 25.9589 13.5334 25.8799 13.6829C25.8622 13.7165 25.4751 14.4401 24.6261 15.3059L25.2809 17.4891C25.3068 17.5735 25.3127 17.6627 25.2986 17.7498L23.9894 25.8557C23.9445 26.1332 23.7076 26.3388 23.4263 26.344C23.4263 26.344 22.4783 26.3612 22.4746 26.3612C22.4565 26.3612 22.4384 26.3603 22.4207 26.3587C22.4207 26.3587 7.87768 26.5762 7.87494 26.5762Z" fill="black"/>
<path d="M22.9182 2.57546C23.224 2.57546 23.5174 2.7203 23.6933 2.96928C24.8164 4.55878 24.9889 7.15832 24.8695 9.14187C25.2833 10.3149 25.7233 12.647 25.7233 12.647L25.1182 12.9383L25.3662 13.4118C25.3662 13.4118 24.9303 14.2373 23.9343 15.1696L23.9778 15.1676L24.4178 16.6343L24.6864 17.5293L24.7248 17.6571L24.6263 18.2656L23.4934 25.2821L23.4156 25.763L22.4746 25.7803V25.777L8.30197 25.9888L7.87497 25.9952L7.74156 25.5897L5.45559 18.6491L5.40773 18.5036L5.4377 18.3535L5.82344 16.4255L5.91261 15.9796L5.94054 15.9783C5.37669 15.3448 4.71484 14.8165 3.9377 14.3983C3.72376 14.2832 3.50159 14.1761 3.27083 14.0767L3.2699 14.0761C2.83537 13.8888 2.63458 13.3847 2.82175 12.9502C2.82468 12.943 2.83058 12.9382 2.83379 12.9312C2.86488 12.8644 2.90438 12.8048 2.94903 12.7503C2.96218 12.7341 2.97533 12.7178 2.98988 12.7028C3.0416 12.6484 3.0988 12.5999 3.16186 12.5614C3.16502 12.5594 3.16729 12.556 3.17069 12.554L3.17115 12.5565C3.30433 12.4772 3.45749 12.4339 3.61404 12.4339C3.72589 12.4339 3.83937 12.4561 3.94871 12.5029C4.87785 12.9032 5.69788 13.4254 6.4187 14.0529L6.42004 14.045C6.50197 14.1163 6.57841 14.1937 6.65759 14.2678C6.73519 14.3404 6.81507 14.4105 6.88993 14.4858C7.06168 14.6583 7.22641 14.8382 7.38436 15.0251C7.44198 15.0932 7.49486 15.166 7.55044 15.236C7.65982 15.3734 7.76666 15.5131 7.86879 15.6578C7.92121 15.7324 7.9727 15.8082 8.0233 15.8848L10.9024 15.7554C10.1108 15.128 9.71889 14.5969 9.71889 14.5969L9.89268 14.0914L9.25058 13.8946C9.25058 13.8946 9.28734 12.8549 9.37944 11.7976L9.37967 11.796C9.39217 11.6527 9.40597 11.5097 9.42052 11.3683C9.42391 11.3357 9.4273 11.304 9.43097 11.2716C9.44547 11.1352 9.46094 11.0008 9.47772 10.8721L9.48 10.8544C9.497 10.7242 9.51564 10.6017 9.53515 10.4845C9.53994 10.4557 9.54468 10.4279 9.54947 10.4001C9.55537 10.3672 9.5608 10.3324 9.56671 10.3009C9.14988 8.35795 8.92888 5.76203 9.79998 4.02151C9.95811 3.70566 10.2926 3.50436 10.6529 3.50436C10.6905 3.50436 10.7284 3.50655 10.7665 3.51105C12.0535 3.66328 13.2701 4.21621 14.3163 4.91138C14.3878 4.88559 14.4548 4.85562 14.5281 4.83141C15.2101 4.60618 15.9704 4.45144 16.8143 4.38754C17.0677 4.36835 17.313 4.36129 17.5539 4.35999H17.5742C17.6393 4.35994 17.7033 4.36157 17.7677 4.36263C17.8535 4.36403 17.9417 4.36222 18.0259 4.36579L18.027 4.37369C18.4965 4.39405 18.9421 4.44614 19.3623 4.52922C20.2922 3.68438 21.4117 2.95455 22.6609 2.61026C22.7462 2.58675 22.8326 2.57546 22.9182 2.57546ZM22.9182 1.41374C22.727 1.41374 22.5363 1.43953 22.3521 1.49032C21.2013 1.80752 20.0802 2.41365 19.0131 3.29479C18.7545 3.26022 18.4888 3.23522 18.2183 3.22002C18.1716 3.21221 18.1239 3.2072 18.0756 3.2051C18.0073 3.20218 17.937 3.20171 17.8666 3.20153L17.7865 3.20101L17.7387 3.20013C17.6842 3.19911 17.6295 3.19813 17.5742 3.19813L17.548 3.19823C17.2481 3.19981 16.9795 3.20989 16.7264 3.22908C15.9353 3.28898 15.1769 3.42481 14.4675 3.6335C13.2828 2.92606 12.0862 2.49725 10.9029 2.35733C10.8192 2.34743 10.7357 2.3426 10.6529 2.3426C9.8562 2.3426 9.11382 2.79739 8.76122 3.50125C7.68775 5.64605 8.03854 8.60893 8.38459 10.3221C8.36461 10.4429 8.34556 10.5697 8.32809 10.704L8.32628 10.7192L8.32581 10.7217C8.30787 10.8592 8.29133 11.0028 8.2759 11.1485L8.26526 11.2477C8.2503 11.3929 8.23622 11.5381 8.22353 11.6835L8.22219 11.6968C8.12869 12.7715 8.09128 13.8098 8.08966 13.8535C8.08692 13.9311 8.09194 14.0074 8.10416 14.0818C7.97734 13.9391 7.8464 13.7999 7.71345 13.6662C7.65016 13.6026 7.58389 13.5413 7.51717 13.4802L7.45113 13.4194L7.38283 13.3541C7.31726 13.2912 7.25146 13.2286 7.18315 13.169C7.1489 13.1393 7.11326 13.1117 7.07627 13.0865C6.2785 12.4102 5.38157 11.8554 4.40842 11.4361C4.15452 11.3272 3.8877 11.2724 3.61404 11.2723C3.28844 11.2723 2.96715 11.3515 2.67807 11.502C2.6488 11.5157 2.61976 11.5307 2.59164 11.547C2.56237 11.5638 2.53332 11.5824 2.50498 11.6022C2.38588 11.6793 2.262 11.7825 2.14852 11.9019C2.11655 11.935 2.08179 11.9754 2.04847 12.0167C1.95795 12.1269 1.87877 12.2471 1.81409 12.3728C1.7889 12.4168 1.76645 12.4621 1.74829 12.5063C1.31762 13.5054 1.78095 14.6853 2.78769 15.1333L2.81107 15.1437C3.01005 15.2294 3.20405 15.3229 3.38737 15.4216C3.85842 15.675 4.27794 15.9737 4.65824 16.3271L4.29862 18.1257L4.26846 18.2765C4.22919 18.473 4.24146 18.6764 4.30429 18.8668L4.35215 19.0123L6.63812 25.9532L6.7713 26.3584C6.92832 26.8355 7.37395 27.157 7.87469 27.157L7.89217 27.1568L8.31917 27.1505L22.4063 26.94C22.429 26.9414 22.4519 26.9421 22.4748 26.9421L22.4959 26.9419L23.4369 26.9246C23.9987 26.9143 24.4726 26.5034 24.5623 25.9487L24.6401 25.4678L25.7733 18.4509L25.8715 17.8428C25.8996 17.6693 25.888 17.4916 25.8375 17.3233L25.7991 17.1955L25.5305 16.3004L25.2789 15.4616C26.0052 14.6693 26.3496 14.0376 26.3936 13.9542C26.471 13.8075 26.515 13.6484 26.5254 13.4875C26.8043 13.2213 26.9393 12.8262 26.8649 12.4317C26.8474 12.3386 26.4535 10.262 26.0415 8.98263C26.1252 7.23657 26.0251 4.25631 24.642 2.29888C24.2506 1.74465 23.606 1.41374 22.9182 1.41374Z" fill="black" stroke="black" stroke-width="0.6"/>
<path d="M10.6426 21.5284C11.0503 21.6627 11.5029 21.4729 11.6874 21.0739C11.8856 20.6456 11.6999 20.1379 11.2729 19.9382C11.2428 19.9237 9.62826 19.135 8.81846 17.3266C7.81506 15.0859 6.17658 13.4631 3.94846 12.5031C3.51412 12.3169 3.0098 12.5163 2.82258 12.9509C2.63536 13.3855 2.83587 13.8895 3.27044 14.0768C5.11738 14.8726 6.42059 16.1647 7.25451 18.027C8.33807 20.4466 10.4603 21.4503 10.5501 21.4918C10.5805 21.5059 10.6115 21.5181 10.6426 21.5284Z" fill="#E3DFD8"/>
<g style="mix-blend-mode:multiply">
<path d="M3.68694 13.3074C5.53388 14.1032 6.83709 15.3953 7.67101 17.2576C8.75456 19.6772 10.8768 20.6809 10.9666 20.7224C10.997 20.7365 11.0279 20.7487 11.0591 20.759C11.3002 20.8384 11.5567 20.8038 11.7644 20.6802C11.7697 20.8115 11.7454 20.9459 11.6864 21.0733C11.5019 21.4723 11.0493 21.6621 10.6416 21.5278C10.6105 21.5175 10.5796 21.5053 10.5491 21.4912C10.4593 21.4497 8.33709 20.446 7.25354 18.0264C6.41961 16.1641 5.1164 14.872 3.26946 14.0762C2.83489 13.889 2.63438 13.3849 2.8216 12.9503C2.8959 12.7779 3.02058 12.6432 3.17058 12.5542C3.18336 12.8733 3.37397 13.1726 3.68694 13.3074Z" fill="#CBCBCB"/>
</g>
<path d="M8.16833 16.102C7.82223 15.9888 7.23585 15.7318 6.75611 15.1949C6.36712 14.7596 6.35053 14.3413 6.42005 14.0452C7.09649 14.6335 7.68083 15.3192 8.16833 16.102Z" fill="#81806E"/>
<path d="M17.8256 17.7431C23.3299 17.3262 25.3661 13.412 25.3661 13.412L25.118 12.9384L25.7233 12.6472C25.7233 12.6472 25.2248 10.004 24.7897 8.92993C23.8531 6.61803 21.3144 4.04684 16.8141 4.38764C12.3138 4.72844 10.1913 7.65265 9.61359 10.0792C9.34519 11.2066 9.25049 13.8947 9.25049 13.8947L9.89273 14.0915L9.71884 14.597C9.71884 14.597 12.3213 18.1599 17.8256 17.7431Z" fill="#EAE6DE"/>
<path d="M18.0259 4.36598C17.6389 4.34949 17.2351 4.35585 16.8141 4.38773C12.3138 4.72858 10.1912 7.65275 9.61355 10.0793C9.51211 10.5056 9.43544 11.1549 9.37939 11.7978C9.72521 11.828 10.0865 11.8496 10.2434 11.8615C11.6177 11.9659 14.2083 11.4796 16.0378 9.81609C17.342 8.63021 18.3335 6.13578 18.0259 4.36598Z" fill="#787663"/>
<path d="M24.8457 9.48498C25.0061 7.46764 24.8821 4.65216 23.6931 2.96954C23.4679 2.65095 23.0511 2.5029 22.6606 2.61047C21.3632 2.96805 20.2036 3.74012 19.2534 4.62642" fill="#EAE6DE"/>
<path d="M9.6411 10.6364C9.17874 8.6662 8.8773 5.86415 9.79938 4.02167C9.97396 3.67279 10.3638 3.46368 10.766 3.51122C12.1025 3.6693 13.3651 4.25792 14.4379 4.99105" fill="#787663"/>
<path d="M13.2786 5.71515C13.2786 5.71515 12.4256 4.79015 10.9398 4.61092C10.7853 4.59229 10.6353 4.66896 10.5698 4.80316C10.3151 5.32463 9.7645 6.77004 10.1961 8.86632L13.2786 5.71515Z" fill="#535244"/>
<path d="M20.5088 5.16772C20.5088 5.16772 21.2127 4.12478 22.6546 3.72385C22.8045 3.68217 22.9644 3.73538 23.0494 3.85815C23.3797 4.33528 24.1417 5.68129 24.0307 7.8187L20.5088 5.16772Z" fill="#535244"/>
<path d="M18.2696 12.9244C18.3532 12.918 18.4362 12.8836 18.5178 12.8389C18.6897 12.745 18.8312 12.6093 18.9397 12.4509C19.022 12.3309 19.0345 12.1917 18.9122 12.0926C18.7379 11.9514 18.4601 11.9183 18.1949 11.9383C17.9297 11.9584 17.6601 12.0331 17.5091 12.1989C17.4032 12.3152 17.4364 12.451 17.5358 12.5573C17.667 12.6975 17.8273 12.8104 18.0113 12.8773C18.0988 12.9092 18.186 12.9307 18.2696 12.9244Z" fill="black"/>
<path d="M21.1016 12.1312C21.5541 12.1312 21.9209 11.7644 21.9209 11.3119C21.9209 10.8594 21.5541 10.4926 21.1016 10.4926C20.6491 10.4926 20.2822 10.8594 20.2822 11.3119C20.2822 11.7644 20.6491 12.1312 21.1016 12.1312Z" fill="black"/>
<path d="M15.228 12.576C15.6805 12.576 16.0474 12.2092 16.0474 11.7567C16.0474 11.3042 15.6805 10.9374 15.228 10.9374C14.7755 10.9374 14.4087 11.3042 14.4087 11.7567C14.4087 12.2092 14.7755 12.576 15.228 12.576Z" fill="black"/>
<path d="M13.3929 14.7017L12.7974 15.5739" stroke="black" stroke-width="0.5" stroke-linecap="round" stroke-linejoin="round"/>
<path d="M12.5648 14.0588L11.6616 14.732" stroke="black" stroke-width="0.5" stroke-linecap="round" stroke-linejoin="round"/>
<path d="M14.2933 15.2393L13.9951 16.3256" stroke="black" stroke-width="0.5" stroke-linecap="round" stroke-linejoin="round"/>
<path d="M22.8223 13.9877L23.5423 14.7602" stroke="black" stroke-width="0.5" stroke-linecap="round" stroke-linejoin="round"/>
<path d="M23.5444 13.2274L24.5387 13.7569" stroke="black" stroke-width="0.5" stroke-linecap="round" stroke-linejoin="round"/>
<path d="M22.0132 14.6547L22.4715 15.6837" stroke="black" stroke-width="0.5" stroke-linecap="round" stroke-linejoin="round"/>
<path d="M16.5493 13.8114C16.8836 14.3789 17.7434 14.3617 18.1014 13.8736C18.2438 13.6793 18.2848 13.4205 18.287 13.1522C18.3296 13.4171 18.409 13.6668 18.5791 13.8374C19.0066 14.266 19.8591 14.1535 20.1041 13.5422" stroke="black" stroke-width="0.5" stroke-linecap="round" stroke-linejoin="round"/>
<path d="M18.287 13.1522L18.2471 12.6248" stroke="black" stroke-width="0.5" stroke-linecap="round" stroke-linejoin="round"/>
<path d="M6.36683 15.9594L5.9125 15.9798L5.82333 16.4257L5.43773 18.3537L5.40771 18.5038L5.45562 18.6493L7.7416 25.5899L7.87515 25.9954L8.30201 25.989L22.9287 25.7705L23.4158 25.7632L23.4935 25.2823L24.7035 17.789L24.7248 17.6573L24.6865 17.5295L24.1081 15.6015L23.978 15.1678L23.5257 15.1882L6.36683 15.9594Z" fill="#BCBFC7"/>
<path d="M24.7247 17.6573L23.9778 15.1678L21.8887 15.2598L22.7916 17.2976L22.4746 25.7805L23.4157 25.7632L24.7247 17.6573Z" fill="#D2D4D9"/>
<path d="M12.7913 20.651L12.8321 22.3571L13.7242 22.7086L17.0417 22.4074L17.8789 21.9094L17.663 20.2749L18.8263 19.2508L18.3222 18.3401L17.2693 18.7166L16.5992 17.4899L14.9424 17.7567L13.3712 17.7747L12.8941 19.1638L11.7331 19.026L11.5972 20.1456L12.7913 20.651ZM16.0337 21.1269L15.4091 20.5742L16.9754 19.7757L16.6508 20.7927L16.0337 21.1269ZM13.3036 20.0969L14.9945 20.6127L14.298 21.255L13.633 20.8912L13.3036 20.0969Z" fill="#8B91A0"/>
<path d="M19.0359 23.5941H18.8913L18.7722 23.6762L17.6532 24.4474L17.4984 24.5541L17.4614 24.7385L17.1171 26.4522L17.0728 26.673L17.2186 26.8447L18.1654 27.9586L18.2701 28.0818L18.4287 28.1134L19.7197 28.3705L19.828 28.392L19.9343 28.3626L21.4836 27.9342L21.7219 27.8682L21.8004 27.6338C21.8583 27.4609 21.9452 27.1969 22.018 26.9665C22.0543 26.8517 22.0879 26.7423 22.1129 26.6558C22.1252 26.613 22.1365 26.5719 22.1452 26.5368C22.1494 26.5194 22.1541 26.4994 22.1579 26.4791L22.1581 26.4782C22.1605 26.4656 22.1687 26.4226 22.1687 26.3724C22.1687 26.2832 22.1092 25.3818 22.0816 24.9703L22.0699 24.7956L21.9458 24.672L20.999 23.7295L20.8631 23.5941H19.0359Z" fill="#BCBFC7"/>
<path d="M20.6874 24.0588H19.501L20.4332 24.497L21.1111 25.1981V26.6879L19.8284 27.9181L21.3653 27.5642L21.7043 26.425L21.6196 25.0228L20.6874 24.0588Z" fill="#E7E8EC"/>
<path d="M10.9382 23.9796H10.7936L10.6745 24.0617L9.55563 24.8329L9.40075 24.9396L9.36371 25.1239L9.01948 26.8377L8.9751 27.0585L9.12096 27.2302L10.0677 28.3441L10.1725 28.4673L10.331 28.4989L11.6221 28.756L11.7303 28.7775L11.8367 28.7481L13.3859 28.3196L13.6242 28.2537C13.6242 28.2537 13.8476 27.5824 13.9204 27.352C13.9566 27.2371 13.9903 27.1278 14.0152 27.0413C14.0275 26.9985 14.0389 26.9574 14.0475 26.9223C14.0518 26.9049 14.0564 26.8849 14.0603 26.8646L14.0604 26.8637C14.0628 26.8511 14.071 26.8081 14.071 26.7579C14.071 26.6687 14.0115 25.7673 13.9839 25.3558L13.9722 25.1811L13.8482 25.0575L12.9014 24.115L12.7654 23.9796H10.9382Z" fill="#BCBFC7"/>
<path d="M12.5902 24.4443H11.4038L12.336 24.8825L13.0139 25.5836V27.0734L11.7285 28.3044L13.2682 27.9497L13.6072 26.8105L13.5224 25.4083L12.5902 24.4443Z" fill="#E7E8EC"/>
<path d="M19.0359 23.5941H18.8913L18.7722 23.6762L17.6532 24.4474L17.4984 24.5541L17.4614 24.7385L17.1171 26.4522L17.0728 26.673L17.2186 26.8447L18.1654 27.9586L18.2701 28.0818L18.4287 28.1134L19.7197 28.3705L19.828 28.392L19.9343 28.3626L21.4836 27.9342L21.7219 27.8682L21.8004 27.6338C21.8583 27.4609 21.9452 27.1969 22.018 26.9665C22.0543 26.8517 22.0879 26.7423 22.1129 26.6558C22.1252 26.613 22.1365 26.5719 22.1452 26.5368C22.1494 26.5194 22.1541 26.4994 22.1579 26.4791L22.1581 26.4782C22.1605 26.4656 22.1687 26.4226 22.1687 26.3724C22.1687 26.2832 22.1092 25.3818 22.0816 24.9703L22.0699 24.7956L21.9458 24.672L20.999 23.7295L20.8631 23.5941H19.0359Z" stroke="black" stroke-width="1.4" stroke-linejoin="round"/>
<path d="M10.9382 23.9796H10.7936L10.6745 24.0617L9.55563 24.8329L9.40075 24.9396L9.36371 25.1239L9.01948 26.8377L8.9751 27.0585L9.12096 27.2302L10.0677 28.3441L10.1725 28.4673L10.331 28.4989L11.6221 28.756L11.7303 28.7775L11.8367 28.7481L13.3859 28.3196L13.6242 28.2537C13.6242 28.2537 13.8476 27.5824 13.9204 27.352C13.9566 27.2371 13.9903 27.1278 14.0152 27.0413C14.0275 26.9985 14.0389 26.9574 14.0475 26.9223C14.0518 26.9049 14.0564 26.8849 14.0603 26.8646L14.0604 26.8637C14.0628 26.8511 14.071 26.8081 14.071 26.7579C14.071 26.6687 14.0115 25.7673 13.9839 25.3558L13.9722 25.1811L13.8482 25.0575L12.9014 24.115L12.7654 23.9796H10.9382Z" stroke="black" stroke-width="1.4" stroke-linejoin="round"/>
</svg>
