<svg width="18" height="18" viewBox="0 0 18 18" fill="none" xmlns="http://www.w3.org/2000/svg">
<path fill-rule="evenodd" clip-rule="evenodd" d="M2.49505 12.1818L2.13861 8.54545L3.0297 4.72727L8.55446 2.18182L14.2574 4.36306L16.0396 8.90909L14.4356 13.8182L9.9802 16.1818L5.67084 14.9091L2.49505 12.1818ZM1.06931 14.3636L0 9.14666L0.891089 3.27273L7.84158 0L14.9703 2.18182L18 8L16.0396 14.9091L10.6931 18L5.67084 17.0903L1.06931 14.3636Z" fill="#CACACA"/>
<path fill-rule="evenodd" clip-rule="evenodd" d="M8.58176 9.0183L8.92225 9.81007L10.6468 8.13026L12.3582 6.41459L13.6103 7.79404L8.7795 12.2119L4.94734 7.65048L7.15149 5.69237L8.20929 8.25185L8.58176 9.0183Z" fill="#CACACA"/>
</svg>
