<svg width="24" height="24" viewBox="0 0 24 24" fill="none" xmlns="http://www.w3.org/2000/svg">
<path fill-rule="evenodd" clip-rule="evenodd" d="M1.42574 19.1515L0 12.1955L1.18812 4.36364L10.4554 0L19.9604 2.90909L24 10.6667L21.3861 19.8788L14.2574 24L7.56112 22.7871L1.42574 19.1515Z" fill="#FFEA00"/>
<path fill-rule="evenodd" clip-rule="evenodd" d="M2.66667 16.8889L1.875 10.5L3.55556 6.22222L10.4554 1.875L19.125 5.33333L22.2222 10.5L19.125 19.1515L15.5556 21.3333L7.56112 21L2.66667 16.8889ZM1.42574 19.1515L0 12.1955L1.18812 4.36364L10.4554 0L19.9604 2.90909L24 10.6667L21.3861 19.8788L14.2574 24L7.56112 22.7871L1.42574 19.1515Z" fill="black"/>
<path d="M7.11133 10.1832L7.99671 6.21875L14.3259 5.33337L17.0328 11.0178L13.5815 13.8601L13.2432 15.4353L10.0175 15.3677L9.70168 12.3713L13.1981 10.1832L12.1604 9.01022L10.3577 9.46514L10.0175 11.0178L7.11133 10.1832Z" fill="black"/>
<path d="M13.3084 16.2528H10.062L10.2876 18.8037L13.0396 18.939L13.3084 16.2528Z" fill="black"/>
</svg>
